%TF.GenerationSoftware,KiCad,Pcbnew,(6.0.2)*%
%TF.CreationDate,2022-03-24T13:41:09-04:00*%
%TF.ProjectId,MC_Telem,4d435f54-656c-4656-9d2e-6b696361645f,rev?*%
%TF.SameCoordinates,Original*%
%TF.FileFunction,Soldermask,Top*%
%TF.FilePolarity,Negative*%
%FSLAX46Y46*%
G04 Gerber Fmt 4.6, Leading zero omitted, Abs format (unit mm)*
G04 Created by KiCad (PCBNEW (6.0.2)) date 2022-03-24 13:41:09*
%MOMM*%
%LPD*%
G01*
G04 APERTURE LIST*
G04 Aperture macros list*
%AMRoundRect*
0 Rectangle with rounded corners*
0 $1 Rounding radius*
0 $2 $3 $4 $5 $6 $7 $8 $9 X,Y pos of 4 corners*
0 Add a 4 corners polygon primitive as box body*
4,1,4,$2,$3,$4,$5,$6,$7,$8,$9,$2,$3,0*
0 Add four circle primitives for the rounded corners*
1,1,$1+$1,$2,$3*
1,1,$1+$1,$4,$5*
1,1,$1+$1,$6,$7*
1,1,$1+$1,$8,$9*
0 Add four rect primitives between the rounded corners*
20,1,$1+$1,$2,$3,$4,$5,0*
20,1,$1+$1,$4,$5,$6,$7,0*
20,1,$1+$1,$6,$7,$8,$9,0*
20,1,$1+$1,$8,$9,$2,$3,0*%
G04 Aperture macros list end*
%ADD10RoundRect,0.191000X0.140000X0.170000X-0.140000X0.170000X-0.140000X-0.170000X0.140000X-0.170000X0*%
%ADD11RoundRect,0.191000X0.170000X-0.140000X0.170000X0.140000X-0.170000X0.140000X-0.170000X-0.140000X0*%
%ADD12RoundRect,0.301000X1.000000X-1.750000X1.000000X1.750000X-1.000000X1.750000X-1.000000X-1.750000X0*%
%ADD13RoundRect,0.191000X-0.170000X0.140000X-0.170000X-0.140000X0.170000X-0.140000X0.170000X0.140000X0*%
%ADD14RoundRect,0.191000X-0.140000X-0.170000X0.140000X-0.170000X0.140000X0.170000X-0.140000X0.170000X0*%
%ADD15C,3.302000*%
%ADD16RoundRect,0.051000X1.200000X0.370000X-1.200000X0.370000X-1.200000X-0.370000X1.200000X-0.370000X0*%
%ADD17RoundRect,0.051000X0.690000X-0.225000X0.690000X0.225000X-0.690000X0.225000X-0.690000X-0.225000X0*%
%ADD18RoundRect,0.051000X0.950000X-0.500000X0.950000X0.500000X-0.950000X0.500000X-0.950000X-0.500000X0*%
%ADD19RoundRect,0.051000X0.650000X-0.825000X0.650000X0.825000X-0.650000X0.825000X-0.650000X-0.825000X0*%
%ADD20RoundRect,0.051000X0.775000X-0.712500X0.775000X0.712500X-0.775000X0.712500X-0.775000X-0.712500X0*%
%ADD21RoundRect,0.051000X0.950000X-0.900000X0.950000X0.900000X-0.950000X0.900000X-0.950000X-0.900000X0*%
%ADD22C,3.102000*%
%ADD23RoundRect,0.301001X0.759999X-0.499999X0.759999X0.499999X-0.759999X0.499999X-0.759999X-0.499999X0*%
%ADD24O,2.122000X1.602000*%
%ADD25RoundRect,0.301001X0.499999X0.759999X-0.499999X0.759999X-0.499999X-0.759999X0.499999X-0.759999X0*%
%ADD26O,1.602000X2.122000*%
%ADD27RoundRect,0.051000X-0.850000X-0.850000X0.850000X-0.850000X0.850000X0.850000X-0.850000X0.850000X0*%
%ADD28O,1.802000X1.802000*%
%ADD29RoundRect,0.201000X-0.587500X-0.150000X0.587500X-0.150000X0.587500X0.150000X-0.587500X0.150000X0*%
%ADD30RoundRect,0.251000X-0.275000X0.200000X-0.275000X-0.200000X0.275000X-0.200000X0.275000X0.200000X0*%
%ADD31RoundRect,0.251000X0.200000X0.275000X-0.200000X0.275000X-0.200000X-0.275000X0.200000X-0.275000X0*%
%ADD32RoundRect,0.251000X0.275000X-0.200000X0.275000X0.200000X-0.275000X0.200000X-0.275000X-0.200000X0*%
%ADD33RoundRect,0.251000X-0.200000X-0.275000X0.200000X-0.275000X0.200000X0.275000X-0.200000X0.275000X0*%
%ADD34RoundRect,0.126000X-0.700000X-0.075000X0.700000X-0.075000X0.700000X0.075000X-0.700000X0.075000X0*%
%ADD35RoundRect,0.126000X-0.075000X-0.700000X0.075000X-0.700000X0.075000X0.700000X-0.075000X0.700000X0*%
%ADD36RoundRect,0.051000X0.700000X-0.300000X0.700000X0.300000X-0.700000X0.300000X-0.700000X-0.300000X0*%
%ADD37RoundRect,0.051000X0.775000X0.300000X-0.775000X0.300000X-0.775000X-0.300000X0.775000X-0.300000X0*%
%ADD38RoundRect,0.051000X1.300000X1.550000X-1.300000X1.550000X-1.300000X-1.550000X1.300000X-1.550000X0*%
%ADD39RoundRect,0.051000X-0.200000X0.750000X-0.200000X-0.750000X0.200000X-0.750000X0.200000X0.750000X0*%
%ADD40C,2.802000*%
%ADD41RoundRect,0.432000X0.381000X-0.381000X0.381000X0.381000X-0.381000X0.381000X-0.381000X-0.381000X0*%
%ADD42C,1.626000*%
%ADD43RoundRect,0.301001X-0.759999X0.499999X-0.759999X-0.499999X0.759999X-0.499999X0.759999X0.499999X0*%
%ADD44RoundRect,0.294750X-0.456250X0.243750X-0.456250X-0.243750X0.456250X-0.243750X0.456250X0.243750X0*%
%ADD45RoundRect,0.151000X0.637500X0.100000X-0.637500X0.100000X-0.637500X-0.100000X0.637500X-0.100000X0*%
%ADD46RoundRect,0.051000X-0.750000X1.000000X-0.750000X-1.000000X0.750000X-1.000000X0.750000X1.000000X0*%
%ADD47RoundRect,0.051000X-1.900000X1.000000X-1.900000X-1.000000X1.900000X-1.000000X1.900000X1.000000X0*%
%ADD48RoundRect,0.269750X-0.218750X-0.256250X0.218750X-0.256250X0.218750X0.256250X-0.218750X0.256250X0*%
%ADD49RoundRect,0.294750X-0.243750X-0.456250X0.243750X-0.456250X0.243750X0.456250X-0.243750X0.456250X0*%
%ADD50RoundRect,0.294750X0.243750X0.456250X-0.243750X0.456250X-0.243750X-0.456250X0.243750X-0.456250X0*%
%ADD51RoundRect,0.201000X0.150000X-0.587500X0.150000X0.587500X-0.150000X0.587500X-0.150000X-0.587500X0*%
%ADD52RoundRect,0.051000X-1.250000X-0.900000X1.250000X-0.900000X1.250000X0.900000X-1.250000X0.900000X0*%
%ADD53RoundRect,0.051000X1.250000X1.800000X-1.250000X1.800000X-1.250000X-1.800000X1.250000X-1.800000X0*%
%ADD54C,4.102000*%
%ADD55RoundRect,0.051000X-0.800000X-0.800000X0.800000X-0.800000X0.800000X0.800000X-0.800000X0.800000X0*%
%ADD56C,1.702000*%
%ADD57RoundRect,0.126000X-0.350000X-0.075000X0.350000X-0.075000X0.350000X0.075000X-0.350000X0.075000X0*%
%ADD58RoundRect,0.126000X0.075000X-0.350000X0.075000X0.350000X-0.075000X0.350000X-0.075000X-0.350000X0*%
G04 APERTURE END LIST*
D10*
%TO.C,C1*%
X94505000Y-92600000D03*
X93545000Y-92600000D03*
%TD*%
%TO.C,C2*%
X89705260Y-96500000D03*
X88745260Y-96500000D03*
%TD*%
D11*
%TO.C,C3*%
X98625000Y-83965000D03*
X98625000Y-83005000D03*
%TD*%
%TO.C,C4*%
X90900000Y-79935000D03*
X90900000Y-78975000D03*
%TD*%
D12*
%TO.C,C5*%
X104300000Y-81850000D03*
X104300000Y-75750000D03*
%TD*%
D13*
%TO.C,C6*%
X111000000Y-74905000D03*
X111000000Y-75865000D03*
%TD*%
%TO.C,C7*%
X115600000Y-83820000D03*
X115600000Y-84780000D03*
%TD*%
D10*
%TO.C,C8*%
X102230000Y-109100000D03*
X101270000Y-109100000D03*
%TD*%
%TO.C,C9*%
X99593200Y-116586000D03*
X98633200Y-116586000D03*
%TD*%
D14*
%TO.C,C10*%
X111864200Y-122580400D03*
X112824200Y-122580400D03*
%TD*%
%TO.C,C11*%
X116464000Y-111023400D03*
X117424000Y-111023400D03*
%TD*%
D10*
%TO.C,C13*%
X105354200Y-123266200D03*
X104394200Y-123266200D03*
%TD*%
D13*
%TO.C,C18*%
X101910000Y-95865000D03*
X101910000Y-96825000D03*
%TD*%
D15*
%TO.C,H1*%
X80000000Y-65000000D03*
%TD*%
%TO.C,H2*%
X170000000Y-65000000D03*
%TD*%
%TO.C,H4*%
X170000000Y-155000000D03*
%TD*%
D16*
%TO.C,J1*%
X129610400Y-109702600D03*
X125710400Y-109702600D03*
X129610400Y-108432600D03*
X125710400Y-108432600D03*
X129610400Y-107162600D03*
X125710400Y-107162600D03*
X129610400Y-105892600D03*
X125710400Y-105892600D03*
X129610400Y-104622600D03*
X125710400Y-104622600D03*
%TD*%
D17*
%TO.C,J2*%
X170830000Y-113720000D03*
X170830000Y-113070000D03*
X170830000Y-112420000D03*
X170830000Y-111770000D03*
X170830000Y-111120000D03*
D18*
X173490000Y-110870000D03*
D19*
X173490000Y-115795000D03*
D20*
X170915000Y-109932500D03*
X170915000Y-114907500D03*
D19*
X173490000Y-109045000D03*
D21*
X173490000Y-113570000D03*
%TD*%
D22*
%TO.C,J4*%
X80137000Y-76150000D03*
X80137000Y-95850000D03*
D23*
X84457000Y-98000000D03*
D24*
X84457000Y-95000000D03*
X84457000Y-92000000D03*
X84457000Y-89000000D03*
X84457000Y-86000000D03*
X84457000Y-83000000D03*
X84457000Y-80000000D03*
X84457000Y-77000000D03*
X84457000Y-74000000D03*
%TD*%
D22*
%TO.C,J8*%
X89200000Y-154845000D03*
D25*
X90700000Y-150525000D03*
D26*
X87700000Y-150525000D03*
%TD*%
D27*
%TO.C,J9*%
X128000000Y-83050000D03*
D28*
X128000000Y-85590000D03*
X128000000Y-88130000D03*
X128000000Y-90670000D03*
X128000000Y-93210000D03*
%TD*%
D29*
%TO.C,Q1*%
X122658900Y-139766000D03*
X122658900Y-141666000D03*
X124533900Y-140716000D03*
%TD*%
D30*
%TO.C,R9*%
X119380000Y-68162500D03*
X119380000Y-69812500D03*
%TD*%
D31*
%TO.C,R11*%
X91325000Y-95000000D03*
X89675000Y-95000000D03*
%TD*%
D32*
%TO.C,R13*%
X121453600Y-66892400D03*
X121453600Y-65242400D03*
%TD*%
D33*
%TO.C,R14*%
X117002500Y-63850000D03*
X118652500Y-63850000D03*
%TD*%
D32*
%TO.C,R16*%
X120612000Y-78464400D03*
X120612000Y-76814400D03*
%TD*%
D31*
%TO.C,R17*%
X96454500Y-75549600D03*
X94804500Y-75549600D03*
%TD*%
%TO.C,R18*%
X93305100Y-75549600D03*
X91655100Y-75549600D03*
%TD*%
D34*
%TO.C,U1*%
X102431000Y-111022400D03*
X102431000Y-111522400D03*
X102431000Y-112022400D03*
X102431000Y-112522400D03*
X102431000Y-113022400D03*
X102431000Y-113522400D03*
X102431000Y-114022400D03*
X102431000Y-114522400D03*
X102431000Y-115022400D03*
X102431000Y-115522400D03*
X102431000Y-116022400D03*
X102431000Y-116522400D03*
X102431000Y-117022400D03*
X102431000Y-117522400D03*
X102431000Y-118022400D03*
X102431000Y-118522400D03*
D35*
X104356000Y-120447400D03*
X104856000Y-120447400D03*
X105356000Y-120447400D03*
X105856000Y-120447400D03*
X106356000Y-120447400D03*
X106856000Y-120447400D03*
X107356000Y-120447400D03*
X107856000Y-120447400D03*
X108356000Y-120447400D03*
X108856000Y-120447400D03*
X109356000Y-120447400D03*
X109856000Y-120447400D03*
X110356000Y-120447400D03*
X110856000Y-120447400D03*
X111356000Y-120447400D03*
X111856000Y-120447400D03*
D34*
X113781000Y-118522400D03*
X113781000Y-118022400D03*
X113781000Y-117522400D03*
X113781000Y-117022400D03*
X113781000Y-116522400D03*
X113781000Y-116022400D03*
X113781000Y-115522400D03*
X113781000Y-115022400D03*
X113781000Y-114522400D03*
X113781000Y-114022400D03*
X113781000Y-113522400D03*
X113781000Y-113022400D03*
X113781000Y-112522400D03*
X113781000Y-112022400D03*
X113781000Y-111522400D03*
X113781000Y-111022400D03*
D35*
X111856000Y-109097400D03*
X111356000Y-109097400D03*
X110856000Y-109097400D03*
X110356000Y-109097400D03*
X109856000Y-109097400D03*
X109356000Y-109097400D03*
X108856000Y-109097400D03*
X108356000Y-109097400D03*
X107856000Y-109097400D03*
X107356000Y-109097400D03*
X106856000Y-109097400D03*
X106356000Y-109097400D03*
X105856000Y-109097400D03*
X105356000Y-109097400D03*
X104856000Y-109097400D03*
X104356000Y-109097400D03*
%TD*%
D36*
%TO.C,U3*%
X100016760Y-98399600D03*
X100016760Y-97129600D03*
X100016760Y-95859600D03*
X100016760Y-94589600D03*
X94516760Y-94589600D03*
X94516760Y-95859600D03*
X94516760Y-97129600D03*
X94516760Y-98399600D03*
%TD*%
D37*
%TO.C,U5*%
X98632200Y-81270000D03*
X98632200Y-80000000D03*
X98632200Y-78730000D03*
X98632200Y-77460000D03*
X93232200Y-77460000D03*
X93232200Y-78730000D03*
X93232200Y-80000000D03*
X93232200Y-81270000D03*
D38*
X95932200Y-79365000D03*
%TD*%
D39*
%TO.C,U8*%
X138861800Y-139224400D03*
X138211800Y-139224400D03*
X137561800Y-139224400D03*
X137561800Y-141884400D03*
X138211800Y-141884400D03*
X138861800Y-141884400D03*
%TD*%
D40*
%TO.C,U9*%
X81820000Y-118989800D03*
X81820000Y-144989800D03*
X43620000Y-131989800D03*
D41*
X82280000Y-140949800D03*
D42*
X79740000Y-140949800D03*
X82280000Y-138409800D03*
X79740000Y-138409800D03*
X82280000Y-135869800D03*
X79740000Y-135869800D03*
X82280000Y-133329800D03*
X79740000Y-133329800D03*
X82280000Y-130789800D03*
X79740000Y-130789800D03*
X82280000Y-128249800D03*
X79740000Y-128249800D03*
X82280000Y-125709800D03*
X79740000Y-125709800D03*
X82280000Y-123169800D03*
X79740000Y-123169800D03*
%TD*%
D22*
%TO.C,J3*%
X169890000Y-76150000D03*
X169890000Y-95850000D03*
D43*
X165570000Y-74000000D03*
D24*
X165570000Y-77000000D03*
X165570000Y-80000000D03*
X165570000Y-83000000D03*
X165570000Y-86000000D03*
X165570000Y-89000000D03*
X165570000Y-92000000D03*
X165570000Y-95000000D03*
X165570000Y-98000000D03*
%TD*%
D44*
%TO.C,D3*%
X120612000Y-80997200D03*
X120612000Y-82872200D03*
%TD*%
D45*
%TO.C,U2*%
X116952500Y-68195000D03*
X116952500Y-67545000D03*
X116952500Y-66895000D03*
X116952500Y-66245000D03*
X111227500Y-66245000D03*
X111227500Y-66895000D03*
X111227500Y-67545000D03*
X111227500Y-68195000D03*
%TD*%
D32*
%TO.C,R10*%
X121450000Y-70797500D03*
X121450000Y-69147500D03*
%TD*%
D46*
%TO.C,U4*%
X117900000Y-74900000D03*
D47*
X115600000Y-81200000D03*
D46*
X115600000Y-74900000D03*
X113300000Y-74900000D03*
%TD*%
D33*
%TO.C,R1*%
X79743700Y-113284000D03*
X81393700Y-113284000D03*
%TD*%
%TO.C,R2*%
X79489700Y-108331000D03*
X81139700Y-108331000D03*
%TD*%
D48*
%TO.C,D2*%
X84225301Y-108346001D03*
X85800301Y-108346001D03*
%TD*%
D49*
%TO.C,D1*%
X84028200Y-113284000D03*
X85903200Y-113284000D03*
%TD*%
D39*
%TO.C,U7*%
X142087600Y-139224400D03*
X141437600Y-139224400D03*
X140787600Y-139224400D03*
X140787600Y-141884400D03*
X141437600Y-141884400D03*
X142087600Y-141884400D03*
%TD*%
D50*
%TO.C,D5*%
X154350800Y-141173200D03*
X152475800Y-141173200D03*
%TD*%
D31*
%TO.C,R3*%
X158584500Y-141173200D03*
X156934500Y-141173200D03*
%TD*%
D51*
%TO.C,Q2*%
X126550000Y-141662900D03*
X128450000Y-141662900D03*
X127500000Y-139787900D03*
%TD*%
D15*
%TO.C,H3*%
X80000000Y-155000000D03*
%TD*%
D31*
%TO.C,R12*%
X91325000Y-98000000D03*
X89675000Y-98000000D03*
%TD*%
D52*
%TO.C,D4*%
X92100000Y-84000000D03*
X96100000Y-84000000D03*
%TD*%
D53*
%TO.C,L1*%
X104100000Y-87820000D03*
X99400000Y-87820000D03*
%TD*%
D10*
%TO.C,C12*%
X104345000Y-107250000D03*
X103385000Y-107250000D03*
%TD*%
D30*
%TO.C,R15*%
X98600000Y-73887500D03*
X98600000Y-75537500D03*
%TD*%
D54*
%TO.C,J7*%
X162530000Y-150920000D03*
X99030000Y-150920000D03*
D55*
X105850000Y-149500000D03*
D56*
X108620000Y-149500000D03*
X111390000Y-149500000D03*
X114160000Y-149500000D03*
X116930000Y-149500000D03*
X119700000Y-149500000D03*
X122470000Y-149500000D03*
X125240000Y-149500000D03*
X128010000Y-149500000D03*
X130780000Y-149500000D03*
X133550000Y-149500000D03*
X136320000Y-149500000D03*
X139090000Y-149500000D03*
X141860000Y-149500000D03*
X144630000Y-149500000D03*
X147400000Y-149500000D03*
X150170000Y-149500000D03*
X152940000Y-149500000D03*
X155710000Y-149500000D03*
X107235000Y-152340000D03*
X110005000Y-152340000D03*
X112775000Y-152340000D03*
X115545000Y-152340000D03*
X118315000Y-152340000D03*
X121085000Y-152340000D03*
X123855000Y-152340000D03*
X126625000Y-152340000D03*
X129395000Y-152340000D03*
X132165000Y-152340000D03*
X134935000Y-152340000D03*
X137705000Y-152340000D03*
X140475000Y-152340000D03*
X143245000Y-152340000D03*
X146015000Y-152340000D03*
X148785000Y-152340000D03*
X151555000Y-152340000D03*
X154325000Y-152340000D03*
%TD*%
D31*
%TO.C,R20*%
X113075000Y-133220000D03*
X111425000Y-133220000D03*
%TD*%
D13*
%TO.C,C19*%
X140800000Y-143700000D03*
X140800000Y-144660000D03*
%TD*%
%TO.C,C20*%
X137550000Y-143690000D03*
X137550000Y-144650000D03*
%TD*%
D11*
%TO.C,C14*%
X115550000Y-140330000D03*
X115550000Y-139370000D03*
%TD*%
D14*
%TO.C,C16*%
X112820000Y-141450000D03*
X113780000Y-141450000D03*
%TD*%
D10*
%TO.C,C15*%
X111450000Y-141925000D03*
X110490000Y-141925000D03*
%TD*%
D33*
%TO.C,R19*%
X108325000Y-133220000D03*
X109975000Y-133220000D03*
%TD*%
D14*
%TO.C,C17*%
X112950000Y-134720000D03*
X113910000Y-134720000D03*
%TD*%
D57*
%TO.C,U6*%
X110250000Y-136870000D03*
X110250000Y-137370000D03*
X110250000Y-137870000D03*
X110250000Y-138370000D03*
X110250000Y-138870000D03*
X110250000Y-139370000D03*
D58*
X110950000Y-140070000D03*
X111450000Y-140070000D03*
X111950000Y-140070000D03*
X112450000Y-140070000D03*
X112950000Y-140070000D03*
X113450000Y-140070000D03*
D57*
X114150000Y-139370000D03*
X114150000Y-138870000D03*
X114150000Y-138370000D03*
X114150000Y-137870000D03*
X114150000Y-137370000D03*
X114150000Y-136870000D03*
D58*
X113450000Y-136170000D03*
X112950000Y-136170000D03*
X112450000Y-136170000D03*
X111950000Y-136170000D03*
X111450000Y-136170000D03*
X110950000Y-136170000D03*
%TD*%
G36*
X137802460Y-141101893D02*
G01*
X137816252Y-141111109D01*
X137817415Y-141109369D01*
X137819209Y-141108484D01*
X137820360Y-141108945D01*
X137837752Y-141123478D01*
X137906470Y-141132104D01*
X137954088Y-141109318D01*
X137956082Y-141109472D01*
X137956614Y-141110011D01*
X137957348Y-141111109D01*
X137971140Y-141101893D01*
X137973136Y-141101762D01*
X137974247Y-141103425D01*
X137973914Y-141104667D01*
X137966567Y-141115662D01*
X137962800Y-141134599D01*
X137962800Y-142634201D01*
X137966567Y-142653138D01*
X137973914Y-142664133D01*
X137974045Y-142666129D01*
X137972382Y-142667240D01*
X137971140Y-142666907D01*
X137957348Y-142657691D01*
X137956185Y-142659431D01*
X137954391Y-142660316D01*
X137953240Y-142659855D01*
X137935848Y-142645322D01*
X137867130Y-142636696D01*
X137819512Y-142659482D01*
X137817518Y-142659328D01*
X137816986Y-142658789D01*
X137816252Y-142657691D01*
X137802460Y-142666907D01*
X137800464Y-142667038D01*
X137799353Y-142665375D01*
X137799686Y-142664133D01*
X137807033Y-142653138D01*
X137810800Y-142634201D01*
X137810800Y-141134599D01*
X137807033Y-141115662D01*
X137799686Y-141104667D01*
X137799555Y-141102671D01*
X137801218Y-141101560D01*
X137802460Y-141101893D01*
G37*
G36*
X141678260Y-141101893D02*
G01*
X141692052Y-141111109D01*
X141693215Y-141109369D01*
X141695009Y-141108484D01*
X141696160Y-141108945D01*
X141713552Y-141123478D01*
X141782270Y-141132104D01*
X141829888Y-141109318D01*
X141831882Y-141109472D01*
X141832414Y-141110011D01*
X141833148Y-141111109D01*
X141846940Y-141101893D01*
X141848936Y-141101762D01*
X141850047Y-141103425D01*
X141849714Y-141104667D01*
X141842367Y-141115662D01*
X141838600Y-141134599D01*
X141838600Y-142634201D01*
X141842367Y-142653138D01*
X141849714Y-142664133D01*
X141849845Y-142666129D01*
X141848182Y-142667240D01*
X141846940Y-142666907D01*
X141833148Y-142657691D01*
X141831985Y-142659431D01*
X141830191Y-142660316D01*
X141829040Y-142659855D01*
X141811648Y-142645322D01*
X141742930Y-142636696D01*
X141695312Y-142659482D01*
X141693318Y-142659328D01*
X141692786Y-142658789D01*
X141692052Y-142657691D01*
X141678260Y-142666907D01*
X141676264Y-142667038D01*
X141675153Y-142665375D01*
X141675486Y-142664133D01*
X141682833Y-142653138D01*
X141686600Y-142634201D01*
X141686600Y-141134599D01*
X141682833Y-141115662D01*
X141675486Y-141104667D01*
X141675355Y-141102671D01*
X141677018Y-141101560D01*
X141678260Y-141101893D01*
G37*
G36*
X138452460Y-141101893D02*
G01*
X138466252Y-141111109D01*
X138467415Y-141109369D01*
X138469209Y-141108484D01*
X138470360Y-141108945D01*
X138487752Y-141123478D01*
X138556470Y-141132104D01*
X138604088Y-141109318D01*
X138606082Y-141109472D01*
X138606614Y-141110011D01*
X138607348Y-141111109D01*
X138621140Y-141101893D01*
X138623136Y-141101762D01*
X138624247Y-141103425D01*
X138623914Y-141104667D01*
X138616567Y-141115662D01*
X138612800Y-141134599D01*
X138612800Y-142634201D01*
X138616567Y-142653138D01*
X138623914Y-142664133D01*
X138624045Y-142666129D01*
X138622382Y-142667240D01*
X138621140Y-142666907D01*
X138607348Y-142657691D01*
X138606185Y-142659431D01*
X138604391Y-142660316D01*
X138603240Y-142659855D01*
X138585848Y-142645322D01*
X138517130Y-142636696D01*
X138469512Y-142659482D01*
X138467518Y-142659328D01*
X138466986Y-142658789D01*
X138466252Y-142657691D01*
X138452460Y-142666907D01*
X138450464Y-142667038D01*
X138449353Y-142665375D01*
X138449686Y-142664133D01*
X138457033Y-142653138D01*
X138460800Y-142634201D01*
X138460800Y-141134599D01*
X138457033Y-141115662D01*
X138449686Y-141104667D01*
X138449555Y-141102671D01*
X138451218Y-141101560D01*
X138452460Y-141101893D01*
G37*
G36*
X141028260Y-141101893D02*
G01*
X141042052Y-141111109D01*
X141043215Y-141109369D01*
X141045009Y-141108484D01*
X141046160Y-141108945D01*
X141063552Y-141123478D01*
X141132270Y-141132104D01*
X141179888Y-141109318D01*
X141181882Y-141109472D01*
X141182414Y-141110011D01*
X141183148Y-141111109D01*
X141196940Y-141101893D01*
X141198936Y-141101762D01*
X141200047Y-141103425D01*
X141199714Y-141104667D01*
X141192367Y-141115662D01*
X141188600Y-141134599D01*
X141188600Y-142634201D01*
X141192367Y-142653138D01*
X141199714Y-142664133D01*
X141199845Y-142666129D01*
X141198182Y-142667240D01*
X141196940Y-142666907D01*
X141183148Y-142657691D01*
X141181985Y-142659431D01*
X141180191Y-142660316D01*
X141179040Y-142659855D01*
X141161648Y-142645322D01*
X141092930Y-142636696D01*
X141045312Y-142659482D01*
X141043318Y-142659328D01*
X141042786Y-142658789D01*
X141042052Y-142657691D01*
X141028260Y-142666907D01*
X141026264Y-142667038D01*
X141025153Y-142665375D01*
X141025486Y-142664133D01*
X141032833Y-142653138D01*
X141036600Y-142634201D01*
X141036600Y-141134599D01*
X141032833Y-141115662D01*
X141025486Y-141104667D01*
X141025355Y-141102671D01*
X141027018Y-141101560D01*
X141028260Y-141101893D01*
G37*
G36*
X111118693Y-139634460D02*
G01*
X111131425Y-139642967D01*
X111197789Y-139663747D01*
X111268589Y-139642958D01*
X111281307Y-139634460D01*
X111283303Y-139634329D01*
X111284414Y-139635992D01*
X111284081Y-139637234D01*
X111260476Y-139672561D01*
X111251000Y-139720199D01*
X111251000Y-140419801D01*
X111260476Y-140467439D01*
X111284081Y-140502766D01*
X111284212Y-140504762D01*
X111282549Y-140505873D01*
X111281307Y-140505540D01*
X111268575Y-140497033D01*
X111202211Y-140476253D01*
X111131411Y-140497042D01*
X111118693Y-140505540D01*
X111116697Y-140505671D01*
X111115586Y-140504008D01*
X111115919Y-140502766D01*
X111139524Y-140467439D01*
X111149000Y-140419801D01*
X111149000Y-139720199D01*
X111139524Y-139672561D01*
X111115919Y-139637234D01*
X111115788Y-139635238D01*
X111117451Y-139634127D01*
X111118693Y-139634460D01*
G37*
G36*
X113118693Y-139634460D02*
G01*
X113131425Y-139642967D01*
X113197789Y-139663747D01*
X113268589Y-139642958D01*
X113281307Y-139634460D01*
X113283303Y-139634329D01*
X113284414Y-139635992D01*
X113284081Y-139637234D01*
X113260476Y-139672561D01*
X113251000Y-139720199D01*
X113251000Y-140419801D01*
X113260476Y-140467439D01*
X113284081Y-140502766D01*
X113284212Y-140504762D01*
X113282549Y-140505873D01*
X113281307Y-140505540D01*
X113268575Y-140497033D01*
X113202211Y-140476253D01*
X113131411Y-140497042D01*
X113118693Y-140505540D01*
X113116697Y-140505671D01*
X113115586Y-140504008D01*
X113115919Y-140502766D01*
X113139524Y-140467439D01*
X113149000Y-140419801D01*
X113149000Y-139720199D01*
X113139524Y-139672561D01*
X113115919Y-139637234D01*
X113115788Y-139635238D01*
X113117451Y-139634127D01*
X113118693Y-139634460D01*
G37*
G36*
X111618693Y-139634460D02*
G01*
X111631425Y-139642967D01*
X111697789Y-139663747D01*
X111768589Y-139642958D01*
X111781307Y-139634460D01*
X111783303Y-139634329D01*
X111784414Y-139635992D01*
X111784081Y-139637234D01*
X111760476Y-139672561D01*
X111751000Y-139720199D01*
X111751000Y-140419801D01*
X111760476Y-140467439D01*
X111784081Y-140502766D01*
X111784212Y-140504762D01*
X111782549Y-140505873D01*
X111781307Y-140505540D01*
X111768575Y-140497033D01*
X111702211Y-140476253D01*
X111631411Y-140497042D01*
X111618693Y-140505540D01*
X111616697Y-140505671D01*
X111615586Y-140504008D01*
X111615919Y-140502766D01*
X111639524Y-140467439D01*
X111649000Y-140419801D01*
X111649000Y-139720199D01*
X111639524Y-139672561D01*
X111615919Y-139637234D01*
X111615788Y-139635238D01*
X111617451Y-139634127D01*
X111618693Y-139634460D01*
G37*
G36*
X112118693Y-139634460D02*
G01*
X112131425Y-139642967D01*
X112197789Y-139663747D01*
X112268589Y-139642958D01*
X112281307Y-139634460D01*
X112283303Y-139634329D01*
X112284414Y-139635992D01*
X112284081Y-139637234D01*
X112260476Y-139672561D01*
X112251000Y-139720199D01*
X112251000Y-140419801D01*
X112260476Y-140467439D01*
X112284081Y-140502766D01*
X112284212Y-140504762D01*
X112282549Y-140505873D01*
X112281307Y-140505540D01*
X112268575Y-140497033D01*
X112202211Y-140476253D01*
X112131411Y-140497042D01*
X112118693Y-140505540D01*
X112116697Y-140505671D01*
X112115586Y-140504008D01*
X112115919Y-140502766D01*
X112139524Y-140467439D01*
X112149000Y-140419801D01*
X112149000Y-139720199D01*
X112139524Y-139672561D01*
X112115919Y-139637234D01*
X112115788Y-139635238D01*
X112117451Y-139634127D01*
X112118693Y-139634460D01*
G37*
G36*
X112618693Y-139634460D02*
G01*
X112631425Y-139642967D01*
X112697789Y-139663747D01*
X112768589Y-139642958D01*
X112781307Y-139634460D01*
X112783303Y-139634329D01*
X112784414Y-139635992D01*
X112784081Y-139637234D01*
X112760476Y-139672561D01*
X112751000Y-139720199D01*
X112751000Y-140419801D01*
X112760476Y-140467439D01*
X112784081Y-140502766D01*
X112784212Y-140504762D01*
X112782549Y-140505873D01*
X112781307Y-140505540D01*
X112768575Y-140497033D01*
X112702211Y-140476253D01*
X112631411Y-140497042D01*
X112618693Y-140505540D01*
X112616697Y-140505671D01*
X112615586Y-140504008D01*
X112615919Y-140502766D01*
X112639524Y-140467439D01*
X112649000Y-140419801D01*
X112649000Y-139720199D01*
X112639524Y-139672561D01*
X112615919Y-139637234D01*
X112615788Y-139635238D01*
X112617451Y-139634127D01*
X112618693Y-139634460D01*
G37*
G36*
X141028260Y-138441893D02*
G01*
X141042052Y-138451109D01*
X141043215Y-138449369D01*
X141045009Y-138448484D01*
X141046160Y-138448945D01*
X141063552Y-138463478D01*
X141132270Y-138472104D01*
X141179888Y-138449318D01*
X141181882Y-138449472D01*
X141182414Y-138450011D01*
X141183148Y-138451109D01*
X141196940Y-138441893D01*
X141198936Y-138441762D01*
X141200047Y-138443425D01*
X141199714Y-138444667D01*
X141192367Y-138455662D01*
X141188600Y-138474599D01*
X141188600Y-139974201D01*
X141192367Y-139993138D01*
X141199714Y-140004133D01*
X141199845Y-140006129D01*
X141198182Y-140007240D01*
X141196940Y-140006907D01*
X141183148Y-139997691D01*
X141181985Y-139999431D01*
X141180191Y-140000316D01*
X141179040Y-139999855D01*
X141161648Y-139985322D01*
X141092930Y-139976696D01*
X141045312Y-139999482D01*
X141043318Y-139999328D01*
X141042786Y-139998789D01*
X141042052Y-139997691D01*
X141028260Y-140006907D01*
X141026264Y-140007038D01*
X141025153Y-140005375D01*
X141025486Y-140004133D01*
X141032833Y-139993138D01*
X141036600Y-139974201D01*
X141036600Y-138474599D01*
X141032833Y-138455662D01*
X141025486Y-138444667D01*
X141025355Y-138442671D01*
X141027018Y-138441560D01*
X141028260Y-138441893D01*
G37*
G36*
X137802460Y-138441893D02*
G01*
X137816252Y-138451109D01*
X137817415Y-138449369D01*
X137819209Y-138448484D01*
X137820360Y-138448945D01*
X137837752Y-138463478D01*
X137906470Y-138472104D01*
X137954088Y-138449318D01*
X137956082Y-138449472D01*
X137956614Y-138450011D01*
X137957348Y-138451109D01*
X137971140Y-138441893D01*
X137973136Y-138441762D01*
X137974247Y-138443425D01*
X137973914Y-138444667D01*
X137966567Y-138455662D01*
X137962800Y-138474599D01*
X137962800Y-139974201D01*
X137966567Y-139993138D01*
X137973914Y-140004133D01*
X137974045Y-140006129D01*
X137972382Y-140007240D01*
X137971140Y-140006907D01*
X137957348Y-139997691D01*
X137956185Y-139999431D01*
X137954391Y-140000316D01*
X137953240Y-139999855D01*
X137935848Y-139985322D01*
X137867130Y-139976696D01*
X137819512Y-139999482D01*
X137817518Y-139999328D01*
X137816986Y-139998789D01*
X137816252Y-139997691D01*
X137802460Y-140006907D01*
X137800464Y-140007038D01*
X137799353Y-140005375D01*
X137799686Y-140004133D01*
X137807033Y-139993138D01*
X137810800Y-139974201D01*
X137810800Y-138474599D01*
X137807033Y-138455662D01*
X137799686Y-138444667D01*
X137799555Y-138442671D01*
X137801218Y-138441560D01*
X137802460Y-138441893D01*
G37*
G36*
X138452460Y-138441893D02*
G01*
X138466252Y-138451109D01*
X138467415Y-138449369D01*
X138469209Y-138448484D01*
X138470360Y-138448945D01*
X138487752Y-138463478D01*
X138556470Y-138472104D01*
X138604088Y-138449318D01*
X138606082Y-138449472D01*
X138606614Y-138450011D01*
X138607348Y-138451109D01*
X138621140Y-138441893D01*
X138623136Y-138441762D01*
X138624247Y-138443425D01*
X138623914Y-138444667D01*
X138616567Y-138455662D01*
X138612800Y-138474599D01*
X138612800Y-139974201D01*
X138616567Y-139993138D01*
X138623914Y-140004133D01*
X138624045Y-140006129D01*
X138622382Y-140007240D01*
X138621140Y-140006907D01*
X138607348Y-139997691D01*
X138606185Y-139999431D01*
X138604391Y-140000316D01*
X138603240Y-139999855D01*
X138585848Y-139985322D01*
X138517130Y-139976696D01*
X138469512Y-139999482D01*
X138467518Y-139999328D01*
X138466986Y-139998789D01*
X138466252Y-139997691D01*
X138452460Y-140006907D01*
X138450464Y-140007038D01*
X138449353Y-140005375D01*
X138449686Y-140004133D01*
X138457033Y-139993138D01*
X138460800Y-139974201D01*
X138460800Y-138474599D01*
X138457033Y-138455662D01*
X138449686Y-138444667D01*
X138449555Y-138442671D01*
X138451218Y-138441560D01*
X138452460Y-138441893D01*
G37*
G36*
X141678260Y-138441893D02*
G01*
X141692052Y-138451109D01*
X141693215Y-138449369D01*
X141695009Y-138448484D01*
X141696160Y-138448945D01*
X141713552Y-138463478D01*
X141782270Y-138472104D01*
X141829888Y-138449318D01*
X141831882Y-138449472D01*
X141832414Y-138450011D01*
X141833148Y-138451109D01*
X141846940Y-138441893D01*
X141848936Y-138441762D01*
X141850047Y-138443425D01*
X141849714Y-138444667D01*
X141842367Y-138455662D01*
X141838600Y-138474599D01*
X141838600Y-139974201D01*
X141842367Y-139993138D01*
X141849714Y-140004133D01*
X141849845Y-140006129D01*
X141848182Y-140007240D01*
X141846940Y-140006907D01*
X141833148Y-139997691D01*
X141831985Y-139999431D01*
X141830191Y-140000316D01*
X141829040Y-139999855D01*
X141811648Y-139985322D01*
X141742930Y-139976696D01*
X141695312Y-139999482D01*
X141693318Y-139999328D01*
X141692786Y-139998789D01*
X141692052Y-139997691D01*
X141678260Y-140006907D01*
X141676264Y-140007038D01*
X141675153Y-140005375D01*
X141675486Y-140004133D01*
X141682833Y-139993138D01*
X141686600Y-139974201D01*
X141686600Y-138474599D01*
X141682833Y-138455662D01*
X141675486Y-138444667D01*
X141675355Y-138442671D01*
X141677018Y-138441560D01*
X141678260Y-138441893D01*
G37*
G36*
X110724521Y-139457563D02*
G01*
X110725194Y-139458889D01*
X110730659Y-139519963D01*
X110773146Y-139574657D01*
X110838619Y-139597756D01*
X110850053Y-139596939D01*
X110851852Y-139597813D01*
X110851995Y-139599808D01*
X110850586Y-139600896D01*
X110827561Y-139605476D01*
X110787347Y-139632347D01*
X110760476Y-139672561D01*
X110753760Y-139706323D01*
X110752441Y-139707827D01*
X110750479Y-139707437D01*
X110749806Y-139706111D01*
X110744341Y-139645037D01*
X110701854Y-139590343D01*
X110636381Y-139567244D01*
X110624947Y-139568061D01*
X110623148Y-139567187D01*
X110623005Y-139565192D01*
X110624414Y-139564104D01*
X110647439Y-139559524D01*
X110687653Y-139532653D01*
X110714524Y-139492439D01*
X110721240Y-139458677D01*
X110722559Y-139457173D01*
X110724521Y-139457563D01*
G37*
G36*
X113680896Y-139469414D02*
G01*
X113685476Y-139492439D01*
X113712347Y-139532653D01*
X113752561Y-139559524D01*
X113786323Y-139566240D01*
X113787827Y-139567559D01*
X113787437Y-139569521D01*
X113786111Y-139570194D01*
X113725037Y-139575659D01*
X113670343Y-139618146D01*
X113647244Y-139683619D01*
X113648061Y-139695053D01*
X113647187Y-139696852D01*
X113645192Y-139696995D01*
X113644104Y-139695586D01*
X113639524Y-139672561D01*
X113612653Y-139632347D01*
X113572439Y-139605476D01*
X113538677Y-139598760D01*
X113537173Y-139597441D01*
X113537563Y-139595479D01*
X113538889Y-139594806D01*
X113599963Y-139589341D01*
X113654657Y-139546854D01*
X113677756Y-139481381D01*
X113676939Y-139469947D01*
X113677813Y-139468148D01*
X113679808Y-139468005D01*
X113680896Y-139469414D01*
G37*
G36*
X113717234Y-139035919D02*
G01*
X113752561Y-139059524D01*
X113800199Y-139069000D01*
X114499801Y-139069000D01*
X114547439Y-139059524D01*
X114582766Y-139035919D01*
X114584762Y-139035788D01*
X114585873Y-139037451D01*
X114585540Y-139038693D01*
X114577033Y-139051425D01*
X114556253Y-139117789D01*
X114577042Y-139188589D01*
X114585540Y-139201307D01*
X114585671Y-139203303D01*
X114584008Y-139204414D01*
X114582766Y-139204081D01*
X114547439Y-139180476D01*
X114499801Y-139171000D01*
X113800199Y-139171000D01*
X113752561Y-139180476D01*
X113717234Y-139204081D01*
X113715238Y-139204212D01*
X113714127Y-139202549D01*
X113714460Y-139201307D01*
X113722967Y-139188575D01*
X113743747Y-139122211D01*
X113722958Y-139051411D01*
X113714460Y-139038693D01*
X113714329Y-139036697D01*
X113715992Y-139035586D01*
X113717234Y-139035919D01*
G37*
G36*
X109817234Y-139035919D02*
G01*
X109852561Y-139059524D01*
X109900199Y-139069000D01*
X110599801Y-139069000D01*
X110647439Y-139059524D01*
X110682766Y-139035919D01*
X110684762Y-139035788D01*
X110685873Y-139037451D01*
X110685540Y-139038693D01*
X110677033Y-139051425D01*
X110656253Y-139117789D01*
X110677042Y-139188589D01*
X110685540Y-139201307D01*
X110685671Y-139203303D01*
X110684008Y-139204414D01*
X110682766Y-139204081D01*
X110647439Y-139180476D01*
X110599801Y-139171000D01*
X109900199Y-139171000D01*
X109852561Y-139180476D01*
X109817234Y-139204081D01*
X109815238Y-139204212D01*
X109814127Y-139202549D01*
X109814460Y-139201307D01*
X109822967Y-139188575D01*
X109843747Y-139122211D01*
X109822958Y-139051411D01*
X109814460Y-139038693D01*
X109814329Y-139036697D01*
X109815992Y-139035586D01*
X109817234Y-139035919D01*
G37*
G36*
X109817234Y-138535919D02*
G01*
X109852561Y-138559524D01*
X109900199Y-138569000D01*
X110599801Y-138569000D01*
X110647439Y-138559524D01*
X110682766Y-138535919D01*
X110684762Y-138535788D01*
X110685873Y-138537451D01*
X110685540Y-138538693D01*
X110677033Y-138551425D01*
X110656253Y-138617789D01*
X110677042Y-138688589D01*
X110685540Y-138701307D01*
X110685671Y-138703303D01*
X110684008Y-138704414D01*
X110682766Y-138704081D01*
X110647439Y-138680476D01*
X110599801Y-138671000D01*
X109900199Y-138671000D01*
X109852561Y-138680476D01*
X109817234Y-138704081D01*
X109815238Y-138704212D01*
X109814127Y-138702549D01*
X109814460Y-138701307D01*
X109822967Y-138688575D01*
X109843747Y-138622211D01*
X109822958Y-138551411D01*
X109814460Y-138538693D01*
X109814329Y-138536697D01*
X109815992Y-138535586D01*
X109817234Y-138535919D01*
G37*
G36*
X113717234Y-138535919D02*
G01*
X113752561Y-138559524D01*
X113800199Y-138569000D01*
X114499801Y-138569000D01*
X114547439Y-138559524D01*
X114582766Y-138535919D01*
X114584762Y-138535788D01*
X114585873Y-138537451D01*
X114585540Y-138538693D01*
X114577033Y-138551425D01*
X114556253Y-138617789D01*
X114577042Y-138688589D01*
X114585540Y-138701307D01*
X114585671Y-138703303D01*
X114584008Y-138704414D01*
X114582766Y-138704081D01*
X114547439Y-138680476D01*
X114499801Y-138671000D01*
X113800199Y-138671000D01*
X113752561Y-138680476D01*
X113717234Y-138704081D01*
X113715238Y-138704212D01*
X113714127Y-138702549D01*
X113714460Y-138701307D01*
X113722967Y-138688575D01*
X113743747Y-138622211D01*
X113722958Y-138551411D01*
X113714460Y-138538693D01*
X113714329Y-138536697D01*
X113715992Y-138535586D01*
X113717234Y-138535919D01*
G37*
G36*
X109817234Y-138035919D02*
G01*
X109852561Y-138059524D01*
X109900199Y-138069000D01*
X110599801Y-138069000D01*
X110647439Y-138059524D01*
X110682766Y-138035919D01*
X110684762Y-138035788D01*
X110685873Y-138037451D01*
X110685540Y-138038693D01*
X110677033Y-138051425D01*
X110656253Y-138117789D01*
X110677042Y-138188589D01*
X110685540Y-138201307D01*
X110685671Y-138203303D01*
X110684008Y-138204414D01*
X110682766Y-138204081D01*
X110647439Y-138180476D01*
X110599801Y-138171000D01*
X109900199Y-138171000D01*
X109852561Y-138180476D01*
X109817234Y-138204081D01*
X109815238Y-138204212D01*
X109814127Y-138202549D01*
X109814460Y-138201307D01*
X109822967Y-138188575D01*
X109843747Y-138122211D01*
X109822958Y-138051411D01*
X109814460Y-138038693D01*
X109814329Y-138036697D01*
X109815992Y-138035586D01*
X109817234Y-138035919D01*
G37*
G36*
X113717234Y-138035919D02*
G01*
X113752561Y-138059524D01*
X113800199Y-138069000D01*
X114499801Y-138069000D01*
X114547439Y-138059524D01*
X114582766Y-138035919D01*
X114584762Y-138035788D01*
X114585873Y-138037451D01*
X114585540Y-138038693D01*
X114577033Y-138051425D01*
X114556253Y-138117789D01*
X114577042Y-138188589D01*
X114585540Y-138201307D01*
X114585671Y-138203303D01*
X114584008Y-138204414D01*
X114582766Y-138204081D01*
X114547439Y-138180476D01*
X114499801Y-138171000D01*
X113800199Y-138171000D01*
X113752561Y-138180476D01*
X113717234Y-138204081D01*
X113715238Y-138204212D01*
X113714127Y-138202549D01*
X113714460Y-138201307D01*
X113722967Y-138188575D01*
X113743747Y-138122211D01*
X113722958Y-138051411D01*
X113714460Y-138038693D01*
X113714329Y-138036697D01*
X113715992Y-138035586D01*
X113717234Y-138035919D01*
G37*
G36*
X109817234Y-137535919D02*
G01*
X109852561Y-137559524D01*
X109900199Y-137569000D01*
X110599801Y-137569000D01*
X110647439Y-137559524D01*
X110682766Y-137535919D01*
X110684762Y-137535788D01*
X110685873Y-137537451D01*
X110685540Y-137538693D01*
X110677033Y-137551425D01*
X110656253Y-137617789D01*
X110677042Y-137688589D01*
X110685540Y-137701307D01*
X110685671Y-137703303D01*
X110684008Y-137704414D01*
X110682766Y-137704081D01*
X110647439Y-137680476D01*
X110599801Y-137671000D01*
X109900199Y-137671000D01*
X109852561Y-137680476D01*
X109817234Y-137704081D01*
X109815238Y-137704212D01*
X109814127Y-137702549D01*
X109814460Y-137701307D01*
X109822967Y-137688575D01*
X109843747Y-137622211D01*
X109822958Y-137551411D01*
X109814460Y-137538693D01*
X109814329Y-137536697D01*
X109815992Y-137535586D01*
X109817234Y-137535919D01*
G37*
G36*
X113717234Y-137535919D02*
G01*
X113752561Y-137559524D01*
X113800199Y-137569000D01*
X114499801Y-137569000D01*
X114547439Y-137559524D01*
X114582766Y-137535919D01*
X114584762Y-137535788D01*
X114585873Y-137537451D01*
X114585540Y-137538693D01*
X114577033Y-137551425D01*
X114556253Y-137617789D01*
X114577042Y-137688589D01*
X114585540Y-137701307D01*
X114585671Y-137703303D01*
X114584008Y-137704414D01*
X114582766Y-137704081D01*
X114547439Y-137680476D01*
X114499801Y-137671000D01*
X113800199Y-137671000D01*
X113752561Y-137680476D01*
X113717234Y-137704081D01*
X113715238Y-137704212D01*
X113714127Y-137702549D01*
X113714460Y-137701307D01*
X113722967Y-137688575D01*
X113743747Y-137622211D01*
X113722958Y-137551411D01*
X113714460Y-137538693D01*
X113714329Y-137536697D01*
X113715992Y-137535586D01*
X113717234Y-137535919D01*
G37*
G36*
X113717234Y-137035919D02*
G01*
X113752561Y-137059524D01*
X113800199Y-137069000D01*
X114499801Y-137069000D01*
X114547439Y-137059524D01*
X114582766Y-137035919D01*
X114584762Y-137035788D01*
X114585873Y-137037451D01*
X114585540Y-137038693D01*
X114577033Y-137051425D01*
X114556253Y-137117789D01*
X114577042Y-137188589D01*
X114585540Y-137201307D01*
X114585671Y-137203303D01*
X114584008Y-137204414D01*
X114582766Y-137204081D01*
X114547439Y-137180476D01*
X114499801Y-137171000D01*
X113800199Y-137171000D01*
X113752561Y-137180476D01*
X113717234Y-137204081D01*
X113715238Y-137204212D01*
X113714127Y-137202549D01*
X113714460Y-137201307D01*
X113722967Y-137188575D01*
X113743747Y-137122211D01*
X113722958Y-137051411D01*
X113714460Y-137038693D01*
X113714329Y-137036697D01*
X113715992Y-137035586D01*
X113717234Y-137035919D01*
G37*
G36*
X109817234Y-137035919D02*
G01*
X109852561Y-137059524D01*
X109900199Y-137069000D01*
X110599801Y-137069000D01*
X110647439Y-137059524D01*
X110682766Y-137035919D01*
X110684762Y-137035788D01*
X110685873Y-137037451D01*
X110685540Y-137038693D01*
X110677033Y-137051425D01*
X110656253Y-137117789D01*
X110677042Y-137188589D01*
X110685540Y-137201307D01*
X110685671Y-137203303D01*
X110684008Y-137204414D01*
X110682766Y-137204081D01*
X110647439Y-137180476D01*
X110599801Y-137171000D01*
X109900199Y-137171000D01*
X109852561Y-137180476D01*
X109817234Y-137204081D01*
X109815238Y-137204212D01*
X109814127Y-137202549D01*
X109814460Y-137201307D01*
X109822967Y-137188575D01*
X109843747Y-137122211D01*
X109822958Y-137051411D01*
X109814460Y-137038693D01*
X109814329Y-137036697D01*
X109815992Y-137035586D01*
X109817234Y-137035919D01*
G37*
G36*
X113649521Y-136532563D02*
G01*
X113650194Y-136533889D01*
X113655659Y-136594963D01*
X113698146Y-136649657D01*
X113763619Y-136672756D01*
X113775053Y-136671939D01*
X113776852Y-136672813D01*
X113776995Y-136674808D01*
X113775586Y-136675896D01*
X113752561Y-136680476D01*
X113712347Y-136707347D01*
X113685476Y-136747561D01*
X113678760Y-136781323D01*
X113677441Y-136782827D01*
X113675479Y-136782437D01*
X113674806Y-136781111D01*
X113669341Y-136720037D01*
X113626854Y-136665343D01*
X113561381Y-136642244D01*
X113549947Y-136643061D01*
X113548148Y-136642187D01*
X113548005Y-136640192D01*
X113549414Y-136639104D01*
X113572439Y-136634524D01*
X113612653Y-136607653D01*
X113639524Y-136567439D01*
X113646240Y-136533677D01*
X113647559Y-136532173D01*
X113649521Y-136532563D01*
G37*
G36*
X110755896Y-136544414D02*
G01*
X110760476Y-136567439D01*
X110787347Y-136607653D01*
X110827561Y-136634524D01*
X110861323Y-136641240D01*
X110862827Y-136642559D01*
X110862437Y-136644521D01*
X110861111Y-136645194D01*
X110800037Y-136650659D01*
X110745343Y-136693146D01*
X110722244Y-136758619D01*
X110723061Y-136770053D01*
X110722187Y-136771852D01*
X110720192Y-136771995D01*
X110719104Y-136770586D01*
X110714524Y-136747561D01*
X110687653Y-136707347D01*
X110647439Y-136680476D01*
X110613677Y-136673760D01*
X110612173Y-136672441D01*
X110612563Y-136670479D01*
X110613889Y-136669806D01*
X110674963Y-136664341D01*
X110729657Y-136621854D01*
X110752756Y-136556381D01*
X110751939Y-136544947D01*
X110752813Y-136543148D01*
X110754808Y-136543005D01*
X110755896Y-136544414D01*
G37*
G36*
X112618693Y-135734460D02*
G01*
X112631425Y-135742967D01*
X112697789Y-135763747D01*
X112768589Y-135742958D01*
X112781307Y-135734460D01*
X112783303Y-135734329D01*
X112784414Y-135735992D01*
X112784081Y-135737234D01*
X112760476Y-135772561D01*
X112751000Y-135820199D01*
X112751000Y-136519801D01*
X112760476Y-136567439D01*
X112784081Y-136602766D01*
X112784212Y-136604762D01*
X112782549Y-136605873D01*
X112781307Y-136605540D01*
X112768575Y-136597033D01*
X112702211Y-136576253D01*
X112631411Y-136597042D01*
X112618693Y-136605540D01*
X112616697Y-136605671D01*
X112615586Y-136604008D01*
X112615919Y-136602766D01*
X112639524Y-136567439D01*
X112649000Y-136519801D01*
X112649000Y-135820199D01*
X112639524Y-135772561D01*
X112615919Y-135737234D01*
X112615788Y-135735238D01*
X112617451Y-135734127D01*
X112618693Y-135734460D01*
G37*
G36*
X111618693Y-135734460D02*
G01*
X111631425Y-135742967D01*
X111697789Y-135763747D01*
X111768589Y-135742958D01*
X111781307Y-135734460D01*
X111783303Y-135734329D01*
X111784414Y-135735992D01*
X111784081Y-135737234D01*
X111760476Y-135772561D01*
X111751000Y-135820199D01*
X111751000Y-136519801D01*
X111760476Y-136567439D01*
X111784081Y-136602766D01*
X111784212Y-136604762D01*
X111782549Y-136605873D01*
X111781307Y-136605540D01*
X111768575Y-136597033D01*
X111702211Y-136576253D01*
X111631411Y-136597042D01*
X111618693Y-136605540D01*
X111616697Y-136605671D01*
X111615586Y-136604008D01*
X111615919Y-136602766D01*
X111639524Y-136567439D01*
X111649000Y-136519801D01*
X111649000Y-135820199D01*
X111639524Y-135772561D01*
X111615919Y-135737234D01*
X111615788Y-135735238D01*
X111617451Y-135734127D01*
X111618693Y-135734460D01*
G37*
G36*
X112118693Y-135734460D02*
G01*
X112131425Y-135742967D01*
X112197789Y-135763747D01*
X112268589Y-135742958D01*
X112281307Y-135734460D01*
X112283303Y-135734329D01*
X112284414Y-135735992D01*
X112284081Y-135737234D01*
X112260476Y-135772561D01*
X112251000Y-135820199D01*
X112251000Y-136519801D01*
X112260476Y-136567439D01*
X112284081Y-136602766D01*
X112284212Y-136604762D01*
X112282549Y-136605873D01*
X112281307Y-136605540D01*
X112268575Y-136597033D01*
X112202211Y-136576253D01*
X112131411Y-136597042D01*
X112118693Y-136605540D01*
X112116697Y-136605671D01*
X112115586Y-136604008D01*
X112115919Y-136602766D01*
X112139524Y-136567439D01*
X112149000Y-136519801D01*
X112149000Y-135820199D01*
X112139524Y-135772561D01*
X112115919Y-135737234D01*
X112115788Y-135735238D01*
X112117451Y-135734127D01*
X112118693Y-135734460D01*
G37*
G36*
X111118693Y-135734460D02*
G01*
X111131425Y-135742967D01*
X111197789Y-135763747D01*
X111268589Y-135742958D01*
X111281307Y-135734460D01*
X111283303Y-135734329D01*
X111284414Y-135735992D01*
X111284081Y-135737234D01*
X111260476Y-135772561D01*
X111251000Y-135820199D01*
X111251000Y-136519801D01*
X111260476Y-136567439D01*
X111284081Y-136602766D01*
X111284212Y-136604762D01*
X111282549Y-136605873D01*
X111281307Y-136605540D01*
X111268575Y-136597033D01*
X111202211Y-136576253D01*
X111131411Y-136597042D01*
X111118693Y-136605540D01*
X111116697Y-136605671D01*
X111115586Y-136604008D01*
X111115919Y-136602766D01*
X111139524Y-136567439D01*
X111149000Y-136519801D01*
X111149000Y-135820199D01*
X111139524Y-135772561D01*
X111115919Y-135737234D01*
X111115788Y-135735238D01*
X111117451Y-135734127D01*
X111118693Y-135734460D01*
G37*
G36*
X113118693Y-135734460D02*
G01*
X113131425Y-135742967D01*
X113197789Y-135763747D01*
X113268589Y-135742958D01*
X113281307Y-135734460D01*
X113283303Y-135734329D01*
X113284414Y-135735992D01*
X113284081Y-135737234D01*
X113260476Y-135772561D01*
X113251000Y-135820199D01*
X113251000Y-136519801D01*
X113260476Y-136567439D01*
X113284081Y-136602766D01*
X113284212Y-136604762D01*
X113282549Y-136605873D01*
X113281307Y-136605540D01*
X113268575Y-136597033D01*
X113202211Y-136576253D01*
X113131411Y-136597042D01*
X113118693Y-136605540D01*
X113116697Y-136605671D01*
X113115586Y-136604008D01*
X113115919Y-136602766D01*
X113139524Y-136567439D01*
X113149000Y-136519801D01*
X113149000Y-135820199D01*
X113139524Y-135772561D01*
X113115919Y-135737234D01*
X113115788Y-135735238D01*
X113117451Y-135734127D01*
X113118693Y-135734460D01*
G37*
G36*
X108524693Y-119661860D02*
G01*
X108537425Y-119670367D01*
X108603789Y-119691147D01*
X108674589Y-119670358D01*
X108687307Y-119661860D01*
X108689303Y-119661729D01*
X108690414Y-119663392D01*
X108690081Y-119664634D01*
X108666476Y-119699961D01*
X108657000Y-119747599D01*
X108657000Y-121147201D01*
X108666476Y-121194839D01*
X108690081Y-121230166D01*
X108690212Y-121232162D01*
X108688549Y-121233273D01*
X108687307Y-121232940D01*
X108674575Y-121224433D01*
X108608211Y-121203653D01*
X108537411Y-121224442D01*
X108524693Y-121232940D01*
X108522697Y-121233071D01*
X108521586Y-121231408D01*
X108521919Y-121230166D01*
X108545524Y-121194839D01*
X108555000Y-121147201D01*
X108555000Y-119747599D01*
X108545524Y-119699961D01*
X108521919Y-119664634D01*
X108521788Y-119662638D01*
X108523451Y-119661527D01*
X108524693Y-119661860D01*
G37*
G36*
X105524693Y-119661860D02*
G01*
X105537425Y-119670367D01*
X105603789Y-119691147D01*
X105674589Y-119670358D01*
X105687307Y-119661860D01*
X105689303Y-119661729D01*
X105690414Y-119663392D01*
X105690081Y-119664634D01*
X105666476Y-119699961D01*
X105657000Y-119747599D01*
X105657000Y-121147201D01*
X105666476Y-121194839D01*
X105690081Y-121230166D01*
X105690212Y-121232162D01*
X105688549Y-121233273D01*
X105687307Y-121232940D01*
X105674575Y-121224433D01*
X105608211Y-121203653D01*
X105537411Y-121224442D01*
X105524693Y-121232940D01*
X105522697Y-121233071D01*
X105521586Y-121231408D01*
X105521919Y-121230166D01*
X105545524Y-121194839D01*
X105555000Y-121147201D01*
X105555000Y-119747599D01*
X105545524Y-119699961D01*
X105521919Y-119664634D01*
X105521788Y-119662638D01*
X105523451Y-119661527D01*
X105524693Y-119661860D01*
G37*
G36*
X107024693Y-119661860D02*
G01*
X107037425Y-119670367D01*
X107103789Y-119691147D01*
X107174589Y-119670358D01*
X107187307Y-119661860D01*
X107189303Y-119661729D01*
X107190414Y-119663392D01*
X107190081Y-119664634D01*
X107166476Y-119699961D01*
X107157000Y-119747599D01*
X107157000Y-121147201D01*
X107166476Y-121194839D01*
X107190081Y-121230166D01*
X107190212Y-121232162D01*
X107188549Y-121233273D01*
X107187307Y-121232940D01*
X107174575Y-121224433D01*
X107108211Y-121203653D01*
X107037411Y-121224442D01*
X107024693Y-121232940D01*
X107022697Y-121233071D01*
X107021586Y-121231408D01*
X107021919Y-121230166D01*
X107045524Y-121194839D01*
X107055000Y-121147201D01*
X107055000Y-119747599D01*
X107045524Y-119699961D01*
X107021919Y-119664634D01*
X107021788Y-119662638D01*
X107023451Y-119661527D01*
X107024693Y-119661860D01*
G37*
G36*
X111524693Y-119661860D02*
G01*
X111537425Y-119670367D01*
X111603789Y-119691147D01*
X111674589Y-119670358D01*
X111687307Y-119661860D01*
X111689303Y-119661729D01*
X111690414Y-119663392D01*
X111690081Y-119664634D01*
X111666476Y-119699961D01*
X111657000Y-119747599D01*
X111657000Y-121147201D01*
X111666476Y-121194839D01*
X111690081Y-121230166D01*
X111690212Y-121232162D01*
X111688549Y-121233273D01*
X111687307Y-121232940D01*
X111674575Y-121224433D01*
X111608211Y-121203653D01*
X111537411Y-121224442D01*
X111524693Y-121232940D01*
X111522697Y-121233071D01*
X111521586Y-121231408D01*
X111521919Y-121230166D01*
X111545524Y-121194839D01*
X111555000Y-121147201D01*
X111555000Y-119747599D01*
X111545524Y-119699961D01*
X111521919Y-119664634D01*
X111521788Y-119662638D01*
X111523451Y-119661527D01*
X111524693Y-119661860D01*
G37*
G36*
X106024693Y-119661860D02*
G01*
X106037425Y-119670367D01*
X106103789Y-119691147D01*
X106174589Y-119670358D01*
X106187307Y-119661860D01*
X106189303Y-119661729D01*
X106190414Y-119663392D01*
X106190081Y-119664634D01*
X106166476Y-119699961D01*
X106157000Y-119747599D01*
X106157000Y-121147201D01*
X106166476Y-121194839D01*
X106190081Y-121230166D01*
X106190212Y-121232162D01*
X106188549Y-121233273D01*
X106187307Y-121232940D01*
X106174575Y-121224433D01*
X106108211Y-121203653D01*
X106037411Y-121224442D01*
X106024693Y-121232940D01*
X106022697Y-121233071D01*
X106021586Y-121231408D01*
X106021919Y-121230166D01*
X106045524Y-121194839D01*
X106055000Y-121147201D01*
X106055000Y-119747599D01*
X106045524Y-119699961D01*
X106021919Y-119664634D01*
X106021788Y-119662638D01*
X106023451Y-119661527D01*
X106024693Y-119661860D01*
G37*
G36*
X110524693Y-119661860D02*
G01*
X110537425Y-119670367D01*
X110603789Y-119691147D01*
X110674589Y-119670358D01*
X110687307Y-119661860D01*
X110689303Y-119661729D01*
X110690414Y-119663392D01*
X110690081Y-119664634D01*
X110666476Y-119699961D01*
X110657000Y-119747599D01*
X110657000Y-121147201D01*
X110666476Y-121194839D01*
X110690081Y-121230166D01*
X110690212Y-121232162D01*
X110688549Y-121233273D01*
X110687307Y-121232940D01*
X110674575Y-121224433D01*
X110608211Y-121203653D01*
X110537411Y-121224442D01*
X110524693Y-121232940D01*
X110522697Y-121233071D01*
X110521586Y-121231408D01*
X110521919Y-121230166D01*
X110545524Y-121194839D01*
X110555000Y-121147201D01*
X110555000Y-119747599D01*
X110545524Y-119699961D01*
X110521919Y-119664634D01*
X110521788Y-119662638D01*
X110523451Y-119661527D01*
X110524693Y-119661860D01*
G37*
G36*
X107524693Y-119661860D02*
G01*
X107537425Y-119670367D01*
X107603789Y-119691147D01*
X107674589Y-119670358D01*
X107687307Y-119661860D01*
X107689303Y-119661729D01*
X107690414Y-119663392D01*
X107690081Y-119664634D01*
X107666476Y-119699961D01*
X107657000Y-119747599D01*
X107657000Y-121147201D01*
X107666476Y-121194839D01*
X107690081Y-121230166D01*
X107690212Y-121232162D01*
X107688549Y-121233273D01*
X107687307Y-121232940D01*
X107674575Y-121224433D01*
X107608211Y-121203653D01*
X107537411Y-121224442D01*
X107524693Y-121232940D01*
X107522697Y-121233071D01*
X107521586Y-121231408D01*
X107521919Y-121230166D01*
X107545524Y-121194839D01*
X107555000Y-121147201D01*
X107555000Y-119747599D01*
X107545524Y-119699961D01*
X107521919Y-119664634D01*
X107521788Y-119662638D01*
X107523451Y-119661527D01*
X107524693Y-119661860D01*
G37*
G36*
X104524693Y-119661860D02*
G01*
X104537425Y-119670367D01*
X104603789Y-119691147D01*
X104674589Y-119670358D01*
X104687307Y-119661860D01*
X104689303Y-119661729D01*
X104690414Y-119663392D01*
X104690081Y-119664634D01*
X104666476Y-119699961D01*
X104657000Y-119747599D01*
X104657000Y-121147201D01*
X104666476Y-121194839D01*
X104690081Y-121230166D01*
X104690212Y-121232162D01*
X104688549Y-121233273D01*
X104687307Y-121232940D01*
X104674575Y-121224433D01*
X104608211Y-121203653D01*
X104537411Y-121224442D01*
X104524693Y-121232940D01*
X104522697Y-121233071D01*
X104521586Y-121231408D01*
X104521919Y-121230166D01*
X104545524Y-121194839D01*
X104555000Y-121147201D01*
X104555000Y-119747599D01*
X104545524Y-119699961D01*
X104521919Y-119664634D01*
X104521788Y-119662638D01*
X104523451Y-119661527D01*
X104524693Y-119661860D01*
G37*
G36*
X109024693Y-119661860D02*
G01*
X109037425Y-119670367D01*
X109103789Y-119691147D01*
X109174589Y-119670358D01*
X109187307Y-119661860D01*
X109189303Y-119661729D01*
X109190414Y-119663392D01*
X109190081Y-119664634D01*
X109166476Y-119699961D01*
X109157000Y-119747599D01*
X109157000Y-121147201D01*
X109166476Y-121194839D01*
X109190081Y-121230166D01*
X109190212Y-121232162D01*
X109188549Y-121233273D01*
X109187307Y-121232940D01*
X109174575Y-121224433D01*
X109108211Y-121203653D01*
X109037411Y-121224442D01*
X109024693Y-121232940D01*
X109022697Y-121233071D01*
X109021586Y-121231408D01*
X109021919Y-121230166D01*
X109045524Y-121194839D01*
X109055000Y-121147201D01*
X109055000Y-119747599D01*
X109045524Y-119699961D01*
X109021919Y-119664634D01*
X109021788Y-119662638D01*
X109023451Y-119661527D01*
X109024693Y-119661860D01*
G37*
G36*
X110024693Y-119661860D02*
G01*
X110037425Y-119670367D01*
X110103789Y-119691147D01*
X110174589Y-119670358D01*
X110187307Y-119661860D01*
X110189303Y-119661729D01*
X110190414Y-119663392D01*
X110190081Y-119664634D01*
X110166476Y-119699961D01*
X110157000Y-119747599D01*
X110157000Y-121147201D01*
X110166476Y-121194839D01*
X110190081Y-121230166D01*
X110190212Y-121232162D01*
X110188549Y-121233273D01*
X110187307Y-121232940D01*
X110174575Y-121224433D01*
X110108211Y-121203653D01*
X110037411Y-121224442D01*
X110024693Y-121232940D01*
X110022697Y-121233071D01*
X110021586Y-121231408D01*
X110021919Y-121230166D01*
X110045524Y-121194839D01*
X110055000Y-121147201D01*
X110055000Y-119747599D01*
X110045524Y-119699961D01*
X110021919Y-119664634D01*
X110021788Y-119662638D01*
X110023451Y-119661527D01*
X110024693Y-119661860D01*
G37*
G36*
X105024693Y-119661860D02*
G01*
X105037425Y-119670367D01*
X105103789Y-119691147D01*
X105174589Y-119670358D01*
X105187307Y-119661860D01*
X105189303Y-119661729D01*
X105190414Y-119663392D01*
X105190081Y-119664634D01*
X105166476Y-119699961D01*
X105157000Y-119747599D01*
X105157000Y-121147201D01*
X105166476Y-121194839D01*
X105190081Y-121230166D01*
X105190212Y-121232162D01*
X105188549Y-121233273D01*
X105187307Y-121232940D01*
X105174575Y-121224433D01*
X105108211Y-121203653D01*
X105037411Y-121224442D01*
X105024693Y-121232940D01*
X105022697Y-121233071D01*
X105021586Y-121231408D01*
X105021919Y-121230166D01*
X105045524Y-121194839D01*
X105055000Y-121147201D01*
X105055000Y-119747599D01*
X105045524Y-119699961D01*
X105021919Y-119664634D01*
X105021788Y-119662638D01*
X105023451Y-119661527D01*
X105024693Y-119661860D01*
G37*
G36*
X108024693Y-119661860D02*
G01*
X108037425Y-119670367D01*
X108103789Y-119691147D01*
X108174589Y-119670358D01*
X108187307Y-119661860D01*
X108189303Y-119661729D01*
X108190414Y-119663392D01*
X108190081Y-119664634D01*
X108166476Y-119699961D01*
X108157000Y-119747599D01*
X108157000Y-121147201D01*
X108166476Y-121194839D01*
X108190081Y-121230166D01*
X108190212Y-121232162D01*
X108188549Y-121233273D01*
X108187307Y-121232940D01*
X108174575Y-121224433D01*
X108108211Y-121203653D01*
X108037411Y-121224442D01*
X108024693Y-121232940D01*
X108022697Y-121233071D01*
X108021586Y-121231408D01*
X108021919Y-121230166D01*
X108045524Y-121194839D01*
X108055000Y-121147201D01*
X108055000Y-119747599D01*
X108045524Y-119699961D01*
X108021919Y-119664634D01*
X108021788Y-119662638D01*
X108023451Y-119661527D01*
X108024693Y-119661860D01*
G37*
G36*
X111024693Y-119661860D02*
G01*
X111037425Y-119670367D01*
X111103789Y-119691147D01*
X111174589Y-119670358D01*
X111187307Y-119661860D01*
X111189303Y-119661729D01*
X111190414Y-119663392D01*
X111190081Y-119664634D01*
X111166476Y-119699961D01*
X111157000Y-119747599D01*
X111157000Y-121147201D01*
X111166476Y-121194839D01*
X111190081Y-121230166D01*
X111190212Y-121232162D01*
X111188549Y-121233273D01*
X111187307Y-121232940D01*
X111174575Y-121224433D01*
X111108211Y-121203653D01*
X111037411Y-121224442D01*
X111024693Y-121232940D01*
X111022697Y-121233071D01*
X111021586Y-121231408D01*
X111021919Y-121230166D01*
X111045524Y-121194839D01*
X111055000Y-121147201D01*
X111055000Y-119747599D01*
X111045524Y-119699961D01*
X111021919Y-119664634D01*
X111021788Y-119662638D01*
X111023451Y-119661527D01*
X111024693Y-119661860D01*
G37*
G36*
X106524693Y-119661860D02*
G01*
X106537425Y-119670367D01*
X106603789Y-119691147D01*
X106674589Y-119670358D01*
X106687307Y-119661860D01*
X106689303Y-119661729D01*
X106690414Y-119663392D01*
X106690081Y-119664634D01*
X106666476Y-119699961D01*
X106657000Y-119747599D01*
X106657000Y-121147201D01*
X106666476Y-121194839D01*
X106690081Y-121230166D01*
X106690212Y-121232162D01*
X106688549Y-121233273D01*
X106687307Y-121232940D01*
X106674575Y-121224433D01*
X106608211Y-121203653D01*
X106537411Y-121224442D01*
X106524693Y-121232940D01*
X106522697Y-121233071D01*
X106521586Y-121231408D01*
X106521919Y-121230166D01*
X106545524Y-121194839D01*
X106555000Y-121147201D01*
X106555000Y-119747599D01*
X106545524Y-119699961D01*
X106521919Y-119664634D01*
X106521788Y-119662638D01*
X106523451Y-119661527D01*
X106524693Y-119661860D01*
G37*
G36*
X109524693Y-119661860D02*
G01*
X109537425Y-119670367D01*
X109603789Y-119691147D01*
X109674589Y-119670358D01*
X109687307Y-119661860D01*
X109689303Y-119661729D01*
X109690414Y-119663392D01*
X109690081Y-119664634D01*
X109666476Y-119699961D01*
X109657000Y-119747599D01*
X109657000Y-121147201D01*
X109666476Y-121194839D01*
X109690081Y-121230166D01*
X109690212Y-121232162D01*
X109688549Y-121233273D01*
X109687307Y-121232940D01*
X109674575Y-121224433D01*
X109608211Y-121203653D01*
X109537411Y-121224442D01*
X109524693Y-121232940D01*
X109522697Y-121233071D01*
X109521586Y-121231408D01*
X109521919Y-121230166D01*
X109545524Y-121194839D01*
X109555000Y-121147201D01*
X109555000Y-119747599D01*
X109545524Y-119699961D01*
X109521919Y-119664634D01*
X109521788Y-119662638D01*
X109523451Y-119661527D01*
X109524693Y-119661860D01*
G37*
G36*
X112998234Y-118188319D02*
G01*
X113033561Y-118211924D01*
X113081199Y-118221400D01*
X114480801Y-118221400D01*
X114528439Y-118211924D01*
X114563766Y-118188319D01*
X114565762Y-118188188D01*
X114566873Y-118189851D01*
X114566540Y-118191093D01*
X114558033Y-118203825D01*
X114537253Y-118270189D01*
X114558042Y-118340989D01*
X114566540Y-118353707D01*
X114566671Y-118355703D01*
X114565008Y-118356814D01*
X114563766Y-118356481D01*
X114528439Y-118332876D01*
X114480801Y-118323400D01*
X113081199Y-118323400D01*
X113033561Y-118332876D01*
X112998234Y-118356481D01*
X112996238Y-118356612D01*
X112995127Y-118354949D01*
X112995460Y-118353707D01*
X113003967Y-118340975D01*
X113024747Y-118274611D01*
X113003958Y-118203811D01*
X112995460Y-118191093D01*
X112995329Y-118189097D01*
X112996992Y-118187986D01*
X112998234Y-118188319D01*
G37*
G36*
X101648234Y-118188319D02*
G01*
X101683561Y-118211924D01*
X101731199Y-118221400D01*
X103130801Y-118221400D01*
X103178439Y-118211924D01*
X103213766Y-118188319D01*
X103215762Y-118188188D01*
X103216873Y-118189851D01*
X103216540Y-118191093D01*
X103208033Y-118203825D01*
X103187253Y-118270189D01*
X103208042Y-118340989D01*
X103216540Y-118353707D01*
X103216671Y-118355703D01*
X103215008Y-118356814D01*
X103213766Y-118356481D01*
X103178439Y-118332876D01*
X103130801Y-118323400D01*
X101731199Y-118323400D01*
X101683561Y-118332876D01*
X101648234Y-118356481D01*
X101646238Y-118356612D01*
X101645127Y-118354949D01*
X101645460Y-118353707D01*
X101653967Y-118340975D01*
X101674747Y-118274611D01*
X101653958Y-118203811D01*
X101645460Y-118191093D01*
X101645329Y-118189097D01*
X101646992Y-118187986D01*
X101648234Y-118188319D01*
G37*
G36*
X112998234Y-117688319D02*
G01*
X113033561Y-117711924D01*
X113081199Y-117721400D01*
X114480801Y-117721400D01*
X114528439Y-117711924D01*
X114563766Y-117688319D01*
X114565762Y-117688188D01*
X114566873Y-117689851D01*
X114566540Y-117691093D01*
X114558033Y-117703825D01*
X114537253Y-117770189D01*
X114558042Y-117840989D01*
X114566540Y-117853707D01*
X114566671Y-117855703D01*
X114565008Y-117856814D01*
X114563766Y-117856481D01*
X114528439Y-117832876D01*
X114480801Y-117823400D01*
X113081199Y-117823400D01*
X113033561Y-117832876D01*
X112998234Y-117856481D01*
X112996238Y-117856612D01*
X112995127Y-117854949D01*
X112995460Y-117853707D01*
X113003967Y-117840975D01*
X113024747Y-117774611D01*
X113003958Y-117703811D01*
X112995460Y-117691093D01*
X112995329Y-117689097D01*
X112996992Y-117687986D01*
X112998234Y-117688319D01*
G37*
G36*
X101648234Y-117688319D02*
G01*
X101683561Y-117711924D01*
X101731199Y-117721400D01*
X103130801Y-117721400D01*
X103178439Y-117711924D01*
X103213766Y-117688319D01*
X103215762Y-117688188D01*
X103216873Y-117689851D01*
X103216540Y-117691093D01*
X103208033Y-117703825D01*
X103187253Y-117770189D01*
X103208042Y-117840989D01*
X103216540Y-117853707D01*
X103216671Y-117855703D01*
X103215008Y-117856814D01*
X103213766Y-117856481D01*
X103178439Y-117832876D01*
X103130801Y-117823400D01*
X101731199Y-117823400D01*
X101683561Y-117832876D01*
X101648234Y-117856481D01*
X101646238Y-117856612D01*
X101645127Y-117854949D01*
X101645460Y-117853707D01*
X101653967Y-117840975D01*
X101674747Y-117774611D01*
X101653958Y-117703811D01*
X101645460Y-117691093D01*
X101645329Y-117689097D01*
X101646992Y-117687986D01*
X101648234Y-117688319D01*
G37*
G36*
X101648234Y-117188319D02*
G01*
X101683561Y-117211924D01*
X101731199Y-117221400D01*
X103130801Y-117221400D01*
X103178439Y-117211924D01*
X103213766Y-117188319D01*
X103215762Y-117188188D01*
X103216873Y-117189851D01*
X103216540Y-117191093D01*
X103208033Y-117203825D01*
X103187253Y-117270189D01*
X103208042Y-117340989D01*
X103216540Y-117353707D01*
X103216671Y-117355703D01*
X103215008Y-117356814D01*
X103213766Y-117356481D01*
X103178439Y-117332876D01*
X103130801Y-117323400D01*
X101731199Y-117323400D01*
X101683561Y-117332876D01*
X101648234Y-117356481D01*
X101646238Y-117356612D01*
X101645127Y-117354949D01*
X101645460Y-117353707D01*
X101653967Y-117340975D01*
X101674747Y-117274611D01*
X101653958Y-117203811D01*
X101645460Y-117191093D01*
X101645329Y-117189097D01*
X101646992Y-117187986D01*
X101648234Y-117188319D01*
G37*
G36*
X112998234Y-117188319D02*
G01*
X113033561Y-117211924D01*
X113081199Y-117221400D01*
X114480801Y-117221400D01*
X114528439Y-117211924D01*
X114563766Y-117188319D01*
X114565762Y-117188188D01*
X114566873Y-117189851D01*
X114566540Y-117191093D01*
X114558033Y-117203825D01*
X114537253Y-117270189D01*
X114558042Y-117340989D01*
X114566540Y-117353707D01*
X114566671Y-117355703D01*
X114565008Y-117356814D01*
X114563766Y-117356481D01*
X114528439Y-117332876D01*
X114480801Y-117323400D01*
X113081199Y-117323400D01*
X113033561Y-117332876D01*
X112998234Y-117356481D01*
X112996238Y-117356612D01*
X112995127Y-117354949D01*
X112995460Y-117353707D01*
X113003967Y-117340975D01*
X113024747Y-117274611D01*
X113003958Y-117203811D01*
X112995460Y-117191093D01*
X112995329Y-117189097D01*
X112996992Y-117187986D01*
X112998234Y-117188319D01*
G37*
G36*
X112998234Y-116688319D02*
G01*
X113033561Y-116711924D01*
X113081199Y-116721400D01*
X114480801Y-116721400D01*
X114528439Y-116711924D01*
X114563766Y-116688319D01*
X114565762Y-116688188D01*
X114566873Y-116689851D01*
X114566540Y-116691093D01*
X114558033Y-116703825D01*
X114537253Y-116770189D01*
X114558042Y-116840989D01*
X114566540Y-116853707D01*
X114566671Y-116855703D01*
X114565008Y-116856814D01*
X114563766Y-116856481D01*
X114528439Y-116832876D01*
X114480801Y-116823400D01*
X113081199Y-116823400D01*
X113033561Y-116832876D01*
X112998234Y-116856481D01*
X112996238Y-116856612D01*
X112995127Y-116854949D01*
X112995460Y-116853707D01*
X113003967Y-116840975D01*
X113024747Y-116774611D01*
X113003958Y-116703811D01*
X112995460Y-116691093D01*
X112995329Y-116689097D01*
X112996992Y-116687986D01*
X112998234Y-116688319D01*
G37*
G36*
X101648234Y-116688319D02*
G01*
X101683561Y-116711924D01*
X101731199Y-116721400D01*
X103130801Y-116721400D01*
X103178439Y-116711924D01*
X103213766Y-116688319D01*
X103215762Y-116688188D01*
X103216873Y-116689851D01*
X103216540Y-116691093D01*
X103208033Y-116703825D01*
X103187253Y-116770189D01*
X103208042Y-116840989D01*
X103216540Y-116853707D01*
X103216671Y-116855703D01*
X103215008Y-116856814D01*
X103213766Y-116856481D01*
X103178439Y-116832876D01*
X103130801Y-116823400D01*
X101731199Y-116823400D01*
X101683561Y-116832876D01*
X101648234Y-116856481D01*
X101646238Y-116856612D01*
X101645127Y-116854949D01*
X101645460Y-116853707D01*
X101653967Y-116840975D01*
X101674747Y-116774611D01*
X101653958Y-116703811D01*
X101645460Y-116691093D01*
X101645329Y-116689097D01*
X101646992Y-116687986D01*
X101648234Y-116688319D01*
G37*
G36*
X112998234Y-116188319D02*
G01*
X113033561Y-116211924D01*
X113081199Y-116221400D01*
X114480801Y-116221400D01*
X114528439Y-116211924D01*
X114563766Y-116188319D01*
X114565762Y-116188188D01*
X114566873Y-116189851D01*
X114566540Y-116191093D01*
X114558033Y-116203825D01*
X114537253Y-116270189D01*
X114558042Y-116340989D01*
X114566540Y-116353707D01*
X114566671Y-116355703D01*
X114565008Y-116356814D01*
X114563766Y-116356481D01*
X114528439Y-116332876D01*
X114480801Y-116323400D01*
X113081199Y-116323400D01*
X113033561Y-116332876D01*
X112998234Y-116356481D01*
X112996238Y-116356612D01*
X112995127Y-116354949D01*
X112995460Y-116353707D01*
X113003967Y-116340975D01*
X113024747Y-116274611D01*
X113003958Y-116203811D01*
X112995460Y-116191093D01*
X112995329Y-116189097D01*
X112996992Y-116187986D01*
X112998234Y-116188319D01*
G37*
G36*
X101648234Y-116188319D02*
G01*
X101683561Y-116211924D01*
X101731199Y-116221400D01*
X103130801Y-116221400D01*
X103178439Y-116211924D01*
X103213766Y-116188319D01*
X103215762Y-116188188D01*
X103216873Y-116189851D01*
X103216540Y-116191093D01*
X103208033Y-116203825D01*
X103187253Y-116270189D01*
X103208042Y-116340989D01*
X103216540Y-116353707D01*
X103216671Y-116355703D01*
X103215008Y-116356814D01*
X103213766Y-116356481D01*
X103178439Y-116332876D01*
X103130801Y-116323400D01*
X101731199Y-116323400D01*
X101683561Y-116332876D01*
X101648234Y-116356481D01*
X101646238Y-116356612D01*
X101645127Y-116354949D01*
X101645460Y-116353707D01*
X101653967Y-116340975D01*
X101674747Y-116274611D01*
X101653958Y-116203811D01*
X101645460Y-116191093D01*
X101645329Y-116189097D01*
X101646992Y-116187986D01*
X101648234Y-116188319D01*
G37*
G36*
X101648234Y-115688319D02*
G01*
X101683561Y-115711924D01*
X101731199Y-115721400D01*
X103130801Y-115721400D01*
X103178439Y-115711924D01*
X103213766Y-115688319D01*
X103215762Y-115688188D01*
X103216873Y-115689851D01*
X103216540Y-115691093D01*
X103208033Y-115703825D01*
X103187253Y-115770189D01*
X103208042Y-115840989D01*
X103216540Y-115853707D01*
X103216671Y-115855703D01*
X103215008Y-115856814D01*
X103213766Y-115856481D01*
X103178439Y-115832876D01*
X103130801Y-115823400D01*
X101731199Y-115823400D01*
X101683561Y-115832876D01*
X101648234Y-115856481D01*
X101646238Y-115856612D01*
X101645127Y-115854949D01*
X101645460Y-115853707D01*
X101653967Y-115840975D01*
X101674747Y-115774611D01*
X101653958Y-115703811D01*
X101645460Y-115691093D01*
X101645329Y-115689097D01*
X101646992Y-115687986D01*
X101648234Y-115688319D01*
G37*
G36*
X112998234Y-115688319D02*
G01*
X113033561Y-115711924D01*
X113081199Y-115721400D01*
X114480801Y-115721400D01*
X114528439Y-115711924D01*
X114563766Y-115688319D01*
X114565762Y-115688188D01*
X114566873Y-115689851D01*
X114566540Y-115691093D01*
X114558033Y-115703825D01*
X114537253Y-115770189D01*
X114558042Y-115840989D01*
X114566540Y-115853707D01*
X114566671Y-115855703D01*
X114565008Y-115856814D01*
X114563766Y-115856481D01*
X114528439Y-115832876D01*
X114480801Y-115823400D01*
X113081199Y-115823400D01*
X113033561Y-115832876D01*
X112998234Y-115856481D01*
X112996238Y-115856612D01*
X112995127Y-115854949D01*
X112995460Y-115853707D01*
X113003967Y-115840975D01*
X113024747Y-115774611D01*
X113003958Y-115703811D01*
X112995460Y-115691093D01*
X112995329Y-115689097D01*
X112996992Y-115687986D01*
X112998234Y-115688319D01*
G37*
G36*
X101648234Y-115188319D02*
G01*
X101683561Y-115211924D01*
X101731199Y-115221400D01*
X103130801Y-115221400D01*
X103178439Y-115211924D01*
X103213766Y-115188319D01*
X103215762Y-115188188D01*
X103216873Y-115189851D01*
X103216540Y-115191093D01*
X103208033Y-115203825D01*
X103187253Y-115270189D01*
X103208042Y-115340989D01*
X103216540Y-115353707D01*
X103216671Y-115355703D01*
X103215008Y-115356814D01*
X103213766Y-115356481D01*
X103178439Y-115332876D01*
X103130801Y-115323400D01*
X101731199Y-115323400D01*
X101683561Y-115332876D01*
X101648234Y-115356481D01*
X101646238Y-115356612D01*
X101645127Y-115354949D01*
X101645460Y-115353707D01*
X101653967Y-115340975D01*
X101674747Y-115274611D01*
X101653958Y-115203811D01*
X101645460Y-115191093D01*
X101645329Y-115189097D01*
X101646992Y-115187986D01*
X101648234Y-115188319D01*
G37*
G36*
X112998234Y-115188319D02*
G01*
X113033561Y-115211924D01*
X113081199Y-115221400D01*
X114480801Y-115221400D01*
X114528439Y-115211924D01*
X114563766Y-115188319D01*
X114565762Y-115188188D01*
X114566873Y-115189851D01*
X114566540Y-115191093D01*
X114558033Y-115203825D01*
X114537253Y-115270189D01*
X114558042Y-115340989D01*
X114566540Y-115353707D01*
X114566671Y-115355703D01*
X114565008Y-115356814D01*
X114563766Y-115356481D01*
X114528439Y-115332876D01*
X114480801Y-115323400D01*
X113081199Y-115323400D01*
X113033561Y-115332876D01*
X112998234Y-115356481D01*
X112996238Y-115356612D01*
X112995127Y-115354949D01*
X112995460Y-115353707D01*
X113003967Y-115340975D01*
X113024747Y-115274611D01*
X113003958Y-115203811D01*
X112995460Y-115191093D01*
X112995329Y-115189097D01*
X112996992Y-115187986D01*
X112998234Y-115188319D01*
G37*
G36*
X112998234Y-114688319D02*
G01*
X113033561Y-114711924D01*
X113081199Y-114721400D01*
X114480801Y-114721400D01*
X114528439Y-114711924D01*
X114563766Y-114688319D01*
X114565762Y-114688188D01*
X114566873Y-114689851D01*
X114566540Y-114691093D01*
X114558033Y-114703825D01*
X114537253Y-114770189D01*
X114558042Y-114840989D01*
X114566540Y-114853707D01*
X114566671Y-114855703D01*
X114565008Y-114856814D01*
X114563766Y-114856481D01*
X114528439Y-114832876D01*
X114480801Y-114823400D01*
X113081199Y-114823400D01*
X113033561Y-114832876D01*
X112998234Y-114856481D01*
X112996238Y-114856612D01*
X112995127Y-114854949D01*
X112995460Y-114853707D01*
X113003967Y-114840975D01*
X113024747Y-114774611D01*
X113003958Y-114703811D01*
X112995460Y-114691093D01*
X112995329Y-114689097D01*
X112996992Y-114687986D01*
X112998234Y-114688319D01*
G37*
G36*
X101648234Y-114688319D02*
G01*
X101683561Y-114711924D01*
X101731199Y-114721400D01*
X103130801Y-114721400D01*
X103178439Y-114711924D01*
X103213766Y-114688319D01*
X103215762Y-114688188D01*
X103216873Y-114689851D01*
X103216540Y-114691093D01*
X103208033Y-114703825D01*
X103187253Y-114770189D01*
X103208042Y-114840989D01*
X103216540Y-114853707D01*
X103216671Y-114855703D01*
X103215008Y-114856814D01*
X103213766Y-114856481D01*
X103178439Y-114832876D01*
X103130801Y-114823400D01*
X101731199Y-114823400D01*
X101683561Y-114832876D01*
X101648234Y-114856481D01*
X101646238Y-114856612D01*
X101645127Y-114854949D01*
X101645460Y-114853707D01*
X101653967Y-114840975D01*
X101674747Y-114774611D01*
X101653958Y-114703811D01*
X101645460Y-114691093D01*
X101645329Y-114689097D01*
X101646992Y-114687986D01*
X101648234Y-114688319D01*
G37*
G36*
X101648234Y-114188319D02*
G01*
X101683561Y-114211924D01*
X101731199Y-114221400D01*
X103130801Y-114221400D01*
X103178439Y-114211924D01*
X103213766Y-114188319D01*
X103215762Y-114188188D01*
X103216873Y-114189851D01*
X103216540Y-114191093D01*
X103208033Y-114203825D01*
X103187253Y-114270189D01*
X103208042Y-114340989D01*
X103216540Y-114353707D01*
X103216671Y-114355703D01*
X103215008Y-114356814D01*
X103213766Y-114356481D01*
X103178439Y-114332876D01*
X103130801Y-114323400D01*
X101731199Y-114323400D01*
X101683561Y-114332876D01*
X101648234Y-114356481D01*
X101646238Y-114356612D01*
X101645127Y-114354949D01*
X101645460Y-114353707D01*
X101653967Y-114340975D01*
X101674747Y-114274611D01*
X101653958Y-114203811D01*
X101645460Y-114191093D01*
X101645329Y-114189097D01*
X101646992Y-114187986D01*
X101648234Y-114188319D01*
G37*
G36*
X112998234Y-114188319D02*
G01*
X113033561Y-114211924D01*
X113081199Y-114221400D01*
X114480801Y-114221400D01*
X114528439Y-114211924D01*
X114563766Y-114188319D01*
X114565762Y-114188188D01*
X114566873Y-114189851D01*
X114566540Y-114191093D01*
X114558033Y-114203825D01*
X114537253Y-114270189D01*
X114558042Y-114340989D01*
X114566540Y-114353707D01*
X114566671Y-114355703D01*
X114565008Y-114356814D01*
X114563766Y-114356481D01*
X114528439Y-114332876D01*
X114480801Y-114323400D01*
X113081199Y-114323400D01*
X113033561Y-114332876D01*
X112998234Y-114356481D01*
X112996238Y-114356612D01*
X112995127Y-114354949D01*
X112995460Y-114353707D01*
X113003967Y-114340975D01*
X113024747Y-114274611D01*
X113003958Y-114203811D01*
X112995460Y-114191093D01*
X112995329Y-114189097D01*
X112996992Y-114187986D01*
X112998234Y-114188319D01*
G37*
G36*
X171565425Y-113968850D02*
G01*
X171565593Y-113970125D01*
X171562357Y-113986395D01*
X171562460Y-113986415D01*
X171563964Y-113987734D01*
X171563979Y-113988975D01*
X171555264Y-114016804D01*
X171573585Y-114083594D01*
X171625159Y-114129923D01*
X171666142Y-114139223D01*
X171666748Y-114139784D01*
X171678080Y-114142038D01*
X171679584Y-114143357D01*
X171679194Y-114145319D01*
X171677690Y-114146000D01*
X170140199Y-114146000D01*
X170121262Y-114149767D01*
X170110267Y-114157114D01*
X170108271Y-114157245D01*
X170107160Y-114155582D01*
X170107493Y-114154340D01*
X170116709Y-114140548D01*
X170114969Y-114139385D01*
X170114084Y-114137591D01*
X170114545Y-114136440D01*
X170129078Y-114119048D01*
X170137704Y-114050330D01*
X170114918Y-114002712D01*
X170115072Y-114000718D01*
X170115611Y-114000186D01*
X170116709Y-113999452D01*
X170107493Y-113985660D01*
X170107362Y-113983664D01*
X170109025Y-113982553D01*
X170110267Y-113982886D01*
X170121262Y-113990233D01*
X170140199Y-113994000D01*
X171519801Y-113994000D01*
X171538738Y-113990233D01*
X171554620Y-113979620D01*
X171561968Y-113968624D01*
X171563762Y-113967739D01*
X171565425Y-113968850D01*
G37*
G36*
X101648234Y-113688319D02*
G01*
X101683561Y-113711924D01*
X101731199Y-113721400D01*
X103130801Y-113721400D01*
X103178439Y-113711924D01*
X103213766Y-113688319D01*
X103215762Y-113688188D01*
X103216873Y-113689851D01*
X103216540Y-113691093D01*
X103208033Y-113703825D01*
X103187253Y-113770189D01*
X103208042Y-113840989D01*
X103216540Y-113853707D01*
X103216671Y-113855703D01*
X103215008Y-113856814D01*
X103213766Y-113856481D01*
X103178439Y-113832876D01*
X103130801Y-113823400D01*
X101731199Y-113823400D01*
X101683561Y-113832876D01*
X101648234Y-113856481D01*
X101646238Y-113856612D01*
X101645127Y-113854949D01*
X101645460Y-113853707D01*
X101653967Y-113840975D01*
X101674747Y-113774611D01*
X101653958Y-113703811D01*
X101645460Y-113691093D01*
X101645329Y-113689097D01*
X101646992Y-113687986D01*
X101648234Y-113688319D01*
G37*
G36*
X112998234Y-113688319D02*
G01*
X113033561Y-113711924D01*
X113081199Y-113721400D01*
X114480801Y-113721400D01*
X114528439Y-113711924D01*
X114563766Y-113688319D01*
X114565762Y-113688188D01*
X114566873Y-113689851D01*
X114566540Y-113691093D01*
X114558033Y-113703825D01*
X114537253Y-113770189D01*
X114558042Y-113840989D01*
X114566540Y-113853707D01*
X114566671Y-113855703D01*
X114565008Y-113856814D01*
X114563766Y-113856481D01*
X114528439Y-113832876D01*
X114480801Y-113823400D01*
X113081199Y-113823400D01*
X113033561Y-113832876D01*
X112998234Y-113856481D01*
X112996238Y-113856612D01*
X112995127Y-113854949D01*
X112995460Y-113853707D01*
X113003967Y-113840975D01*
X113024747Y-113774611D01*
X113003958Y-113703811D01*
X112995460Y-113691093D01*
X112995329Y-113689097D01*
X112996992Y-113687986D01*
X112998234Y-113688319D01*
G37*
G36*
X170106075Y-113330084D02*
G01*
X170121263Y-113340233D01*
X170140199Y-113344000D01*
X171519801Y-113344000D01*
X171538738Y-113340233D01*
X171553773Y-113330186D01*
X171555768Y-113330055D01*
X171556880Y-113331718D01*
X171556793Y-113332447D01*
X171537898Y-113392788D01*
X171556955Y-113457690D01*
X171556483Y-113459633D01*
X171554564Y-113460197D01*
X171553925Y-113459916D01*
X171538737Y-113449767D01*
X171519801Y-113446000D01*
X170140199Y-113446000D01*
X170121262Y-113449767D01*
X170106227Y-113459814D01*
X170104232Y-113459945D01*
X170103120Y-113458282D01*
X170103207Y-113457553D01*
X170122102Y-113397212D01*
X170103045Y-113332310D01*
X170103517Y-113330367D01*
X170105436Y-113329803D01*
X170106075Y-113330084D01*
G37*
G36*
X101648234Y-113188319D02*
G01*
X101683561Y-113211924D01*
X101731199Y-113221400D01*
X103130801Y-113221400D01*
X103178439Y-113211924D01*
X103213766Y-113188319D01*
X103215762Y-113188188D01*
X103216873Y-113189851D01*
X103216540Y-113191093D01*
X103208033Y-113203825D01*
X103187253Y-113270189D01*
X103208042Y-113340989D01*
X103216540Y-113353707D01*
X103216671Y-113355703D01*
X103215008Y-113356814D01*
X103213766Y-113356481D01*
X103178439Y-113332876D01*
X103130801Y-113323400D01*
X101731199Y-113323400D01*
X101683561Y-113332876D01*
X101648234Y-113356481D01*
X101646238Y-113356612D01*
X101645127Y-113354949D01*
X101645460Y-113353707D01*
X101653967Y-113340975D01*
X101674747Y-113274611D01*
X101653958Y-113203811D01*
X101645460Y-113191093D01*
X101645329Y-113189097D01*
X101646992Y-113187986D01*
X101648234Y-113188319D01*
G37*
G36*
X112998234Y-113188319D02*
G01*
X113033561Y-113211924D01*
X113081199Y-113221400D01*
X114480801Y-113221400D01*
X114528439Y-113211924D01*
X114563766Y-113188319D01*
X114565762Y-113188188D01*
X114566873Y-113189851D01*
X114566540Y-113191093D01*
X114558033Y-113203825D01*
X114537253Y-113270189D01*
X114558042Y-113340989D01*
X114566540Y-113353707D01*
X114566671Y-113355703D01*
X114565008Y-113356814D01*
X114563766Y-113356481D01*
X114528439Y-113332876D01*
X114480801Y-113323400D01*
X113081199Y-113323400D01*
X113033561Y-113332876D01*
X112998234Y-113356481D01*
X112996238Y-113356612D01*
X112995127Y-113354949D01*
X112995460Y-113353707D01*
X113003967Y-113340975D01*
X113024747Y-113274611D01*
X113003958Y-113203811D01*
X112995460Y-113191093D01*
X112995329Y-113189097D01*
X112996992Y-113187986D01*
X112998234Y-113188319D01*
G37*
G36*
X101648234Y-112688319D02*
G01*
X101683561Y-112711924D01*
X101731199Y-112721400D01*
X103130801Y-112721400D01*
X103178439Y-112711924D01*
X103213766Y-112688319D01*
X103215762Y-112688188D01*
X103216873Y-112689851D01*
X103216540Y-112691093D01*
X103208033Y-112703825D01*
X103187253Y-112770189D01*
X103208042Y-112840989D01*
X103216540Y-112853707D01*
X103216671Y-112855703D01*
X103215008Y-112856814D01*
X103213766Y-112856481D01*
X103178439Y-112832876D01*
X103130801Y-112823400D01*
X101731199Y-112823400D01*
X101683561Y-112832876D01*
X101648234Y-112856481D01*
X101646238Y-112856612D01*
X101645127Y-112854949D01*
X101645460Y-112853707D01*
X101653967Y-112840975D01*
X101674747Y-112774611D01*
X101653958Y-112703811D01*
X101645460Y-112691093D01*
X101645329Y-112689097D01*
X101646992Y-112687986D01*
X101648234Y-112688319D01*
G37*
G36*
X112998234Y-112688319D02*
G01*
X113033561Y-112711924D01*
X113081199Y-112721400D01*
X114480801Y-112721400D01*
X114528439Y-112711924D01*
X114563766Y-112688319D01*
X114565762Y-112688188D01*
X114566873Y-112689851D01*
X114566540Y-112691093D01*
X114558033Y-112703825D01*
X114537253Y-112770189D01*
X114558042Y-112840989D01*
X114566540Y-112853707D01*
X114566671Y-112855703D01*
X114565008Y-112856814D01*
X114563766Y-112856481D01*
X114528439Y-112832876D01*
X114480801Y-112823400D01*
X113081199Y-112823400D01*
X113033561Y-112832876D01*
X112998234Y-112856481D01*
X112996238Y-112856612D01*
X112995127Y-112854949D01*
X112995460Y-112853707D01*
X113003967Y-112840975D01*
X113024747Y-112774611D01*
X113003958Y-112703811D01*
X112995460Y-112691093D01*
X112995329Y-112689097D01*
X112996992Y-112687986D01*
X112998234Y-112688319D01*
G37*
G36*
X170106075Y-112680084D02*
G01*
X170121263Y-112690233D01*
X170140199Y-112694000D01*
X171519801Y-112694000D01*
X171538738Y-112690233D01*
X171553773Y-112680186D01*
X171555768Y-112680055D01*
X171556880Y-112681718D01*
X171556793Y-112682447D01*
X171537898Y-112742788D01*
X171556955Y-112807690D01*
X171556483Y-112809633D01*
X171554564Y-112810197D01*
X171553925Y-112809916D01*
X171538737Y-112799767D01*
X171519801Y-112796000D01*
X170140199Y-112796000D01*
X170121262Y-112799767D01*
X170106227Y-112809814D01*
X170104232Y-112809945D01*
X170103120Y-112808282D01*
X170103207Y-112807553D01*
X170122102Y-112747212D01*
X170103045Y-112682310D01*
X170103517Y-112680367D01*
X170105436Y-112679803D01*
X170106075Y-112680084D01*
G37*
G36*
X101648234Y-112188319D02*
G01*
X101683561Y-112211924D01*
X101731199Y-112221400D01*
X103130801Y-112221400D01*
X103178439Y-112211924D01*
X103213766Y-112188319D01*
X103215762Y-112188188D01*
X103216873Y-112189851D01*
X103216540Y-112191093D01*
X103208033Y-112203825D01*
X103187253Y-112270189D01*
X103208042Y-112340989D01*
X103216540Y-112353707D01*
X103216671Y-112355703D01*
X103215008Y-112356814D01*
X103213766Y-112356481D01*
X103178439Y-112332876D01*
X103130801Y-112323400D01*
X101731199Y-112323400D01*
X101683561Y-112332876D01*
X101648234Y-112356481D01*
X101646238Y-112356612D01*
X101645127Y-112354949D01*
X101645460Y-112353707D01*
X101653967Y-112340975D01*
X101674747Y-112274611D01*
X101653958Y-112203811D01*
X101645460Y-112191093D01*
X101645329Y-112189097D01*
X101646992Y-112187986D01*
X101648234Y-112188319D01*
G37*
G36*
X112998234Y-112188319D02*
G01*
X113033561Y-112211924D01*
X113081199Y-112221400D01*
X114480801Y-112221400D01*
X114528439Y-112211924D01*
X114563766Y-112188319D01*
X114565762Y-112188188D01*
X114566873Y-112189851D01*
X114566540Y-112191093D01*
X114558033Y-112203825D01*
X114537253Y-112270189D01*
X114558042Y-112340989D01*
X114566540Y-112353707D01*
X114566671Y-112355703D01*
X114565008Y-112356814D01*
X114563766Y-112356481D01*
X114528439Y-112332876D01*
X114480801Y-112323400D01*
X113081199Y-112323400D01*
X113033561Y-112332876D01*
X112998234Y-112356481D01*
X112996238Y-112356612D01*
X112995127Y-112354949D01*
X112995460Y-112353707D01*
X113003967Y-112340975D01*
X113024747Y-112274611D01*
X113003958Y-112203811D01*
X112995460Y-112191093D01*
X112995329Y-112189097D01*
X112996992Y-112187986D01*
X112998234Y-112188319D01*
G37*
G36*
X170106075Y-112030084D02*
G01*
X170121263Y-112040233D01*
X170140199Y-112044000D01*
X171519801Y-112044000D01*
X171538738Y-112040233D01*
X171553773Y-112030186D01*
X171555768Y-112030055D01*
X171556880Y-112031718D01*
X171556793Y-112032447D01*
X171537898Y-112092788D01*
X171556955Y-112157690D01*
X171556483Y-112159633D01*
X171554564Y-112160197D01*
X171553925Y-112159916D01*
X171538737Y-112149767D01*
X171519801Y-112146000D01*
X170140199Y-112146000D01*
X170121262Y-112149767D01*
X170106227Y-112159814D01*
X170104232Y-112159945D01*
X170103120Y-112158282D01*
X170103207Y-112157553D01*
X170122102Y-112097212D01*
X170103045Y-112032310D01*
X170103517Y-112030367D01*
X170105436Y-112029803D01*
X170106075Y-112030084D01*
G37*
G36*
X101648234Y-111688319D02*
G01*
X101683561Y-111711924D01*
X101731199Y-111721400D01*
X103130801Y-111721400D01*
X103178439Y-111711924D01*
X103213766Y-111688319D01*
X103215762Y-111688188D01*
X103216873Y-111689851D01*
X103216540Y-111691093D01*
X103208033Y-111703825D01*
X103187253Y-111770189D01*
X103208042Y-111840989D01*
X103216540Y-111853707D01*
X103216671Y-111855703D01*
X103215008Y-111856814D01*
X103213766Y-111856481D01*
X103178439Y-111832876D01*
X103130801Y-111823400D01*
X101731199Y-111823400D01*
X101683561Y-111832876D01*
X101648234Y-111856481D01*
X101646238Y-111856612D01*
X101645127Y-111854949D01*
X101645460Y-111853707D01*
X101653967Y-111840975D01*
X101674747Y-111774611D01*
X101653958Y-111703811D01*
X101645460Y-111691093D01*
X101645329Y-111689097D01*
X101646992Y-111687986D01*
X101648234Y-111688319D01*
G37*
G36*
X112998234Y-111688319D02*
G01*
X113033561Y-111711924D01*
X113081199Y-111721400D01*
X114480801Y-111721400D01*
X114528439Y-111711924D01*
X114563766Y-111688319D01*
X114565762Y-111688188D01*
X114566873Y-111689851D01*
X114566540Y-111691093D01*
X114558033Y-111703825D01*
X114537253Y-111770189D01*
X114558042Y-111840989D01*
X114566540Y-111853707D01*
X114566671Y-111855703D01*
X114565008Y-111856814D01*
X114563766Y-111856481D01*
X114528439Y-111832876D01*
X114480801Y-111823400D01*
X113081199Y-111823400D01*
X113033561Y-111832876D01*
X112998234Y-111856481D01*
X112996238Y-111856612D01*
X112995127Y-111854949D01*
X112995460Y-111853707D01*
X113003967Y-111840975D01*
X113024747Y-111774611D01*
X113003958Y-111703811D01*
X112995460Y-111691093D01*
X112995329Y-111689097D01*
X112996992Y-111687986D01*
X112998234Y-111688319D01*
G37*
G36*
X170106075Y-111380084D02*
G01*
X170121263Y-111390233D01*
X170140199Y-111394000D01*
X171519801Y-111394000D01*
X171538738Y-111390233D01*
X171553773Y-111380186D01*
X171555768Y-111380055D01*
X171556880Y-111381718D01*
X171556793Y-111382447D01*
X171537898Y-111442788D01*
X171556955Y-111507690D01*
X171556483Y-111509633D01*
X171554564Y-111510197D01*
X171553925Y-111509916D01*
X171538737Y-111499767D01*
X171519801Y-111496000D01*
X170140199Y-111496000D01*
X170121262Y-111499767D01*
X170106227Y-111509814D01*
X170104232Y-111509945D01*
X170103120Y-111508282D01*
X170103207Y-111507553D01*
X170122102Y-111447212D01*
X170103045Y-111382310D01*
X170103517Y-111380367D01*
X170105436Y-111379803D01*
X170106075Y-111380084D01*
G37*
G36*
X101648234Y-111188319D02*
G01*
X101683561Y-111211924D01*
X101731199Y-111221400D01*
X103130801Y-111221400D01*
X103178439Y-111211924D01*
X103213766Y-111188319D01*
X103215762Y-111188188D01*
X103216873Y-111189851D01*
X103216540Y-111191093D01*
X103208033Y-111203825D01*
X103187253Y-111270189D01*
X103208042Y-111340989D01*
X103216540Y-111353707D01*
X103216671Y-111355703D01*
X103215008Y-111356814D01*
X103213766Y-111356481D01*
X103178439Y-111332876D01*
X103130801Y-111323400D01*
X101731199Y-111323400D01*
X101683561Y-111332876D01*
X101648234Y-111356481D01*
X101646238Y-111356612D01*
X101645127Y-111354949D01*
X101645460Y-111353707D01*
X101653967Y-111340975D01*
X101674747Y-111274611D01*
X101653958Y-111203811D01*
X101645460Y-111191093D01*
X101645329Y-111189097D01*
X101646992Y-111187986D01*
X101648234Y-111188319D01*
G37*
G36*
X112998234Y-111188319D02*
G01*
X113033561Y-111211924D01*
X113081199Y-111221400D01*
X114480801Y-111221400D01*
X114528439Y-111211924D01*
X114563766Y-111188319D01*
X114565762Y-111188188D01*
X114566873Y-111189851D01*
X114566540Y-111191093D01*
X114558033Y-111203825D01*
X114537253Y-111270189D01*
X114558042Y-111340989D01*
X114566540Y-111353707D01*
X114566671Y-111355703D01*
X114565008Y-111356814D01*
X114563766Y-111356481D01*
X114528439Y-111332876D01*
X114480801Y-111323400D01*
X113081199Y-111323400D01*
X113033561Y-111332876D01*
X112998234Y-111356481D01*
X112996238Y-111356612D01*
X112995127Y-111354949D01*
X112995460Y-111353707D01*
X113003967Y-111340975D01*
X113024747Y-111274611D01*
X113003958Y-111203811D01*
X112995460Y-111191093D01*
X112995329Y-111189097D01*
X112996992Y-111187986D01*
X112998234Y-111188319D01*
G37*
G36*
X170110267Y-110682886D02*
G01*
X170121262Y-110690233D01*
X170140199Y-110694000D01*
X171677681Y-110694000D01*
X171679413Y-110695000D01*
X171679413Y-110697000D01*
X171678071Y-110697962D01*
X171667534Y-110700058D01*
X171667175Y-110701115D01*
X171666419Y-110701530D01*
X171611707Y-110717595D01*
X171566352Y-110769938D01*
X171556486Y-110838557D01*
X171562409Y-110854014D01*
X171562503Y-110854340D01*
X171565592Y-110869874D01*
X171564949Y-110871768D01*
X171562987Y-110872158D01*
X171561967Y-110871375D01*
X171554620Y-110860380D01*
X171538738Y-110849767D01*
X171519801Y-110846000D01*
X170140199Y-110846000D01*
X170121262Y-110849767D01*
X170110267Y-110857114D01*
X170108271Y-110857245D01*
X170107160Y-110855582D01*
X170107493Y-110854340D01*
X170116709Y-110840548D01*
X170114969Y-110839385D01*
X170114084Y-110837591D01*
X170114545Y-110836440D01*
X170129078Y-110819048D01*
X170137704Y-110750330D01*
X170114918Y-110702712D01*
X170115072Y-110700718D01*
X170115611Y-110700186D01*
X170116709Y-110699452D01*
X170107493Y-110685660D01*
X170107362Y-110683664D01*
X170109025Y-110682553D01*
X170110267Y-110682886D01*
G37*
G36*
X108524693Y-108311860D02*
G01*
X108537425Y-108320367D01*
X108603789Y-108341147D01*
X108674589Y-108320358D01*
X108687307Y-108311860D01*
X108689303Y-108311729D01*
X108690414Y-108313392D01*
X108690081Y-108314634D01*
X108666476Y-108349961D01*
X108657000Y-108397599D01*
X108657000Y-109797201D01*
X108666476Y-109844839D01*
X108690081Y-109880166D01*
X108690212Y-109882162D01*
X108688549Y-109883273D01*
X108687307Y-109882940D01*
X108674575Y-109874433D01*
X108608211Y-109853653D01*
X108537411Y-109874442D01*
X108524693Y-109882940D01*
X108522697Y-109883071D01*
X108521586Y-109881408D01*
X108521919Y-109880166D01*
X108545524Y-109844839D01*
X108555000Y-109797201D01*
X108555000Y-108397599D01*
X108545524Y-108349961D01*
X108521919Y-108314634D01*
X108521788Y-108312638D01*
X108523451Y-108311527D01*
X108524693Y-108311860D01*
G37*
G36*
X105024693Y-108311860D02*
G01*
X105037425Y-108320367D01*
X105103789Y-108341147D01*
X105174589Y-108320358D01*
X105187307Y-108311860D01*
X105189303Y-108311729D01*
X105190414Y-108313392D01*
X105190081Y-108314634D01*
X105166476Y-108349961D01*
X105157000Y-108397599D01*
X105157000Y-109797201D01*
X105166476Y-109844839D01*
X105190081Y-109880166D01*
X105190212Y-109882162D01*
X105188549Y-109883273D01*
X105187307Y-109882940D01*
X105174575Y-109874433D01*
X105108211Y-109853653D01*
X105037411Y-109874442D01*
X105024693Y-109882940D01*
X105022697Y-109883071D01*
X105021586Y-109881408D01*
X105021919Y-109880166D01*
X105045524Y-109844839D01*
X105055000Y-109797201D01*
X105055000Y-108397599D01*
X105045524Y-108349961D01*
X105021919Y-108314634D01*
X105021788Y-108312638D01*
X105023451Y-108311527D01*
X105024693Y-108311860D01*
G37*
G36*
X110524693Y-108311860D02*
G01*
X110537425Y-108320367D01*
X110603789Y-108341147D01*
X110674589Y-108320358D01*
X110687307Y-108311860D01*
X110689303Y-108311729D01*
X110690414Y-108313392D01*
X110690081Y-108314634D01*
X110666476Y-108349961D01*
X110657000Y-108397599D01*
X110657000Y-109797201D01*
X110666476Y-109844839D01*
X110690081Y-109880166D01*
X110690212Y-109882162D01*
X110688549Y-109883273D01*
X110687307Y-109882940D01*
X110674575Y-109874433D01*
X110608211Y-109853653D01*
X110537411Y-109874442D01*
X110524693Y-109882940D01*
X110522697Y-109883071D01*
X110521586Y-109881408D01*
X110521919Y-109880166D01*
X110545524Y-109844839D01*
X110555000Y-109797201D01*
X110555000Y-108397599D01*
X110545524Y-108349961D01*
X110521919Y-108314634D01*
X110521788Y-108312638D01*
X110523451Y-108311527D01*
X110524693Y-108311860D01*
G37*
G36*
X107524693Y-108311860D02*
G01*
X107537425Y-108320367D01*
X107603789Y-108341147D01*
X107674589Y-108320358D01*
X107687307Y-108311860D01*
X107689303Y-108311729D01*
X107690414Y-108313392D01*
X107690081Y-108314634D01*
X107666476Y-108349961D01*
X107657000Y-108397599D01*
X107657000Y-109797201D01*
X107666476Y-109844839D01*
X107690081Y-109880166D01*
X107690212Y-109882162D01*
X107688549Y-109883273D01*
X107687307Y-109882940D01*
X107674575Y-109874433D01*
X107608211Y-109853653D01*
X107537411Y-109874442D01*
X107524693Y-109882940D01*
X107522697Y-109883071D01*
X107521586Y-109881408D01*
X107521919Y-109880166D01*
X107545524Y-109844839D01*
X107555000Y-109797201D01*
X107555000Y-108397599D01*
X107545524Y-108349961D01*
X107521919Y-108314634D01*
X107521788Y-108312638D01*
X107523451Y-108311527D01*
X107524693Y-108311860D01*
G37*
G36*
X106524693Y-108311860D02*
G01*
X106537425Y-108320367D01*
X106603789Y-108341147D01*
X106674589Y-108320358D01*
X106687307Y-108311860D01*
X106689303Y-108311729D01*
X106690414Y-108313392D01*
X106690081Y-108314634D01*
X106666476Y-108349961D01*
X106657000Y-108397599D01*
X106657000Y-109797201D01*
X106666476Y-109844839D01*
X106690081Y-109880166D01*
X106690212Y-109882162D01*
X106688549Y-109883273D01*
X106687307Y-109882940D01*
X106674575Y-109874433D01*
X106608211Y-109853653D01*
X106537411Y-109874442D01*
X106524693Y-109882940D01*
X106522697Y-109883071D01*
X106521586Y-109881408D01*
X106521919Y-109880166D01*
X106545524Y-109844839D01*
X106555000Y-109797201D01*
X106555000Y-108397599D01*
X106545524Y-108349961D01*
X106521919Y-108314634D01*
X106521788Y-108312638D01*
X106523451Y-108311527D01*
X106524693Y-108311860D01*
G37*
G36*
X111024693Y-108311860D02*
G01*
X111037425Y-108320367D01*
X111103789Y-108341147D01*
X111174589Y-108320358D01*
X111187307Y-108311860D01*
X111189303Y-108311729D01*
X111190414Y-108313392D01*
X111190081Y-108314634D01*
X111166476Y-108349961D01*
X111157000Y-108397599D01*
X111157000Y-109797201D01*
X111166476Y-109844839D01*
X111190081Y-109880166D01*
X111190212Y-109882162D01*
X111188549Y-109883273D01*
X111187307Y-109882940D01*
X111174575Y-109874433D01*
X111108211Y-109853653D01*
X111037411Y-109874442D01*
X111024693Y-109882940D01*
X111022697Y-109883071D01*
X111021586Y-109881408D01*
X111021919Y-109880166D01*
X111045524Y-109844839D01*
X111055000Y-109797201D01*
X111055000Y-108397599D01*
X111045524Y-108349961D01*
X111021919Y-108314634D01*
X111021788Y-108312638D01*
X111023451Y-108311527D01*
X111024693Y-108311860D01*
G37*
G36*
X110024693Y-108311860D02*
G01*
X110037425Y-108320367D01*
X110103789Y-108341147D01*
X110174589Y-108320358D01*
X110187307Y-108311860D01*
X110189303Y-108311729D01*
X110190414Y-108313392D01*
X110190081Y-108314634D01*
X110166476Y-108349961D01*
X110157000Y-108397599D01*
X110157000Y-109797201D01*
X110166476Y-109844839D01*
X110190081Y-109880166D01*
X110190212Y-109882162D01*
X110188549Y-109883273D01*
X110187307Y-109882940D01*
X110174575Y-109874433D01*
X110108211Y-109853653D01*
X110037411Y-109874442D01*
X110024693Y-109882940D01*
X110022697Y-109883071D01*
X110021586Y-109881408D01*
X110021919Y-109880166D01*
X110045524Y-109844839D01*
X110055000Y-109797201D01*
X110055000Y-108397599D01*
X110045524Y-108349961D01*
X110021919Y-108314634D01*
X110021788Y-108312638D01*
X110023451Y-108311527D01*
X110024693Y-108311860D01*
G37*
G36*
X111524693Y-108311860D02*
G01*
X111537425Y-108320367D01*
X111603789Y-108341147D01*
X111674589Y-108320358D01*
X111687307Y-108311860D01*
X111689303Y-108311729D01*
X111690414Y-108313392D01*
X111690081Y-108314634D01*
X111666476Y-108349961D01*
X111657000Y-108397599D01*
X111657000Y-109797201D01*
X111666476Y-109844839D01*
X111690081Y-109880166D01*
X111690212Y-109882162D01*
X111688549Y-109883273D01*
X111687307Y-109882940D01*
X111674575Y-109874433D01*
X111608211Y-109853653D01*
X111537411Y-109874442D01*
X111524693Y-109882940D01*
X111522697Y-109883071D01*
X111521586Y-109881408D01*
X111521919Y-109880166D01*
X111545524Y-109844839D01*
X111555000Y-109797201D01*
X111555000Y-108397599D01*
X111545524Y-108349961D01*
X111521919Y-108314634D01*
X111521788Y-108312638D01*
X111523451Y-108311527D01*
X111524693Y-108311860D01*
G37*
G36*
X107024693Y-108311860D02*
G01*
X107037425Y-108320367D01*
X107103789Y-108341147D01*
X107174589Y-108320358D01*
X107187307Y-108311860D01*
X107189303Y-108311729D01*
X107190414Y-108313392D01*
X107190081Y-108314634D01*
X107166476Y-108349961D01*
X107157000Y-108397599D01*
X107157000Y-109797201D01*
X107166476Y-109844839D01*
X107190081Y-109880166D01*
X107190212Y-109882162D01*
X107188549Y-109883273D01*
X107187307Y-109882940D01*
X107174575Y-109874433D01*
X107108211Y-109853653D01*
X107037411Y-109874442D01*
X107024693Y-109882940D01*
X107022697Y-109883071D01*
X107021586Y-109881408D01*
X107021919Y-109880166D01*
X107045524Y-109844839D01*
X107055000Y-109797201D01*
X107055000Y-108397599D01*
X107045524Y-108349961D01*
X107021919Y-108314634D01*
X107021788Y-108312638D01*
X107023451Y-108311527D01*
X107024693Y-108311860D01*
G37*
G36*
X109024693Y-108311860D02*
G01*
X109037425Y-108320367D01*
X109103789Y-108341147D01*
X109174589Y-108320358D01*
X109187307Y-108311860D01*
X109189303Y-108311729D01*
X109190414Y-108313392D01*
X109190081Y-108314634D01*
X109166476Y-108349961D01*
X109157000Y-108397599D01*
X109157000Y-109797201D01*
X109166476Y-109844839D01*
X109190081Y-109880166D01*
X109190212Y-109882162D01*
X109188549Y-109883273D01*
X109187307Y-109882940D01*
X109174575Y-109874433D01*
X109108211Y-109853653D01*
X109037411Y-109874442D01*
X109024693Y-109882940D01*
X109022697Y-109883071D01*
X109021586Y-109881408D01*
X109021919Y-109880166D01*
X109045524Y-109844839D01*
X109055000Y-109797201D01*
X109055000Y-108397599D01*
X109045524Y-108349961D01*
X109021919Y-108314634D01*
X109021788Y-108312638D01*
X109023451Y-108311527D01*
X109024693Y-108311860D01*
G37*
G36*
X109524693Y-108311860D02*
G01*
X109537425Y-108320367D01*
X109603789Y-108341147D01*
X109674589Y-108320358D01*
X109687307Y-108311860D01*
X109689303Y-108311729D01*
X109690414Y-108313392D01*
X109690081Y-108314634D01*
X109666476Y-108349961D01*
X109657000Y-108397599D01*
X109657000Y-109797201D01*
X109666476Y-109844839D01*
X109690081Y-109880166D01*
X109690212Y-109882162D01*
X109688549Y-109883273D01*
X109687307Y-109882940D01*
X109674575Y-109874433D01*
X109608211Y-109853653D01*
X109537411Y-109874442D01*
X109524693Y-109882940D01*
X109522697Y-109883071D01*
X109521586Y-109881408D01*
X109521919Y-109880166D01*
X109545524Y-109844839D01*
X109555000Y-109797201D01*
X109555000Y-108397599D01*
X109545524Y-108349961D01*
X109521919Y-108314634D01*
X109521788Y-108312638D01*
X109523451Y-108311527D01*
X109524693Y-108311860D01*
G37*
G36*
X104524693Y-108311860D02*
G01*
X104537425Y-108320367D01*
X104603789Y-108341147D01*
X104674589Y-108320358D01*
X104687307Y-108311860D01*
X104689303Y-108311729D01*
X104690414Y-108313392D01*
X104690081Y-108314634D01*
X104666476Y-108349961D01*
X104657000Y-108397599D01*
X104657000Y-109797201D01*
X104666476Y-109844839D01*
X104690081Y-109880166D01*
X104690212Y-109882162D01*
X104688549Y-109883273D01*
X104687307Y-109882940D01*
X104674575Y-109874433D01*
X104608211Y-109853653D01*
X104537411Y-109874442D01*
X104524693Y-109882940D01*
X104522697Y-109883071D01*
X104521586Y-109881408D01*
X104521919Y-109880166D01*
X104545524Y-109844839D01*
X104555000Y-109797201D01*
X104555000Y-108397599D01*
X104545524Y-108349961D01*
X104521919Y-108314634D01*
X104521788Y-108312638D01*
X104523451Y-108311527D01*
X104524693Y-108311860D01*
G37*
G36*
X108024693Y-108311860D02*
G01*
X108037425Y-108320367D01*
X108103789Y-108341147D01*
X108174589Y-108320358D01*
X108187307Y-108311860D01*
X108189303Y-108311729D01*
X108190414Y-108313392D01*
X108190081Y-108314634D01*
X108166476Y-108349961D01*
X108157000Y-108397599D01*
X108157000Y-109797201D01*
X108166476Y-109844839D01*
X108190081Y-109880166D01*
X108190212Y-109882162D01*
X108188549Y-109883273D01*
X108187307Y-109882940D01*
X108174575Y-109874433D01*
X108108211Y-109853653D01*
X108037411Y-109874442D01*
X108024693Y-109882940D01*
X108022697Y-109883071D01*
X108021586Y-109881408D01*
X108021919Y-109880166D01*
X108045524Y-109844839D01*
X108055000Y-109797201D01*
X108055000Y-108397599D01*
X108045524Y-108349961D01*
X108021919Y-108314634D01*
X108021788Y-108312638D01*
X108023451Y-108311527D01*
X108024693Y-108311860D01*
G37*
G36*
X105524693Y-108311860D02*
G01*
X105537425Y-108320367D01*
X105603789Y-108341147D01*
X105674589Y-108320358D01*
X105687307Y-108311860D01*
X105689303Y-108311729D01*
X105690414Y-108313392D01*
X105690081Y-108314634D01*
X105666476Y-108349961D01*
X105657000Y-108397599D01*
X105657000Y-109797201D01*
X105666476Y-109844839D01*
X105690081Y-109880166D01*
X105690212Y-109882162D01*
X105688549Y-109883273D01*
X105687307Y-109882940D01*
X105674575Y-109874433D01*
X105608211Y-109853653D01*
X105537411Y-109874442D01*
X105524693Y-109882940D01*
X105522697Y-109883071D01*
X105521586Y-109881408D01*
X105521919Y-109880166D01*
X105545524Y-109844839D01*
X105555000Y-109797201D01*
X105555000Y-108397599D01*
X105545524Y-108349961D01*
X105521919Y-108314634D01*
X105521788Y-108312638D01*
X105523451Y-108311527D01*
X105524693Y-108311860D01*
G37*
G36*
X106024693Y-108311860D02*
G01*
X106037425Y-108320367D01*
X106103789Y-108341147D01*
X106174589Y-108320358D01*
X106187307Y-108311860D01*
X106189303Y-108311729D01*
X106190414Y-108313392D01*
X106190081Y-108314634D01*
X106166476Y-108349961D01*
X106157000Y-108397599D01*
X106157000Y-109797201D01*
X106166476Y-109844839D01*
X106190081Y-109880166D01*
X106190212Y-109882162D01*
X106188549Y-109883273D01*
X106187307Y-109882940D01*
X106174575Y-109874433D01*
X106108211Y-109853653D01*
X106037411Y-109874442D01*
X106024693Y-109882940D01*
X106022697Y-109883071D01*
X106021586Y-109881408D01*
X106021919Y-109880166D01*
X106045524Y-109844839D01*
X106055000Y-109797201D01*
X106055000Y-108397599D01*
X106045524Y-108349961D01*
X106021919Y-108314634D01*
X106021788Y-108312638D01*
X106023451Y-108311527D01*
X106024693Y-108311860D01*
G37*
G36*
X111942587Y-67772477D02*
G01*
X111942126Y-67773891D01*
X111902803Y-67820944D01*
X111894170Y-67889660D01*
X111924133Y-67952289D01*
X111932803Y-67959800D01*
X111933457Y-67961690D01*
X111932147Y-67963202D01*
X111930382Y-67962975D01*
X111922006Y-67957379D01*
X111864801Y-67946000D01*
X110590199Y-67946000D01*
X110532994Y-67957379D01*
X110515520Y-67969055D01*
X110513524Y-67969186D01*
X110512413Y-67967523D01*
X110512874Y-67966109D01*
X110552197Y-67919056D01*
X110560830Y-67850340D01*
X110530867Y-67787711D01*
X110522197Y-67780200D01*
X110521543Y-67778310D01*
X110522853Y-67776798D01*
X110524618Y-67777025D01*
X110532994Y-67782621D01*
X110590199Y-67794000D01*
X111864801Y-67794000D01*
X111922006Y-67782621D01*
X111939480Y-67770945D01*
X111941476Y-67770814D01*
X111942587Y-67772477D01*
G37*
G36*
X117667587Y-67772477D02*
G01*
X117667126Y-67773891D01*
X117627803Y-67820944D01*
X117619170Y-67889660D01*
X117649133Y-67952289D01*
X117657803Y-67959800D01*
X117658457Y-67961690D01*
X117657147Y-67963202D01*
X117655382Y-67962975D01*
X117647006Y-67957379D01*
X117589801Y-67946000D01*
X116315199Y-67946000D01*
X116257994Y-67957379D01*
X116240520Y-67969055D01*
X116238524Y-67969186D01*
X116237413Y-67967523D01*
X116237874Y-67966109D01*
X116277197Y-67919056D01*
X116285830Y-67850340D01*
X116255867Y-67787711D01*
X116247197Y-67780200D01*
X116246543Y-67778310D01*
X116247853Y-67776798D01*
X116249618Y-67777025D01*
X116257994Y-67782621D01*
X116315199Y-67794000D01*
X117589801Y-67794000D01*
X117647006Y-67782621D01*
X117664480Y-67770945D01*
X117666476Y-67770814D01*
X117667587Y-67772477D01*
G37*
G36*
X117667587Y-67122477D02*
G01*
X117667126Y-67123891D01*
X117627803Y-67170944D01*
X117619170Y-67239660D01*
X117649133Y-67302289D01*
X117657803Y-67309800D01*
X117658457Y-67311690D01*
X117657147Y-67313202D01*
X117655382Y-67312975D01*
X117647006Y-67307379D01*
X117589801Y-67296000D01*
X116315199Y-67296000D01*
X116257994Y-67307379D01*
X116240520Y-67319055D01*
X116238524Y-67319186D01*
X116237413Y-67317523D01*
X116237874Y-67316109D01*
X116277197Y-67269056D01*
X116285830Y-67200340D01*
X116255867Y-67137711D01*
X116247197Y-67130200D01*
X116246543Y-67128310D01*
X116247853Y-67126798D01*
X116249618Y-67127025D01*
X116257994Y-67132621D01*
X116315199Y-67144000D01*
X117589801Y-67144000D01*
X117647006Y-67132621D01*
X117664480Y-67120945D01*
X117666476Y-67120814D01*
X117667587Y-67122477D01*
G37*
G36*
X111942587Y-67122477D02*
G01*
X111942126Y-67123891D01*
X111902803Y-67170944D01*
X111894170Y-67239660D01*
X111924133Y-67302289D01*
X111932803Y-67309800D01*
X111933457Y-67311690D01*
X111932147Y-67313202D01*
X111930382Y-67312975D01*
X111922006Y-67307379D01*
X111864801Y-67296000D01*
X110590199Y-67296000D01*
X110532994Y-67307379D01*
X110515520Y-67319055D01*
X110513524Y-67319186D01*
X110512413Y-67317523D01*
X110512874Y-67316109D01*
X110552197Y-67269056D01*
X110560830Y-67200340D01*
X110530867Y-67137711D01*
X110522197Y-67130200D01*
X110521543Y-67128310D01*
X110522853Y-67126798D01*
X110524618Y-67127025D01*
X110532994Y-67132621D01*
X110590199Y-67144000D01*
X111864801Y-67144000D01*
X111922006Y-67132621D01*
X111939480Y-67120945D01*
X111941476Y-67120814D01*
X111942587Y-67122477D01*
G37*
G36*
X111942587Y-66472477D02*
G01*
X111942126Y-66473891D01*
X111902803Y-66520944D01*
X111894170Y-66589660D01*
X111924133Y-66652289D01*
X111932803Y-66659800D01*
X111933457Y-66661690D01*
X111932147Y-66663202D01*
X111930382Y-66662975D01*
X111922006Y-66657379D01*
X111864801Y-66646000D01*
X110590199Y-66646000D01*
X110532994Y-66657379D01*
X110515520Y-66669055D01*
X110513524Y-66669186D01*
X110512413Y-66667523D01*
X110512874Y-66666109D01*
X110552197Y-66619056D01*
X110560830Y-66550340D01*
X110530867Y-66487711D01*
X110522197Y-66480200D01*
X110521543Y-66478310D01*
X110522853Y-66476798D01*
X110524618Y-66477025D01*
X110532994Y-66482621D01*
X110590199Y-66494000D01*
X111864801Y-66494000D01*
X111922006Y-66482621D01*
X111939480Y-66470945D01*
X111941476Y-66470814D01*
X111942587Y-66472477D01*
G37*
G36*
X117667587Y-66472477D02*
G01*
X117667126Y-66473891D01*
X117627803Y-66520944D01*
X117619170Y-66589660D01*
X117649133Y-66652289D01*
X117657803Y-66659800D01*
X117658457Y-66661690D01*
X117657147Y-66663202D01*
X117655382Y-66662975D01*
X117647006Y-66657379D01*
X117589801Y-66646000D01*
X116315199Y-66646000D01*
X116257994Y-66657379D01*
X116240520Y-66669055D01*
X116238524Y-66669186D01*
X116237413Y-66667523D01*
X116237874Y-66666109D01*
X116277197Y-66619056D01*
X116285830Y-66550340D01*
X116255867Y-66487711D01*
X116247197Y-66480200D01*
X116246543Y-66478310D01*
X116247853Y-66476798D01*
X116249618Y-66477025D01*
X116257994Y-66482621D01*
X116315199Y-66494000D01*
X117589801Y-66494000D01*
X117647006Y-66482621D01*
X117664480Y-66470945D01*
X117666476Y-66470814D01*
X117667587Y-66472477D01*
G37*
M02*
