M48
; DRILL file {KiCad (6.0.2)} date Thu Mar 24 13:41:09 2022
; FORMAT={-:-/ absolute / inch / decimal}
; #@! TF.CreationDate,2022-03-24T13:41:09-04:00
; #@! TF.GenerationSoftware,Kicad,Pcbnew,(6.0.2)
; #@! TF.FileFunction,Plated,1,2,PTH
FMAT,2
INCH
; #@! TA.AperFunction,Plated,PTH,ViaDrill
T1C0.0079
; #@! TA.AperFunction,Plated,PTH,ViaDrill
T2C0.0118
; #@! TA.AperFunction,Plated,PTH,ComponentDrill
T3C0.0118
; #@! TA.AperFunction,Plated,PTH,ViaDrill
T4C0.0157
; #@! TA.AperFunction,Plated,PTH,ComponentDrill
T5C0.0300
; #@! TA.AperFunction,Plated,PTH,ComponentDrill
T6C0.0394
; #@! TA.AperFunction,Plated,PTH,ComponentDrill
T7C0.0402
; #@! TA.AperFunction,Plated,PTH,ComponentDrill
T8C0.1260
%
G90
G05
T1
X4.3241Y-5.189
X4.3298Y-5.245
X4.3406Y-5.3612
X4.3494Y-5.5876
X4.3878Y-5.5876
X4.4843Y-5.3041
X4.4941Y-5.3612
X4.4941Y-5.5148
X4.5492Y-5.487
X4.5492Y-5.5246
X5.4154Y-5.6575
T2
X3.0886Y-4.2638
X3.0965Y-4.4606
X3.1299Y-4.2205
X3.1299Y-4.3071
X3.1398Y-4.4134
X3.1398Y-4.5059
X3.565Y-2.9744
X3.6102Y-2.9291
X3.6102Y-3.0177
X3.7807Y-3.824
X3.7811Y-3.774
X3.9212Y-4.59
X3.9508Y-4.2953
X3.9862Y-4.2559
X4.0122Y-3.774
X4.025Y-4.2953
X4.0276Y-2.9193
X4.0276Y-2.9469
X4.0276Y-2.9744
X4.0276Y-3.002
X4.0276Y-3.0295
X4.0276Y-3.0571
X4.0453Y-3.0906
X4.0728Y-3.0906
X4.084Y-4.489
X4.0925Y-4.5866
X4.1004Y-3.0906
X4.128Y-3.0906
X4.128Y-4.3504
X4.128Y-4.687
X4.148Y-4.853
X4.1555Y-3.0906
X4.1831Y-3.0906
X4.374Y-4.8
X4.376Y-2.5728
X4.4039Y-4.826
X4.4291Y-2.6083
X4.585Y-4.371
X4.6417Y-2.878
X4.6417Y-3.0098
X4.6535Y-4.6142
X4.6693Y-2.5551
X4.7067Y-3.0256
X4.7087Y-2.5138
X4.7382Y-2.5689
X4.748Y-2.9783
X4.7815Y-2.5295
X4.7913Y-3.0256
X4.8248Y-2.5689
X4.95Y-4.119
X4.9823Y-5.5797
X4.9843Y-5.0591
X5.1028Y-4.319
X5.381Y-5.586
X5.467Y-5.426
X5.506Y-5.586
X5.637Y-5.585
X6.5925Y-4.3829
X6.5925Y-4.4774
X6.6634Y-4.374
T3
X3.7532Y-3.0537
X3.7532Y-3.097
X3.7532Y-3.1482
X3.7532Y-3.1955
X3.8005Y-3.0537
X3.8005Y-3.097
X3.8005Y-3.1482
X3.8005Y-3.1955
T4
X4.311Y-3.4744
X4.4163Y-4.3907
X5.1024Y-4.0591
X5.1909Y-4.1181
T5
X3.1394Y-4.8492
X3.1394Y-4.9492
X3.1394Y-5.0492
X3.1394Y-5.1492
X3.1394Y-5.2492
X3.1394Y-5.3492
X3.1394Y-5.4492
X3.1394Y-5.5492
X3.2394Y-4.8492
X3.2394Y-4.9492
X3.2394Y-5.0492
X3.2394Y-5.1492
X3.2394Y-5.2492
X3.2394Y-5.3492
X3.2394Y-5.4492
X3.2394Y-5.5492
T6
X4.1673Y-5.8858
X4.2219Y-5.9976
X4.2764Y-5.8858
X4.3309Y-5.9976
X4.3854Y-5.8858
X4.44Y-5.9976
X4.4945Y-5.8858
X4.549Y-5.9976
X4.6035Y-5.8858
X4.6581Y-5.9976
X4.7126Y-5.8858
X4.7671Y-5.9976
X4.8217Y-5.8858
X4.8762Y-5.9976
X4.9307Y-5.8858
X4.9852Y-5.9976
X5.0394Y-3.2697
X5.0394Y-3.3697
X5.0394Y-3.4697
X5.0394Y-3.5697
X5.0394Y-3.6697
X5.0398Y-5.8858
X5.0943Y-5.9976
X5.1488Y-5.8858
X5.2033Y-5.9976
X5.2579Y-5.8858
X5.3124Y-5.9976
X5.3669Y-5.8858
X5.4215Y-5.9976
X5.476Y-5.8858
X5.5305Y-5.9976
X5.585Y-5.8858
X5.6396Y-5.9976
X5.6941Y-5.8858
X5.7486Y-5.9976
X5.8031Y-5.8858
X5.8577Y-5.9976
X5.9122Y-5.8858
X5.9667Y-5.9976
X6.0213Y-5.8858
X6.0758Y-5.9976
X6.1303Y-5.8858
T7
X3.3251Y-2.9134
X3.3251Y-3.0315
X3.3251Y-3.1496
X3.3251Y-3.2677
X3.3251Y-3.3858
X3.3251Y-3.5039
X3.3251Y-3.622
X3.3251Y-3.7402
X3.3251Y-3.8583
X3.4528Y-5.9262
X3.5709Y-5.9262
X6.5185Y-2.9134
X6.5185Y-3.0315
X6.5185Y-3.1496
X6.5185Y-3.2677
X6.5185Y-3.3858
X6.5185Y-3.5039
X6.5185Y-3.622
X6.5185Y-3.7402
X6.5185Y-3.8583
T8
X3.8988Y-5.9417
X6.3988Y-5.9417
T0
M30
