%TF.GenerationSoftware,KiCad,Pcbnew,(6.0.2)*%
%TF.CreationDate,2022-03-24T13:41:09-04:00*%
%TF.ProjectId,MC_Telem,4d435f54-656c-4656-9d2e-6b696361645f,rev?*%
%TF.SameCoordinates,Original*%
%TF.FileFunction,Paste,Top*%
%TF.FilePolarity,Positive*%
%FSLAX46Y46*%
G04 Gerber Fmt 4.6, Leading zero omitted, Abs format (unit mm)*
G04 Created by KiCad (PCBNEW (6.0.2)) date 2022-03-24 13:41:09*
%MOMM*%
%LPD*%
G01*
G04 APERTURE LIST*
G04 Aperture macros list*
%AMRoundRect*
0 Rectangle with rounded corners*
0 $1 Rounding radius*
0 $2 $3 $4 $5 $6 $7 $8 $9 X,Y pos of 4 corners*
0 Add a 4 corners polygon primitive as box body*
4,1,4,$2,$3,$4,$5,$6,$7,$8,$9,$2,$3,0*
0 Add four circle primitives for the rounded corners*
1,1,$1+$1,$2,$3*
1,1,$1+$1,$4,$5*
1,1,$1+$1,$6,$7*
1,1,$1+$1,$8,$9*
0 Add four rect primitives between the rounded corners*
20,1,$1+$1,$2,$3,$4,$5,0*
20,1,$1+$1,$4,$5,$6,$7,0*
20,1,$1+$1,$6,$7,$8,$9,0*
20,1,$1+$1,$8,$9,$2,$3,0*%
G04 Aperture macros list end*
%ADD10RoundRect,0.140000X0.140000X0.170000X-0.140000X0.170000X-0.140000X-0.170000X0.140000X-0.170000X0*%
%ADD11RoundRect,0.140000X0.170000X-0.140000X0.170000X0.140000X-0.170000X0.140000X-0.170000X-0.140000X0*%
%ADD12RoundRect,0.250000X1.000000X-1.750000X1.000000X1.750000X-1.000000X1.750000X-1.000000X-1.750000X0*%
%ADD13RoundRect,0.140000X-0.170000X0.140000X-0.170000X-0.140000X0.170000X-0.140000X0.170000X0.140000X0*%
%ADD14RoundRect,0.140000X-0.140000X-0.170000X0.140000X-0.170000X0.140000X0.170000X-0.140000X0.170000X0*%
%ADD15R,2.400000X0.740000*%
%ADD16R,1.380000X0.450000*%
%ADD17R,1.900000X1.000000*%
%ADD18R,1.300000X1.650000*%
%ADD19R,1.550000X1.425000*%
%ADD20R,1.900000X1.800000*%
%ADD21RoundRect,0.150000X-0.587500X-0.150000X0.587500X-0.150000X0.587500X0.150000X-0.587500X0.150000X0*%
%ADD22RoundRect,0.200000X-0.275000X0.200000X-0.275000X-0.200000X0.275000X-0.200000X0.275000X0.200000X0*%
%ADD23RoundRect,0.200000X0.200000X0.275000X-0.200000X0.275000X-0.200000X-0.275000X0.200000X-0.275000X0*%
%ADD24RoundRect,0.200000X0.275000X-0.200000X0.275000X0.200000X-0.275000X0.200000X-0.275000X-0.200000X0*%
%ADD25RoundRect,0.200000X-0.200000X-0.275000X0.200000X-0.275000X0.200000X0.275000X-0.200000X0.275000X0*%
%ADD26RoundRect,0.075000X-0.700000X-0.075000X0.700000X-0.075000X0.700000X0.075000X-0.700000X0.075000X0*%
%ADD27RoundRect,0.075000X-0.075000X-0.700000X0.075000X-0.700000X0.075000X0.700000X-0.075000X0.700000X0*%
%ADD28R,1.400000X0.600000*%
%ADD29R,1.550000X0.600000*%
%ADD30R,2.600000X3.100000*%
%ADD31R,0.400000X1.500000*%
%ADD32RoundRect,0.243750X-0.456250X0.243750X-0.456250X-0.243750X0.456250X-0.243750X0.456250X0.243750X0*%
%ADD33RoundRect,0.100000X0.637500X0.100000X-0.637500X0.100000X-0.637500X-0.100000X0.637500X-0.100000X0*%
%ADD34R,1.500000X2.000000*%
%ADD35R,3.800000X2.000000*%
%ADD36RoundRect,0.218750X-0.218750X-0.256250X0.218750X-0.256250X0.218750X0.256250X-0.218750X0.256250X0*%
%ADD37RoundRect,0.243750X-0.243750X-0.456250X0.243750X-0.456250X0.243750X0.456250X-0.243750X0.456250X0*%
%ADD38RoundRect,0.243750X0.243750X0.456250X-0.243750X0.456250X-0.243750X-0.456250X0.243750X-0.456250X0*%
%ADD39RoundRect,0.150000X0.150000X-0.587500X0.150000X0.587500X-0.150000X0.587500X-0.150000X-0.587500X0*%
%ADD40R,2.500000X1.800000*%
%ADD41R,2.500000X3.600000*%
%ADD42RoundRect,0.075000X-0.350000X-0.075000X0.350000X-0.075000X0.350000X0.075000X-0.350000X0.075000X0*%
%ADD43RoundRect,0.075000X0.075000X-0.350000X0.075000X0.350000X-0.075000X0.350000X-0.075000X-0.350000X0*%
G04 APERTURE END LIST*
D10*
%TO.C,C1*%
X94505000Y-92600000D03*
X93545000Y-92600000D03*
%TD*%
%TO.C,C2*%
X89705260Y-96500000D03*
X88745260Y-96500000D03*
%TD*%
D11*
%TO.C,C3*%
X98625000Y-83965000D03*
X98625000Y-83005000D03*
%TD*%
%TO.C,C4*%
X90900000Y-79935000D03*
X90900000Y-78975000D03*
%TD*%
D12*
%TO.C,C5*%
X104300000Y-81850000D03*
X104300000Y-75750000D03*
%TD*%
D13*
%TO.C,C6*%
X111000000Y-74905000D03*
X111000000Y-75865000D03*
%TD*%
%TO.C,C7*%
X115600000Y-83820000D03*
X115600000Y-84780000D03*
%TD*%
D10*
%TO.C,C8*%
X102230000Y-109100000D03*
X101270000Y-109100000D03*
%TD*%
%TO.C,C9*%
X99593200Y-116586000D03*
X98633200Y-116586000D03*
%TD*%
D14*
%TO.C,C10*%
X111864200Y-122580400D03*
X112824200Y-122580400D03*
%TD*%
%TO.C,C11*%
X116464000Y-111023400D03*
X117424000Y-111023400D03*
%TD*%
D10*
%TO.C,C13*%
X105354200Y-123266200D03*
X104394200Y-123266200D03*
%TD*%
D13*
%TO.C,C18*%
X101910000Y-95865000D03*
X101910000Y-96825000D03*
%TD*%
D15*
%TO.C,J1*%
X129610400Y-109702600D03*
X125710400Y-109702600D03*
X129610400Y-108432600D03*
X125710400Y-108432600D03*
X129610400Y-107162600D03*
X125710400Y-107162600D03*
X129610400Y-105892600D03*
X125710400Y-105892600D03*
X129610400Y-104622600D03*
X125710400Y-104622600D03*
%TD*%
D16*
%TO.C,J2*%
X170830000Y-113720000D03*
X170830000Y-113070000D03*
X170830000Y-112420000D03*
X170830000Y-111770000D03*
X170830000Y-111120000D03*
D17*
X173490000Y-110870000D03*
D18*
X173490000Y-115795000D03*
D19*
X170915000Y-109932500D03*
X170915000Y-114907500D03*
D18*
X173490000Y-109045000D03*
D20*
X173490000Y-113570000D03*
%TD*%
D21*
%TO.C,Q1*%
X122658900Y-139766000D03*
X122658900Y-141666000D03*
X124533900Y-140716000D03*
%TD*%
D22*
%TO.C,R9*%
X119380000Y-68162500D03*
X119380000Y-69812500D03*
%TD*%
D23*
%TO.C,R11*%
X91325000Y-95000000D03*
X89675000Y-95000000D03*
%TD*%
D24*
%TO.C,R13*%
X121453600Y-66892400D03*
X121453600Y-65242400D03*
%TD*%
D25*
%TO.C,R14*%
X117002500Y-63850000D03*
X118652500Y-63850000D03*
%TD*%
D24*
%TO.C,R16*%
X120612000Y-78464400D03*
X120612000Y-76814400D03*
%TD*%
D23*
%TO.C,R17*%
X96454500Y-75549600D03*
X94804500Y-75549600D03*
%TD*%
%TO.C,R18*%
X93305100Y-75549600D03*
X91655100Y-75549600D03*
%TD*%
D26*
%TO.C,U1*%
X102431000Y-111022400D03*
X102431000Y-111522400D03*
X102431000Y-112022400D03*
X102431000Y-112522400D03*
X102431000Y-113022400D03*
X102431000Y-113522400D03*
X102431000Y-114022400D03*
X102431000Y-114522400D03*
X102431000Y-115022400D03*
X102431000Y-115522400D03*
X102431000Y-116022400D03*
X102431000Y-116522400D03*
X102431000Y-117022400D03*
X102431000Y-117522400D03*
X102431000Y-118022400D03*
X102431000Y-118522400D03*
D27*
X104356000Y-120447400D03*
X104856000Y-120447400D03*
X105356000Y-120447400D03*
X105856000Y-120447400D03*
X106356000Y-120447400D03*
X106856000Y-120447400D03*
X107356000Y-120447400D03*
X107856000Y-120447400D03*
X108356000Y-120447400D03*
X108856000Y-120447400D03*
X109356000Y-120447400D03*
X109856000Y-120447400D03*
X110356000Y-120447400D03*
X110856000Y-120447400D03*
X111356000Y-120447400D03*
X111856000Y-120447400D03*
D26*
X113781000Y-118522400D03*
X113781000Y-118022400D03*
X113781000Y-117522400D03*
X113781000Y-117022400D03*
X113781000Y-116522400D03*
X113781000Y-116022400D03*
X113781000Y-115522400D03*
X113781000Y-115022400D03*
X113781000Y-114522400D03*
X113781000Y-114022400D03*
X113781000Y-113522400D03*
X113781000Y-113022400D03*
X113781000Y-112522400D03*
X113781000Y-112022400D03*
X113781000Y-111522400D03*
X113781000Y-111022400D03*
D27*
X111856000Y-109097400D03*
X111356000Y-109097400D03*
X110856000Y-109097400D03*
X110356000Y-109097400D03*
X109856000Y-109097400D03*
X109356000Y-109097400D03*
X108856000Y-109097400D03*
X108356000Y-109097400D03*
X107856000Y-109097400D03*
X107356000Y-109097400D03*
X106856000Y-109097400D03*
X106356000Y-109097400D03*
X105856000Y-109097400D03*
X105356000Y-109097400D03*
X104856000Y-109097400D03*
X104356000Y-109097400D03*
%TD*%
D28*
%TO.C,U3*%
X100016760Y-98399600D03*
X100016760Y-97129600D03*
X100016760Y-95859600D03*
X100016760Y-94589600D03*
X94516760Y-94589600D03*
X94516760Y-95859600D03*
X94516760Y-97129600D03*
X94516760Y-98399600D03*
%TD*%
D29*
%TO.C,U5*%
X98632200Y-81270000D03*
X98632200Y-80000000D03*
X98632200Y-78730000D03*
X98632200Y-77460000D03*
X93232200Y-77460000D03*
X93232200Y-78730000D03*
X93232200Y-80000000D03*
X93232200Y-81270000D03*
D30*
X95932200Y-79365000D03*
%TD*%
D31*
%TO.C,U8*%
X138861800Y-139224400D03*
X138211800Y-139224400D03*
X137561800Y-139224400D03*
X137561800Y-141884400D03*
X138211800Y-141884400D03*
X138861800Y-141884400D03*
%TD*%
D32*
%TO.C,D3*%
X120612000Y-80997200D03*
X120612000Y-82872200D03*
%TD*%
D33*
%TO.C,U2*%
X116952500Y-68195000D03*
X116952500Y-67545000D03*
X116952500Y-66895000D03*
X116952500Y-66245000D03*
X111227500Y-66245000D03*
X111227500Y-66895000D03*
X111227500Y-67545000D03*
X111227500Y-68195000D03*
%TD*%
D24*
%TO.C,R10*%
X121450000Y-70797500D03*
X121450000Y-69147500D03*
%TD*%
D34*
%TO.C,U4*%
X117900000Y-74900000D03*
D35*
X115600000Y-81200000D03*
D34*
X115600000Y-74900000D03*
X113300000Y-74900000D03*
%TD*%
D25*
%TO.C,R1*%
X79743700Y-113284000D03*
X81393700Y-113284000D03*
%TD*%
%TO.C,R2*%
X79489700Y-108331000D03*
X81139700Y-108331000D03*
%TD*%
D36*
%TO.C,D2*%
X84225301Y-108346001D03*
X85800301Y-108346001D03*
%TD*%
D37*
%TO.C,D1*%
X84028200Y-113284000D03*
X85903200Y-113284000D03*
%TD*%
D31*
%TO.C,U7*%
X142087600Y-139224400D03*
X141437600Y-139224400D03*
X140787600Y-139224400D03*
X140787600Y-141884400D03*
X141437600Y-141884400D03*
X142087600Y-141884400D03*
%TD*%
D38*
%TO.C,D5*%
X154350800Y-141173200D03*
X152475800Y-141173200D03*
%TD*%
D23*
%TO.C,R3*%
X158584500Y-141173200D03*
X156934500Y-141173200D03*
%TD*%
D39*
%TO.C,Q2*%
X126550000Y-141662900D03*
X128450000Y-141662900D03*
X127500000Y-139787900D03*
%TD*%
D23*
%TO.C,R12*%
X91325000Y-98000000D03*
X89675000Y-98000000D03*
%TD*%
D40*
%TO.C,D4*%
X92100000Y-84000000D03*
X96100000Y-84000000D03*
%TD*%
D41*
%TO.C,L1*%
X104100000Y-87820000D03*
X99400000Y-87820000D03*
%TD*%
D10*
%TO.C,C12*%
X104345000Y-107250000D03*
X103385000Y-107250000D03*
%TD*%
D22*
%TO.C,R15*%
X98600000Y-73887500D03*
X98600000Y-75537500D03*
%TD*%
D23*
%TO.C,R20*%
X113075000Y-133220000D03*
X111425000Y-133220000D03*
%TD*%
D13*
%TO.C,C19*%
X140800000Y-143700000D03*
X140800000Y-144660000D03*
%TD*%
%TO.C,C20*%
X137550000Y-143690000D03*
X137550000Y-144650000D03*
%TD*%
D11*
%TO.C,C14*%
X115550000Y-140330000D03*
X115550000Y-139370000D03*
%TD*%
D14*
%TO.C,C16*%
X112820000Y-141450000D03*
X113780000Y-141450000D03*
%TD*%
D10*
%TO.C,C15*%
X111450000Y-141925000D03*
X110490000Y-141925000D03*
%TD*%
D25*
%TO.C,R19*%
X108325000Y-133220000D03*
X109975000Y-133220000D03*
%TD*%
D14*
%TO.C,C17*%
X112950000Y-134720000D03*
X113910000Y-134720000D03*
%TD*%
D42*
%TO.C,U6*%
X110250000Y-136870000D03*
X110250000Y-137370000D03*
X110250000Y-137870000D03*
X110250000Y-138370000D03*
X110250000Y-138870000D03*
X110250000Y-139370000D03*
D43*
X110950000Y-140070000D03*
X111450000Y-140070000D03*
X111950000Y-140070000D03*
X112450000Y-140070000D03*
X112950000Y-140070000D03*
X113450000Y-140070000D03*
D42*
X114150000Y-139370000D03*
X114150000Y-138870000D03*
X114150000Y-138370000D03*
X114150000Y-137870000D03*
X114150000Y-137370000D03*
X114150000Y-136870000D03*
D43*
X113450000Y-136170000D03*
X112950000Y-136170000D03*
X112450000Y-136170000D03*
X111950000Y-136170000D03*
X111450000Y-136170000D03*
X110950000Y-136170000D03*
%TD*%
M02*
