%TF.GenerationSoftware,KiCad,Pcbnew,(6.0.2)*%
%TF.CreationDate,2022-03-24T13:41:09-04:00*%
%TF.ProjectId,MC_Telem,4d435f54-656c-4656-9d2e-6b696361645f,rev?*%
%TF.SameCoordinates,Original*%
%TF.FileFunction,Soldermask,Bot*%
%TF.FilePolarity,Negative*%
%FSLAX46Y46*%
G04 Gerber Fmt 4.6, Leading zero omitted, Abs format (unit mm)*
G04 Created by KiCad (PCBNEW (6.0.2)) date 2022-03-24 13:41:09*
%MOMM*%
%LPD*%
G01*
G04 APERTURE LIST*
G04 Aperture macros list*
%AMRoundRect*
0 Rectangle with rounded corners*
0 $1 Rounding radius*
0 $2 $3 $4 $5 $6 $7 $8 $9 X,Y pos of 4 corners*
0 Add a 4 corners polygon primitive as box body*
4,1,4,$2,$3,$4,$5,$6,$7,$8,$9,$2,$3,0*
0 Add four circle primitives for the rounded corners*
1,1,$1+$1,$2,$3*
1,1,$1+$1,$4,$5*
1,1,$1+$1,$6,$7*
1,1,$1+$1,$8,$9*
0 Add four rect primitives between the rounded corners*
20,1,$1+$1,$2,$3,$4,$5,0*
20,1,$1+$1,$4,$5,$6,$7,0*
20,1,$1+$1,$6,$7,$8,$9,0*
20,1,$1+$1,$8,$9,$2,$3,0*%
G04 Aperture macros list end*
%ADD10C,3.302000*%
%ADD11C,3.102000*%
%ADD12RoundRect,0.301001X0.759999X-0.499999X0.759999X0.499999X-0.759999X0.499999X-0.759999X-0.499999X0*%
%ADD13O,2.122000X1.602000*%
%ADD14RoundRect,0.301001X0.499999X0.759999X-0.499999X0.759999X-0.499999X-0.759999X0.499999X-0.759999X0*%
%ADD15O,1.602000X2.122000*%
%ADD16RoundRect,0.051000X-0.850000X-0.850000X0.850000X-0.850000X0.850000X0.850000X-0.850000X0.850000X0*%
%ADD17O,1.802000X1.802000*%
%ADD18C,2.802000*%
%ADD19RoundRect,0.432000X0.381000X-0.381000X0.381000X0.381000X-0.381000X0.381000X-0.381000X-0.381000X0*%
%ADD20C,1.626000*%
%ADD21RoundRect,0.301001X-0.759999X0.499999X-0.759999X-0.499999X0.759999X-0.499999X0.759999X0.499999X0*%
%ADD22C,4.102000*%
%ADD23RoundRect,0.051000X-0.800000X-0.800000X0.800000X-0.800000X0.800000X0.800000X-0.800000X0.800000X0*%
%ADD24C,1.702000*%
G04 APERTURE END LIST*
D10*
%TO.C,H1*%
X80000000Y-65000000D03*
%TD*%
%TO.C,H2*%
X170000000Y-65000000D03*
%TD*%
%TO.C,H4*%
X170000000Y-155000000D03*
%TD*%
D11*
%TO.C,J4*%
X80137000Y-76150000D03*
X80137000Y-95850000D03*
D12*
X84457000Y-98000000D03*
D13*
X84457000Y-95000000D03*
X84457000Y-92000000D03*
X84457000Y-89000000D03*
X84457000Y-86000000D03*
X84457000Y-83000000D03*
X84457000Y-80000000D03*
X84457000Y-77000000D03*
X84457000Y-74000000D03*
%TD*%
D11*
%TO.C,J8*%
X89200000Y-154845000D03*
D14*
X90700000Y-150525000D03*
D15*
X87700000Y-150525000D03*
%TD*%
D16*
%TO.C,J9*%
X128000000Y-83050000D03*
D17*
X128000000Y-85590000D03*
X128000000Y-88130000D03*
X128000000Y-90670000D03*
X128000000Y-93210000D03*
%TD*%
D18*
%TO.C,U9*%
X81820000Y-118989800D03*
X81820000Y-144989800D03*
X43620000Y-131989800D03*
D19*
X82280000Y-140949800D03*
D20*
X79740000Y-140949800D03*
X82280000Y-138409800D03*
X79740000Y-138409800D03*
X82280000Y-135869800D03*
X79740000Y-135869800D03*
X82280000Y-133329800D03*
X79740000Y-133329800D03*
X82280000Y-130789800D03*
X79740000Y-130789800D03*
X82280000Y-128249800D03*
X79740000Y-128249800D03*
X82280000Y-125709800D03*
X79740000Y-125709800D03*
X82280000Y-123169800D03*
X79740000Y-123169800D03*
%TD*%
D11*
%TO.C,J3*%
X169890000Y-76150000D03*
X169890000Y-95850000D03*
D21*
X165570000Y-74000000D03*
D13*
X165570000Y-77000000D03*
X165570000Y-80000000D03*
X165570000Y-83000000D03*
X165570000Y-86000000D03*
X165570000Y-89000000D03*
X165570000Y-92000000D03*
X165570000Y-95000000D03*
X165570000Y-98000000D03*
%TD*%
D10*
%TO.C,H3*%
X80000000Y-155000000D03*
%TD*%
D22*
%TO.C,J7*%
X162530000Y-150920000D03*
X99030000Y-150920000D03*
D23*
X105850000Y-149500000D03*
D24*
X108620000Y-149500000D03*
X111390000Y-149500000D03*
X114160000Y-149500000D03*
X116930000Y-149500000D03*
X119700000Y-149500000D03*
X122470000Y-149500000D03*
X125240000Y-149500000D03*
X128010000Y-149500000D03*
X130780000Y-149500000D03*
X133550000Y-149500000D03*
X136320000Y-149500000D03*
X139090000Y-149500000D03*
X141860000Y-149500000D03*
X144630000Y-149500000D03*
X147400000Y-149500000D03*
X150170000Y-149500000D03*
X152940000Y-149500000D03*
X155710000Y-149500000D03*
X107235000Y-152340000D03*
X110005000Y-152340000D03*
X112775000Y-152340000D03*
X115545000Y-152340000D03*
X118315000Y-152340000D03*
X121085000Y-152340000D03*
X123855000Y-152340000D03*
X126625000Y-152340000D03*
X129395000Y-152340000D03*
X132165000Y-152340000D03*
X134935000Y-152340000D03*
X137705000Y-152340000D03*
X140475000Y-152340000D03*
X143245000Y-152340000D03*
X146015000Y-152340000D03*
X148785000Y-152340000D03*
X151555000Y-152340000D03*
X154325000Y-152340000D03*
%TD*%
M02*
