%FSLAX45Y45*%
G04 Gerber Fmt 4.5, Leading zero omitted, Abs format (unit mm)*
G04 Created by KiCad (PCBNEW (5.1.4)-1) date 2021-11-30 13:29:08*
%MOMM*%
%LPD*%
G04 APERTURE LIST*
%ADD10C,0.050000*%
%ADD11C,0.200000*%
%ADD12C,0.300000*%
G04 APERTURE END LIST*
D10*
X17500000Y-16000000D02*
X7500000Y-16000000D01*
X17500000Y-6000000D02*
X17500000Y-16000000D01*
X7500000Y-6000000D02*
X17500000Y-6000000D01*
X7500000Y-16000000D02*
X7500000Y-6000000D01*
D11*
X7830000Y-10815000D02*
X7860000Y-10845000D01*
X7860000Y-10815000D02*
X7830000Y-10845000D01*
X7850000Y-11315000D02*
X7880000Y-11345000D01*
X7880000Y-11315000D02*
X7850000Y-11345000D01*
X7935000Y-10705000D02*
X7965000Y-10735000D01*
X7965000Y-10705000D02*
X7935000Y-10735000D01*
X7935000Y-10925000D02*
X7965000Y-10955000D01*
X7965000Y-10925000D02*
X7935000Y-10955000D01*
X7960000Y-11195000D02*
X7990000Y-11225000D01*
X7990000Y-11195000D02*
X7960000Y-11225000D01*
X7960000Y-11430000D02*
X7990000Y-11460000D01*
X7990000Y-11430000D02*
X7960000Y-11460000D01*
X9040000Y-7540000D02*
X9070000Y-7570000D01*
X9070000Y-7540000D02*
X9040000Y-7570000D01*
X9155000Y-7425000D02*
X9185000Y-7455000D01*
X9185000Y-7425000D02*
X9155000Y-7455000D01*
X9155000Y-7650000D02*
X9185000Y-7680000D01*
X9185000Y-7650000D02*
X9155000Y-7680000D01*
X9588000Y-9698000D02*
X9618000Y-9728000D01*
X9618000Y-9698000D02*
X9588000Y-9728000D01*
X9589000Y-9571000D02*
X9619000Y-9601000D01*
X9619000Y-9571000D02*
X9589000Y-9601000D01*
X9944820Y-11643598D02*
X9974820Y-11673598D01*
X9974820Y-11643598D02*
X9944820Y-11673598D01*
X10020000Y-10895000D02*
X10050000Y-10925000D01*
X10050000Y-10895000D02*
X10020000Y-10925000D01*
X10110000Y-10795000D02*
X10140000Y-10825000D01*
X10140000Y-10795000D02*
X10110000Y-10825000D01*
X10176000Y-9571000D02*
X10206000Y-9601000D01*
X10206000Y-9571000D02*
X10176000Y-9601000D01*
X10208500Y-10895000D02*
X10238500Y-10925000D01*
X10238500Y-10895000D02*
X10208500Y-10925000D01*
X10215000Y-7400000D02*
X10245000Y-7430000D01*
X10245000Y-7400000D02*
X10215000Y-7430000D01*
X10215000Y-7470000D02*
X10245000Y-7500000D01*
X10245000Y-7470000D02*
X10215000Y-7500000D01*
X10215000Y-7540000D02*
X10245000Y-7570000D01*
X10245000Y-7540000D02*
X10215000Y-7570000D01*
X10215000Y-7610000D02*
X10245000Y-7640000D01*
X10245000Y-7610000D02*
X10215000Y-7640000D01*
X10215000Y-7680000D02*
X10245000Y-7710000D01*
X10245000Y-7680000D02*
X10215000Y-7710000D01*
X10215000Y-7750000D02*
X10245000Y-7780000D01*
X10245000Y-7750000D02*
X10215000Y-7780000D01*
X10260000Y-7835000D02*
X10290000Y-7865000D01*
X10290000Y-7835000D02*
X10260000Y-7865000D01*
X10330000Y-7835000D02*
X10360000Y-7865000D01*
X10360000Y-7835000D02*
X10330000Y-7865000D01*
X10358360Y-11387060D02*
X10388360Y-11417060D01*
X10388360Y-11387060D02*
X10358360Y-11417060D01*
X10380000Y-11635000D02*
X10410000Y-11665000D01*
X10410000Y-11635000D02*
X10380000Y-11665000D01*
X10400000Y-7835000D02*
X10430000Y-7865000D01*
X10430000Y-7835000D02*
X10400000Y-7865000D01*
X10470000Y-7835000D02*
X10500000Y-7865000D01*
X10500000Y-7835000D02*
X10470000Y-7865000D01*
X10470000Y-11035000D02*
X10500000Y-11065000D01*
X10500000Y-11035000D02*
X10470000Y-11065000D01*
X10470000Y-11890000D02*
X10500000Y-11920000D01*
X10500000Y-11890000D02*
X10470000Y-11920000D01*
X10520920Y-12311620D02*
X10550920Y-12341620D01*
X10550920Y-12311620D02*
X10520920Y-12341620D01*
X10540000Y-7835000D02*
X10570000Y-7865000D01*
X10570000Y-7835000D02*
X10540000Y-7865000D01*
X10610000Y-7835000D02*
X10640000Y-7865000D01*
X10640000Y-7835000D02*
X10610000Y-7865000D01*
X10815000Y-13395000D02*
X10845000Y-13425000D01*
X10845000Y-13395000D02*
X10815000Y-13425000D01*
X10970500Y-12814540D02*
X11000500Y-12844540D01*
X11000500Y-12814540D02*
X10970500Y-12844540D01*
X11011140Y-13048220D02*
X11041140Y-13078220D01*
X11041140Y-13048220D02*
X11011140Y-13078220D01*
X11036776Y-13896580D02*
X11066776Y-13926580D01*
X11066776Y-13896580D02*
X11036776Y-13926580D01*
X11094960Y-12177000D02*
X11124960Y-12207000D01*
X11124960Y-12177000D02*
X11094960Y-12207000D01*
X11100000Y-6520000D02*
X11130000Y-6550000D01*
X11130000Y-6520000D02*
X11100000Y-6550000D01*
X11170920Y-12243040D02*
X11200920Y-12273040D01*
X11200920Y-12243040D02*
X11170920Y-12273040D01*
X11235000Y-6610000D02*
X11265000Y-6640000D01*
X11265000Y-6610000D02*
X11235000Y-6640000D01*
X11346420Y-13812760D02*
X11376420Y-13842760D01*
X11376420Y-13812760D02*
X11346420Y-13842760D01*
X11356580Y-13154900D02*
X11386580Y-13184900D01*
X11386580Y-13154900D02*
X11356580Y-13184900D01*
X11380000Y-13310000D02*
X11410000Y-13340000D01*
X11410000Y-13310000D02*
X11380000Y-13340000D01*
X11490000Y-13395000D02*
X11520000Y-13425000D01*
X11520000Y-13395000D02*
X11490000Y-13425000D01*
X11615660Y-13647420D02*
X11645660Y-13677420D01*
X11645660Y-13647420D02*
X11615660Y-13677420D01*
X11630900Y-11087340D02*
X11660900Y-11117340D01*
X11660900Y-11087340D02*
X11630900Y-11117340D01*
X11775000Y-7295000D02*
X11805000Y-7325000D01*
X11805000Y-7295000D02*
X11775000Y-7325000D01*
X11775000Y-7630000D02*
X11805000Y-7660000D01*
X11805000Y-7630000D02*
X11775000Y-7660000D01*
X11805001Y-11705000D02*
X11835001Y-11735000D01*
X11835001Y-11705000D02*
X11805001Y-11735000D01*
X11845000Y-6475000D02*
X11875000Y-6505000D01*
X11875000Y-6475000D02*
X11845000Y-6505000D01*
X11940000Y-7670000D02*
X11970000Y-7700000D01*
X11970000Y-7670000D02*
X11940000Y-7700000D01*
X11945000Y-6370000D02*
X11975000Y-6400000D01*
X11975000Y-6370000D02*
X11945000Y-6400000D01*
X12020000Y-6510000D02*
X12050000Y-6540000D01*
X12050000Y-6510000D02*
X12020000Y-6540000D01*
X12045000Y-7550000D02*
X12075000Y-7580000D01*
X12075000Y-7550000D02*
X12045000Y-7580000D01*
X12130000Y-6410000D02*
X12160000Y-6440000D01*
X12160000Y-6410000D02*
X12130000Y-6440000D01*
X12155000Y-7670000D02*
X12185000Y-7700000D01*
X12185000Y-7670000D02*
X12155000Y-7700000D01*
X12240000Y-6510000D02*
X12270000Y-6540000D01*
X12270000Y-6510000D02*
X12240000Y-6540000D01*
X12558000Y-10447260D02*
X12588000Y-10477260D01*
X12588000Y-10447260D02*
X12558000Y-10477260D01*
X12640000Y-14157540D02*
X12670000Y-14187540D01*
X12670000Y-14157540D02*
X12640000Y-14187540D01*
X12645000Y-12835000D02*
X12675000Y-12865000D01*
X12675000Y-12835000D02*
X12645000Y-12865000D01*
X12946040Y-10955260D02*
X12976040Y-10985260D01*
X12976040Y-10955260D02*
X12946040Y-10985260D01*
X13102500Y-14572500D02*
X13132500Y-14602500D01*
X13132500Y-14572500D02*
X13102500Y-14602500D01*
X13652740Y-14173440D02*
X13682740Y-14203440D01*
X13682740Y-14173440D02*
X13652740Y-14203440D01*
X13871180Y-13767040D02*
X13901180Y-13797040D01*
X13901180Y-13767040D02*
X13871180Y-13797040D01*
X13970240Y-14173440D02*
X14000240Y-14203440D01*
X14000240Y-14173440D02*
X13970240Y-14203440D01*
X14195000Y-14352500D02*
X14225000Y-14382500D01*
X14225000Y-14352500D02*
X14195000Y-14382500D01*
X14302980Y-14170900D02*
X14332980Y-14200900D01*
X14332980Y-14170900D02*
X14302980Y-14200900D01*
X16730000Y-11117500D02*
X16760000Y-11147500D01*
X16760000Y-11117500D02*
X16730000Y-11147500D01*
X16730000Y-11357500D02*
X16760000Y-11387500D01*
X16760000Y-11357500D02*
X16730000Y-11387500D01*
X16910000Y-11095000D02*
X16940000Y-11125000D01*
X16940000Y-11095000D02*
X16910000Y-11125000D01*
X9518220Y-7741500D02*
X9548220Y-7771500D01*
X9548220Y-7741500D02*
X9518220Y-7771500D01*
X9518220Y-7851500D02*
X9548220Y-7881500D01*
X9548220Y-7851500D02*
X9518220Y-7881500D01*
X9518220Y-7981500D02*
X9548220Y-8011500D01*
X9548220Y-7981500D02*
X9518220Y-8011500D01*
X9518220Y-8101500D02*
X9548220Y-8131500D01*
X9548220Y-8101500D02*
X9518220Y-8131500D01*
X9638220Y-7741500D02*
X9668220Y-7771500D01*
X9668220Y-7741500D02*
X9638220Y-7771500D01*
X9638220Y-7851500D02*
X9668220Y-7881500D01*
X9668220Y-7851500D02*
X9638220Y-7881500D01*
X9638220Y-7981500D02*
X9668220Y-8011500D01*
X9668220Y-7981500D02*
X9638220Y-8011500D01*
X9638220Y-8101500D02*
X9668220Y-8131500D01*
X9668220Y-8101500D02*
X9638220Y-8131500D01*
X10970000Y-8825000D02*
G75*
G03X10970000Y-8825000I-20000J0D01*
G01*
X11237500Y-11152500D02*
G75*
G03X11237500Y-11152500I-20000J0D01*
G01*
X12980000Y-10310000D02*
G75*
G03X12980000Y-10310000I-20000J0D01*
G01*
X13205000Y-10460000D02*
G75*
G03X13205000Y-10460000I-20000J0D01*
G01*
X7974000Y-12278880D02*
X7974000Y-12355080D01*
X7935900Y-12316980D02*
X8012100Y-12316980D01*
X7974000Y-12532880D02*
X7974000Y-12609080D01*
X7935900Y-12570980D02*
X8012100Y-12570980D01*
X7974000Y-12786880D02*
X7974000Y-12863080D01*
X7935900Y-12824980D02*
X8012100Y-12824980D01*
X7974000Y-13040880D02*
X7974000Y-13117080D01*
X7935900Y-13078980D02*
X8012100Y-13078980D01*
X7974000Y-13294880D02*
X7974000Y-13371080D01*
X7935900Y-13332980D02*
X8012100Y-13332980D01*
X7974000Y-13548880D02*
X7974000Y-13625080D01*
X7935900Y-13586980D02*
X8012100Y-13586980D01*
X7974000Y-13802880D02*
X7974000Y-13879080D01*
X7935900Y-13840980D02*
X8012100Y-13840980D01*
X7974000Y-14056880D02*
X7974000Y-14133080D01*
X7935900Y-14094980D02*
X8012100Y-14094980D01*
X8228000Y-12278880D02*
X8228000Y-12355080D01*
X8189900Y-12316980D02*
X8266100Y-12316980D01*
X8228000Y-12532880D02*
X8228000Y-12609080D01*
X8189900Y-12570980D02*
X8266100Y-12570980D01*
X8228000Y-12786880D02*
X8228000Y-12863080D01*
X8189900Y-12824980D02*
X8266100Y-12824980D01*
X8228000Y-13040880D02*
X8228000Y-13117080D01*
X8189900Y-13078980D02*
X8266100Y-13078980D01*
X8228000Y-13294880D02*
X8228000Y-13371080D01*
X8189900Y-13332980D02*
X8266100Y-13332980D01*
X8228000Y-13548880D02*
X8228000Y-13625080D01*
X8189900Y-13586980D02*
X8266100Y-13586980D01*
X8228000Y-13802880D02*
X8228000Y-13879080D01*
X8189900Y-13840980D02*
X8266100Y-13840980D01*
X8228000Y-14056880D02*
X8228000Y-14133080D01*
X8189900Y-14094980D02*
X8266100Y-14094980D01*
X12835356Y-8340356D02*
X12835356Y-8269644D01*
X12764644Y-8269644D01*
X12764644Y-8340356D01*
X12835356Y-8340356D01*
X12835356Y-8594356D02*
X12835356Y-8523644D01*
X12764644Y-8523644D01*
X12764644Y-8594356D01*
X12835356Y-8594356D01*
X12835356Y-8848356D02*
X12835356Y-8777644D01*
X12764644Y-8777644D01*
X12764644Y-8848356D01*
X12835356Y-8848356D01*
X12835356Y-9102356D02*
X12835356Y-9031644D01*
X12764644Y-9031644D01*
X12764644Y-9102356D01*
X12835356Y-9102356D01*
X12835356Y-9356356D02*
X12835356Y-9285644D01*
X12764644Y-9285644D01*
X12764644Y-9356356D01*
X12835356Y-9356356D01*
X10620356Y-14985356D02*
X10620356Y-14914644D01*
X10549644Y-14914644D01*
X10549644Y-14985356D01*
X10620356Y-14985356D01*
X10758856Y-15269356D02*
X10758856Y-15198644D01*
X10688144Y-15198644D01*
X10688144Y-15269356D01*
X10758856Y-15269356D01*
X10897356Y-14985356D02*
X10897356Y-14914644D01*
X10826644Y-14914644D01*
X10826644Y-14985356D01*
X10897356Y-14985356D01*
X11035856Y-15269356D02*
X11035856Y-15198644D01*
X10965144Y-15198644D01*
X10965144Y-15269356D01*
X11035856Y-15269356D01*
X11174356Y-14985356D02*
X11174356Y-14914644D01*
X11103644Y-14914644D01*
X11103644Y-14985356D01*
X11174356Y-14985356D01*
X11312856Y-15269356D02*
X11312856Y-15198644D01*
X11242144Y-15198644D01*
X11242144Y-15269356D01*
X11312856Y-15269356D01*
X11451356Y-14985356D02*
X11451356Y-14914644D01*
X11380644Y-14914644D01*
X11380644Y-14985356D01*
X11451356Y-14985356D01*
X11589856Y-15269356D02*
X11589856Y-15198644D01*
X11519144Y-15198644D01*
X11519144Y-15269356D01*
X11589856Y-15269356D01*
X11728356Y-14985356D02*
X11728356Y-14914644D01*
X11657644Y-14914644D01*
X11657644Y-14985356D01*
X11728356Y-14985356D01*
X11866856Y-15269356D02*
X11866856Y-15198644D01*
X11796144Y-15198644D01*
X11796144Y-15269356D01*
X11866856Y-15269356D01*
X12005356Y-14985356D02*
X12005356Y-14914644D01*
X11934644Y-14914644D01*
X11934644Y-14985356D01*
X12005356Y-14985356D01*
X12143856Y-15269356D02*
X12143856Y-15198644D01*
X12073144Y-15198644D01*
X12073144Y-15269356D01*
X12143856Y-15269356D01*
X12282356Y-14985356D02*
X12282356Y-14914644D01*
X12211644Y-14914644D01*
X12211644Y-14985356D01*
X12282356Y-14985356D01*
X12420856Y-15269356D02*
X12420856Y-15198644D01*
X12350144Y-15198644D01*
X12350144Y-15269356D01*
X12420856Y-15269356D01*
X12559356Y-14985356D02*
X12559356Y-14914644D01*
X12488644Y-14914644D01*
X12488644Y-14985356D01*
X12559356Y-14985356D01*
X12697856Y-15269356D02*
X12697856Y-15198644D01*
X12627144Y-15198644D01*
X12627144Y-15269356D01*
X12697856Y-15269356D01*
X12836356Y-14985356D02*
X12836356Y-14914644D01*
X12765644Y-14914644D01*
X12765644Y-14985356D01*
X12836356Y-14985356D01*
X12974856Y-15269356D02*
X12974856Y-15198644D01*
X12904144Y-15198644D01*
X12904144Y-15269356D01*
X12974856Y-15269356D01*
X13113356Y-14985356D02*
X13113356Y-14914644D01*
X13042644Y-14914644D01*
X13042644Y-14985356D01*
X13113356Y-14985356D01*
X13251856Y-15269356D02*
X13251856Y-15198644D01*
X13181144Y-15198644D01*
X13181144Y-15269356D01*
X13251856Y-15269356D01*
X13390356Y-14985356D02*
X13390356Y-14914644D01*
X13319644Y-14914644D01*
X13319644Y-14985356D01*
X13390356Y-14985356D01*
X13528856Y-15269356D02*
X13528856Y-15198644D01*
X13458144Y-15198644D01*
X13458144Y-15269356D01*
X13528856Y-15269356D01*
X13667356Y-14985356D02*
X13667356Y-14914644D01*
X13596644Y-14914644D01*
X13596644Y-14985356D01*
X13667356Y-14985356D01*
X13805856Y-15269356D02*
X13805856Y-15198644D01*
X13735144Y-15198644D01*
X13735144Y-15269356D01*
X13805856Y-15269356D01*
X13944356Y-14985356D02*
X13944356Y-14914644D01*
X13873644Y-14914644D01*
X13873644Y-14985356D01*
X13944356Y-14985356D01*
X14082856Y-15269356D02*
X14082856Y-15198644D01*
X14012144Y-15198644D01*
X14012144Y-15269356D01*
X14082856Y-15269356D01*
X14221356Y-14985356D02*
X14221356Y-14914644D01*
X14150644Y-14914644D01*
X14150644Y-14985356D01*
X14221356Y-14985356D01*
X14359856Y-15269356D02*
X14359856Y-15198644D01*
X14289144Y-15198644D01*
X14289144Y-15269356D01*
X14359856Y-15269356D01*
X14498356Y-14985356D02*
X14498356Y-14914644D01*
X14427644Y-14914644D01*
X14427644Y-14985356D01*
X14498356Y-14985356D01*
X14636856Y-15269356D02*
X14636856Y-15198644D01*
X14566144Y-15198644D01*
X14566144Y-15269356D01*
X14636856Y-15269356D01*
X14775356Y-14985356D02*
X14775356Y-14914644D01*
X14704644Y-14914644D01*
X14704644Y-14985356D01*
X14775356Y-14985356D01*
X14913856Y-15269356D02*
X14913856Y-15198644D01*
X14843144Y-15198644D01*
X14843144Y-15269356D01*
X14913856Y-15269356D01*
X15052356Y-14985356D02*
X15052356Y-14914644D01*
X14981644Y-14914644D01*
X14981644Y-14985356D01*
X15052356Y-14985356D01*
X15190856Y-15269356D02*
X15190856Y-15198644D01*
X15120144Y-15198644D01*
X15120144Y-15269356D01*
X15190856Y-15269356D01*
X15329356Y-14985356D02*
X15329356Y-14914644D01*
X15258644Y-14914644D01*
X15258644Y-14985356D01*
X15329356Y-14985356D01*
X15467856Y-15269356D02*
X15467856Y-15198644D01*
X15397144Y-15198644D01*
X15397144Y-15269356D01*
X15467856Y-15269356D01*
X15606356Y-14985356D02*
X15606356Y-14914644D01*
X15535644Y-14914644D01*
X15535644Y-14985356D01*
X15606356Y-14985356D01*
X16557000Y-7451000D02*
X16608000Y-7400000D01*
X16557000Y-7349000D01*
X16506000Y-7400000D01*
X16557000Y-7451000D01*
X16557000Y-7751000D02*
X16608000Y-7700000D01*
X16557000Y-7649000D01*
X16506000Y-7700000D01*
X16557000Y-7751000D01*
X16557000Y-8051000D02*
X16608000Y-8000000D01*
X16557000Y-7949000D01*
X16506000Y-8000000D01*
X16557000Y-8051000D01*
X16557000Y-8351000D02*
X16608000Y-8300000D01*
X16557000Y-8249000D01*
X16506000Y-8300000D01*
X16557000Y-8351000D01*
X16557000Y-8651000D02*
X16608000Y-8600000D01*
X16557000Y-8549000D01*
X16506000Y-8600000D01*
X16557000Y-8651000D01*
X16557000Y-8951000D02*
X16608000Y-8900000D01*
X16557000Y-8849000D01*
X16506000Y-8900000D01*
X16557000Y-8951000D01*
X16557000Y-9251000D02*
X16608000Y-9200000D01*
X16557000Y-9149000D01*
X16506000Y-9200000D01*
X16557000Y-9251000D01*
X16557000Y-9551000D02*
X16608000Y-9500000D01*
X16557000Y-9449000D01*
X16506000Y-9500000D01*
X16557000Y-9551000D01*
X16557000Y-9851000D02*
X16608000Y-9800000D01*
X16557000Y-9749000D01*
X16506000Y-9800000D01*
X16557000Y-9851000D01*
X8445700Y-7451000D02*
X8496700Y-7400000D01*
X8445700Y-7349000D01*
X8394700Y-7400000D01*
X8445700Y-7451000D01*
X8445700Y-7751000D02*
X8496700Y-7700000D01*
X8445700Y-7649000D01*
X8394700Y-7700000D01*
X8445700Y-7751000D01*
X8445700Y-8051000D02*
X8496700Y-8000000D01*
X8445700Y-7949000D01*
X8394700Y-8000000D01*
X8445700Y-8051000D01*
X8445700Y-8351000D02*
X8496700Y-8300000D01*
X8445700Y-8249000D01*
X8394700Y-8300000D01*
X8445700Y-8351000D01*
X8445700Y-8651000D02*
X8496700Y-8600000D01*
X8445700Y-8549000D01*
X8394700Y-8600000D01*
X8445700Y-8651000D01*
X8445700Y-8951000D02*
X8496700Y-8900000D01*
X8445700Y-8849000D01*
X8394700Y-8900000D01*
X8445700Y-8951000D01*
X8445700Y-9251000D02*
X8496700Y-9200000D01*
X8445700Y-9149000D01*
X8394700Y-9200000D01*
X8445700Y-9251000D01*
X8445700Y-9551000D02*
X8496700Y-9500000D01*
X8445700Y-9449000D01*
X8394700Y-9500000D01*
X8445700Y-9551000D01*
X8445700Y-9851000D02*
X8496700Y-9800000D01*
X8445700Y-9749000D01*
X8394700Y-9800000D01*
X8445700Y-9851000D01*
X8770000Y-15103500D02*
X8821000Y-15052500D01*
X8770000Y-15001500D01*
X8719000Y-15052500D01*
X8770000Y-15103500D01*
X9070000Y-15103500D02*
X9121000Y-15052500D01*
X9070000Y-15001500D01*
X9019000Y-15052500D01*
X9070000Y-15103500D01*
X9743000Y-14932000D02*
X10063000Y-15252000D01*
X10063000Y-14932000D02*
X9743000Y-15252000D01*
X10063000Y-15092000D02*
G75*
G03X10063000Y-15092000I-160000J0D01*
G01*
X16093000Y-14932000D02*
X16413000Y-15252000D01*
X16413000Y-14932000D02*
X16093000Y-15252000D01*
X16413000Y-15092000D02*
G75*
G03X16413000Y-15092000I-160000J0D01*
G01*
D12*
X7783928Y-16468214D02*
X7783928Y-16168214D01*
X7855357Y-16168214D01*
X7898214Y-16182500D01*
X7926786Y-16211071D01*
X7941071Y-16239643D01*
X7955357Y-16296786D01*
X7955357Y-16339643D01*
X7941071Y-16396786D01*
X7926786Y-16425357D01*
X7898214Y-16453929D01*
X7855357Y-16468214D01*
X7783928Y-16468214D01*
X8083928Y-16468214D02*
X8083928Y-16268214D01*
X8083928Y-16325357D02*
X8098214Y-16296786D01*
X8112500Y-16282500D01*
X8141071Y-16268214D01*
X8169643Y-16268214D01*
X8269643Y-16468214D02*
X8269643Y-16268214D01*
X8269643Y-16168214D02*
X8255357Y-16182500D01*
X8269643Y-16196786D01*
X8283928Y-16182500D01*
X8269643Y-16168214D01*
X8269643Y-16196786D01*
X8455357Y-16468214D02*
X8426786Y-16453929D01*
X8412500Y-16425357D01*
X8412500Y-16168214D01*
X8612500Y-16468214D02*
X8583928Y-16453929D01*
X8569643Y-16425357D01*
X8569643Y-16168214D01*
X8955357Y-16468214D02*
X8955357Y-16168214D01*
X9055357Y-16382500D01*
X9155357Y-16168214D01*
X9155357Y-16468214D01*
X9426786Y-16468214D02*
X9426786Y-16311071D01*
X9412500Y-16282500D01*
X9383928Y-16268214D01*
X9326786Y-16268214D01*
X9298214Y-16282500D01*
X9426786Y-16453929D02*
X9398214Y-16468214D01*
X9326786Y-16468214D01*
X9298214Y-16453929D01*
X9283928Y-16425357D01*
X9283928Y-16396786D01*
X9298214Y-16368214D01*
X9326786Y-16353929D01*
X9398214Y-16353929D01*
X9426786Y-16339643D01*
X9569643Y-16268214D02*
X9569643Y-16568214D01*
X9569643Y-16282500D02*
X9598214Y-16268214D01*
X9655357Y-16268214D01*
X9683928Y-16282500D01*
X9698214Y-16296786D01*
X9712500Y-16325357D01*
X9712500Y-16411071D01*
X9698214Y-16439643D01*
X9683928Y-16453929D01*
X9655357Y-16468214D01*
X9598214Y-16468214D01*
X9569643Y-16453929D01*
X9841071Y-16439643D02*
X9855357Y-16453929D01*
X9841071Y-16468214D01*
X9826786Y-16453929D01*
X9841071Y-16439643D01*
X9841071Y-16468214D01*
X9841071Y-16282500D02*
X9855357Y-16296786D01*
X9841071Y-16311071D01*
X9826786Y-16296786D01*
X9841071Y-16282500D01*
X9841071Y-16311071D01*
X7467500Y-16947500D02*
X7497500Y-16977500D01*
X7497500Y-16947500D02*
X7467500Y-16977500D01*
X7841071Y-16798214D02*
X7869643Y-16798214D01*
X7898214Y-16812500D01*
X7912500Y-16826786D01*
X7926786Y-16855357D01*
X7941071Y-16912500D01*
X7941071Y-16983929D01*
X7926786Y-17041072D01*
X7912500Y-17069643D01*
X7898214Y-17083929D01*
X7869643Y-17098214D01*
X7841071Y-17098214D01*
X7812500Y-17083929D01*
X7798214Y-17069643D01*
X7783928Y-17041072D01*
X7769643Y-16983929D01*
X7769643Y-16912500D01*
X7783928Y-16855357D01*
X7798214Y-16826786D01*
X7812500Y-16812500D01*
X7841071Y-16798214D01*
X8069643Y-17069643D02*
X8083928Y-17083929D01*
X8069643Y-17098214D01*
X8055357Y-17083929D01*
X8069643Y-17069643D01*
X8069643Y-17098214D01*
X8183928Y-16798214D02*
X8369643Y-16798214D01*
X8269643Y-16912500D01*
X8312500Y-16912500D01*
X8341071Y-16926786D01*
X8355357Y-16941072D01*
X8369643Y-16969643D01*
X8369643Y-17041072D01*
X8355357Y-17069643D01*
X8341071Y-17083929D01*
X8312500Y-17098214D01*
X8226786Y-17098214D01*
X8198214Y-17083929D01*
X8183928Y-17069643D01*
X8555357Y-16798214D02*
X8583928Y-16798214D01*
X8612500Y-16812500D01*
X8626786Y-16826786D01*
X8641071Y-16855357D01*
X8655357Y-16912500D01*
X8655357Y-16983929D01*
X8641071Y-17041072D01*
X8626786Y-17069643D01*
X8612500Y-17083929D01*
X8583928Y-17098214D01*
X8555357Y-17098214D01*
X8526786Y-17083929D01*
X8512500Y-17069643D01*
X8498214Y-17041072D01*
X8483928Y-16983929D01*
X8483928Y-16912500D01*
X8498214Y-16855357D01*
X8512500Y-16826786D01*
X8526786Y-16812500D01*
X8555357Y-16798214D01*
X8783928Y-17098214D02*
X8783928Y-16898214D01*
X8783928Y-16926786D02*
X8798214Y-16912500D01*
X8826786Y-16898214D01*
X8869643Y-16898214D01*
X8898214Y-16912500D01*
X8912500Y-16941072D01*
X8912500Y-17098214D01*
X8912500Y-16941072D02*
X8926786Y-16912500D01*
X8955357Y-16898214D01*
X8998214Y-16898214D01*
X9026786Y-16912500D01*
X9041071Y-16941072D01*
X9041071Y-17098214D01*
X9183928Y-17098214D02*
X9183928Y-16898214D01*
X9183928Y-16926786D02*
X9198214Y-16912500D01*
X9226786Y-16898214D01*
X9269643Y-16898214D01*
X9298214Y-16912500D01*
X9312500Y-16941072D01*
X9312500Y-17098214D01*
X9312500Y-16941072D02*
X9326786Y-16912500D01*
X9355357Y-16898214D01*
X9398214Y-16898214D01*
X9426786Y-16912500D01*
X9441071Y-16941072D01*
X9441071Y-17098214D01*
X10026786Y-16783929D02*
X9769643Y-17169643D01*
X10412500Y-16798214D02*
X10441071Y-16798214D01*
X10469643Y-16812500D01*
X10483928Y-16826786D01*
X10498214Y-16855357D01*
X10512500Y-16912500D01*
X10512500Y-16983929D01*
X10498214Y-17041072D01*
X10483928Y-17069643D01*
X10469643Y-17083929D01*
X10441071Y-17098214D01*
X10412500Y-17098214D01*
X10383928Y-17083929D01*
X10369643Y-17069643D01*
X10355357Y-17041072D01*
X10341071Y-16983929D01*
X10341071Y-16912500D01*
X10355357Y-16855357D01*
X10369643Y-16826786D01*
X10383928Y-16812500D01*
X10412500Y-16798214D01*
X10641071Y-17069643D02*
X10655357Y-17083929D01*
X10641071Y-17098214D01*
X10626786Y-17083929D01*
X10641071Y-17069643D01*
X10641071Y-17098214D01*
X10841071Y-16798214D02*
X10869643Y-16798214D01*
X10898214Y-16812500D01*
X10912500Y-16826786D01*
X10926786Y-16855357D01*
X10941071Y-16912500D01*
X10941071Y-16983929D01*
X10926786Y-17041072D01*
X10912500Y-17069643D01*
X10898214Y-17083929D01*
X10869643Y-17098214D01*
X10841071Y-17098214D01*
X10812500Y-17083929D01*
X10798214Y-17069643D01*
X10783928Y-17041072D01*
X10769643Y-16983929D01*
X10769643Y-16912500D01*
X10783928Y-16855357D01*
X10798214Y-16826786D01*
X10812500Y-16812500D01*
X10841071Y-16798214D01*
X11226786Y-17098214D02*
X11055357Y-17098214D01*
X11141071Y-17098214D02*
X11141071Y-16798214D01*
X11112500Y-16841072D01*
X11083928Y-16869643D01*
X11055357Y-16883929D01*
X11341071Y-16826786D02*
X11355357Y-16812500D01*
X11383928Y-16798214D01*
X11455357Y-16798214D01*
X11483928Y-16812500D01*
X11498214Y-16826786D01*
X11512500Y-16855357D01*
X11512500Y-16883929D01*
X11498214Y-16926786D01*
X11326786Y-17098214D01*
X11512500Y-17098214D01*
X11626786Y-16798214D02*
X11626786Y-16855357D01*
X11741071Y-16798214D02*
X11741071Y-16855357D01*
X12183928Y-17212500D02*
X12169643Y-17198214D01*
X12141071Y-17155357D01*
X12126786Y-17126786D01*
X12112500Y-17083929D01*
X12098214Y-17012500D01*
X12098214Y-16955357D01*
X12112500Y-16883929D01*
X12126786Y-16841072D01*
X12141071Y-16812500D01*
X12169643Y-16769643D01*
X12183928Y-16755357D01*
X12269643Y-16798214D02*
X12469643Y-16798214D01*
X12341071Y-17098214D01*
X12598214Y-17098214D02*
X12655357Y-17098214D01*
X12683928Y-17083929D01*
X12698214Y-17069643D01*
X12726786Y-17026786D01*
X12741071Y-16969643D01*
X12741071Y-16855357D01*
X12726786Y-16826786D01*
X12712500Y-16812500D01*
X12683928Y-16798214D01*
X12626786Y-16798214D01*
X12598214Y-16812500D01*
X12583928Y-16826786D01*
X12569643Y-16855357D01*
X12569643Y-16926786D01*
X12583928Y-16955357D01*
X12598214Y-16969643D01*
X12626786Y-16983929D01*
X12683928Y-16983929D01*
X12712500Y-16969643D01*
X12726786Y-16955357D01*
X12741071Y-16926786D01*
X13098214Y-17098214D02*
X13098214Y-16798214D01*
X13226786Y-17098214D02*
X13226786Y-16941072D01*
X13212500Y-16912500D01*
X13183928Y-16898214D01*
X13141071Y-16898214D01*
X13112500Y-16912500D01*
X13098214Y-16926786D01*
X13412500Y-17098214D02*
X13383928Y-17083929D01*
X13369643Y-17069643D01*
X13355357Y-17041072D01*
X13355357Y-16955357D01*
X13369643Y-16926786D01*
X13383928Y-16912500D01*
X13412500Y-16898214D01*
X13455357Y-16898214D01*
X13483928Y-16912500D01*
X13498214Y-16926786D01*
X13512500Y-16955357D01*
X13512500Y-17041072D01*
X13498214Y-17069643D01*
X13483928Y-17083929D01*
X13455357Y-17098214D01*
X13412500Y-17098214D01*
X13683928Y-17098214D02*
X13655357Y-17083929D01*
X13641071Y-17055357D01*
X13641071Y-16798214D01*
X13912500Y-17083929D02*
X13883928Y-17098214D01*
X13826786Y-17098214D01*
X13798214Y-17083929D01*
X13783928Y-17055357D01*
X13783928Y-16941072D01*
X13798214Y-16912500D01*
X13826786Y-16898214D01*
X13883928Y-16898214D01*
X13912500Y-16912500D01*
X13926786Y-16941072D01*
X13926786Y-16969643D01*
X13783928Y-16998214D01*
X14041071Y-17083929D02*
X14069643Y-17098214D01*
X14126786Y-17098214D01*
X14155357Y-17083929D01*
X14169643Y-17055357D01*
X14169643Y-17041072D01*
X14155357Y-17012500D01*
X14126786Y-16998214D01*
X14083928Y-16998214D01*
X14055357Y-16983929D01*
X14041071Y-16955357D01*
X14041071Y-16941072D01*
X14055357Y-16912500D01*
X14083928Y-16898214D01*
X14126786Y-16898214D01*
X14155357Y-16912500D01*
X14269643Y-17212500D02*
X14283928Y-17198214D01*
X14312500Y-17155357D01*
X14326786Y-17126786D01*
X14341071Y-17083929D01*
X14355357Y-17012500D01*
X14355357Y-16955357D01*
X14341071Y-16883929D01*
X14326786Y-16841072D01*
X14312500Y-16812500D01*
X14283928Y-16769643D01*
X14269643Y-16755357D01*
X7497500Y-17358500D02*
G75*
G03X7497500Y-17358500I-20000J0D01*
G01*
X7841071Y-17194214D02*
X7869643Y-17194214D01*
X7898214Y-17208500D01*
X7912500Y-17222786D01*
X7926786Y-17251357D01*
X7941071Y-17308500D01*
X7941071Y-17379929D01*
X7926786Y-17437072D01*
X7912500Y-17465643D01*
X7898214Y-17479929D01*
X7869643Y-17494214D01*
X7841071Y-17494214D01*
X7812500Y-17479929D01*
X7798214Y-17465643D01*
X7783928Y-17437072D01*
X7769643Y-17379929D01*
X7769643Y-17308500D01*
X7783928Y-17251357D01*
X7798214Y-17222786D01*
X7812500Y-17208500D01*
X7841071Y-17194214D01*
X8069643Y-17465643D02*
X8083928Y-17479929D01*
X8069643Y-17494214D01*
X8055357Y-17479929D01*
X8069643Y-17465643D01*
X8069643Y-17494214D01*
X8341071Y-17294214D02*
X8341071Y-17494214D01*
X8269643Y-17179929D02*
X8198214Y-17394214D01*
X8383928Y-17394214D01*
X8555357Y-17194214D02*
X8583928Y-17194214D01*
X8612500Y-17208500D01*
X8626786Y-17222786D01*
X8641071Y-17251357D01*
X8655357Y-17308500D01*
X8655357Y-17379929D01*
X8641071Y-17437072D01*
X8626786Y-17465643D01*
X8612500Y-17479929D01*
X8583928Y-17494214D01*
X8555357Y-17494214D01*
X8526786Y-17479929D01*
X8512500Y-17465643D01*
X8498214Y-17437072D01*
X8483928Y-17379929D01*
X8483928Y-17308500D01*
X8498214Y-17251357D01*
X8512500Y-17222786D01*
X8526786Y-17208500D01*
X8555357Y-17194214D01*
X8783928Y-17494214D02*
X8783928Y-17294214D01*
X8783928Y-17322786D02*
X8798214Y-17308500D01*
X8826786Y-17294214D01*
X8869643Y-17294214D01*
X8898214Y-17308500D01*
X8912500Y-17337072D01*
X8912500Y-17494214D01*
X8912500Y-17337072D02*
X8926786Y-17308500D01*
X8955357Y-17294214D01*
X8998214Y-17294214D01*
X9026786Y-17308500D01*
X9041071Y-17337072D01*
X9041071Y-17494214D01*
X9183928Y-17494214D02*
X9183928Y-17294214D01*
X9183928Y-17322786D02*
X9198214Y-17308500D01*
X9226786Y-17294214D01*
X9269643Y-17294214D01*
X9298214Y-17308500D01*
X9312500Y-17337072D01*
X9312500Y-17494214D01*
X9312500Y-17337072D02*
X9326786Y-17308500D01*
X9355357Y-17294214D01*
X9398214Y-17294214D01*
X9426786Y-17308500D01*
X9441071Y-17337072D01*
X9441071Y-17494214D01*
X10026786Y-17179929D02*
X9769643Y-17565643D01*
X10412500Y-17194214D02*
X10441071Y-17194214D01*
X10469643Y-17208500D01*
X10483928Y-17222786D01*
X10498214Y-17251357D01*
X10512500Y-17308500D01*
X10512500Y-17379929D01*
X10498214Y-17437072D01*
X10483928Y-17465643D01*
X10469643Y-17479929D01*
X10441071Y-17494214D01*
X10412500Y-17494214D01*
X10383928Y-17479929D01*
X10369643Y-17465643D01*
X10355357Y-17437072D01*
X10341071Y-17379929D01*
X10341071Y-17308500D01*
X10355357Y-17251357D01*
X10369643Y-17222786D01*
X10383928Y-17208500D01*
X10412500Y-17194214D01*
X10641071Y-17465643D02*
X10655357Y-17479929D01*
X10641071Y-17494214D01*
X10626786Y-17479929D01*
X10641071Y-17465643D01*
X10641071Y-17494214D01*
X10841071Y-17194214D02*
X10869643Y-17194214D01*
X10898214Y-17208500D01*
X10912500Y-17222786D01*
X10926786Y-17251357D01*
X10941071Y-17308500D01*
X10941071Y-17379929D01*
X10926786Y-17437072D01*
X10912500Y-17465643D01*
X10898214Y-17479929D01*
X10869643Y-17494214D01*
X10841071Y-17494214D01*
X10812500Y-17479929D01*
X10798214Y-17465643D01*
X10783928Y-17437072D01*
X10769643Y-17379929D01*
X10769643Y-17308500D01*
X10783928Y-17251357D01*
X10798214Y-17222786D01*
X10812500Y-17208500D01*
X10841071Y-17194214D01*
X11226786Y-17494214D02*
X11055357Y-17494214D01*
X11141071Y-17494214D02*
X11141071Y-17194214D01*
X11112500Y-17237072D01*
X11083928Y-17265643D01*
X11055357Y-17279929D01*
X11483928Y-17194214D02*
X11426786Y-17194214D01*
X11398214Y-17208500D01*
X11383928Y-17222786D01*
X11355357Y-17265643D01*
X11341071Y-17322786D01*
X11341071Y-17437072D01*
X11355357Y-17465643D01*
X11369643Y-17479929D01*
X11398214Y-17494214D01*
X11455357Y-17494214D01*
X11483928Y-17479929D01*
X11498214Y-17465643D01*
X11512500Y-17437072D01*
X11512500Y-17365643D01*
X11498214Y-17337072D01*
X11483928Y-17322786D01*
X11455357Y-17308500D01*
X11398214Y-17308500D01*
X11369643Y-17322786D01*
X11355357Y-17337072D01*
X11341071Y-17365643D01*
X11626786Y-17194214D02*
X11626786Y-17251357D01*
X11741071Y-17194214D02*
X11741071Y-17251357D01*
X12183928Y-17608500D02*
X12169643Y-17594214D01*
X12141071Y-17551357D01*
X12126786Y-17522786D01*
X12112500Y-17479929D01*
X12098214Y-17408500D01*
X12098214Y-17351357D01*
X12112500Y-17279929D01*
X12126786Y-17237072D01*
X12141071Y-17208500D01*
X12169643Y-17165643D01*
X12183928Y-17151357D01*
X12426786Y-17294214D02*
X12426786Y-17494214D01*
X12355357Y-17179929D02*
X12283928Y-17394214D01*
X12469643Y-17394214D01*
X12812500Y-17494214D02*
X12812500Y-17194214D01*
X12941071Y-17494214D02*
X12941071Y-17337072D01*
X12926786Y-17308500D01*
X12898214Y-17294214D01*
X12855357Y-17294214D01*
X12826786Y-17308500D01*
X12812500Y-17322786D01*
X13126786Y-17494214D02*
X13098214Y-17479929D01*
X13083928Y-17465643D01*
X13069643Y-17437072D01*
X13069643Y-17351357D01*
X13083928Y-17322786D01*
X13098214Y-17308500D01*
X13126786Y-17294214D01*
X13169643Y-17294214D01*
X13198214Y-17308500D01*
X13212500Y-17322786D01*
X13226786Y-17351357D01*
X13226786Y-17437072D01*
X13212500Y-17465643D01*
X13198214Y-17479929D01*
X13169643Y-17494214D01*
X13126786Y-17494214D01*
X13398214Y-17494214D02*
X13369643Y-17479929D01*
X13355357Y-17451357D01*
X13355357Y-17194214D01*
X13626786Y-17479929D02*
X13598214Y-17494214D01*
X13541071Y-17494214D01*
X13512500Y-17479929D01*
X13498214Y-17451357D01*
X13498214Y-17337072D01*
X13512500Y-17308500D01*
X13541071Y-17294214D01*
X13598214Y-17294214D01*
X13626786Y-17308500D01*
X13641071Y-17337072D01*
X13641071Y-17365643D01*
X13498214Y-17394214D01*
X13755357Y-17479929D02*
X13783928Y-17494214D01*
X13841071Y-17494214D01*
X13869643Y-17479929D01*
X13883928Y-17451357D01*
X13883928Y-17437072D01*
X13869643Y-17408500D01*
X13841071Y-17394214D01*
X13798214Y-17394214D01*
X13769643Y-17379929D01*
X13755357Y-17351357D01*
X13755357Y-17337072D01*
X13769643Y-17308500D01*
X13798214Y-17294214D01*
X13841071Y-17294214D01*
X13869643Y-17308500D01*
X13983928Y-17608500D02*
X13998214Y-17594214D01*
X14026786Y-17551357D01*
X14041071Y-17522786D01*
X14055357Y-17479929D01*
X14069643Y-17408500D01*
X14069643Y-17351357D01*
X14055357Y-17279929D01*
X14041071Y-17237072D01*
X14026786Y-17208500D01*
X13998214Y-17165643D01*
X13983928Y-17151357D01*
X7459400Y-17716400D02*
X7459400Y-17792600D01*
X7421300Y-17754500D02*
X7497500Y-17754500D01*
X7841071Y-17590214D02*
X7869643Y-17590214D01*
X7898214Y-17604500D01*
X7912500Y-17618786D01*
X7926786Y-17647357D01*
X7941071Y-17704500D01*
X7941071Y-17775929D01*
X7926786Y-17833072D01*
X7912500Y-17861643D01*
X7898214Y-17875929D01*
X7869643Y-17890214D01*
X7841071Y-17890214D01*
X7812500Y-17875929D01*
X7798214Y-17861643D01*
X7783928Y-17833072D01*
X7769643Y-17775929D01*
X7769643Y-17704500D01*
X7783928Y-17647357D01*
X7798214Y-17618786D01*
X7812500Y-17604500D01*
X7841071Y-17590214D01*
X8069643Y-17861643D02*
X8083928Y-17875929D01*
X8069643Y-17890214D01*
X8055357Y-17875929D01*
X8069643Y-17861643D01*
X8069643Y-17890214D01*
X8183928Y-17590214D02*
X8383928Y-17590214D01*
X8255357Y-17890214D01*
X8626786Y-17590214D02*
X8569643Y-17590214D01*
X8541071Y-17604500D01*
X8526786Y-17618786D01*
X8498214Y-17661643D01*
X8483928Y-17718786D01*
X8483928Y-17833072D01*
X8498214Y-17861643D01*
X8512500Y-17875929D01*
X8541071Y-17890214D01*
X8598214Y-17890214D01*
X8626786Y-17875929D01*
X8641071Y-17861643D01*
X8655357Y-17833072D01*
X8655357Y-17761643D01*
X8641071Y-17733072D01*
X8626786Y-17718786D01*
X8598214Y-17704500D01*
X8541071Y-17704500D01*
X8512500Y-17718786D01*
X8498214Y-17733072D01*
X8483928Y-17761643D01*
X8783928Y-17890214D02*
X8783928Y-17690214D01*
X8783928Y-17718786D02*
X8798214Y-17704500D01*
X8826786Y-17690214D01*
X8869643Y-17690214D01*
X8898214Y-17704500D01*
X8912500Y-17733072D01*
X8912500Y-17890214D01*
X8912500Y-17733072D02*
X8926786Y-17704500D01*
X8955357Y-17690214D01*
X8998214Y-17690214D01*
X9026786Y-17704500D01*
X9041071Y-17733072D01*
X9041071Y-17890214D01*
X9183928Y-17890214D02*
X9183928Y-17690214D01*
X9183928Y-17718786D02*
X9198214Y-17704500D01*
X9226786Y-17690214D01*
X9269643Y-17690214D01*
X9298214Y-17704500D01*
X9312500Y-17733072D01*
X9312500Y-17890214D01*
X9312500Y-17733072D02*
X9326786Y-17704500D01*
X9355357Y-17690214D01*
X9398214Y-17690214D01*
X9426786Y-17704500D01*
X9441071Y-17733072D01*
X9441071Y-17890214D01*
X10026786Y-17575929D02*
X9769643Y-17961643D01*
X10412500Y-17590214D02*
X10441071Y-17590214D01*
X10469643Y-17604500D01*
X10483928Y-17618786D01*
X10498214Y-17647357D01*
X10512500Y-17704500D01*
X10512500Y-17775929D01*
X10498214Y-17833072D01*
X10483928Y-17861643D01*
X10469643Y-17875929D01*
X10441071Y-17890214D01*
X10412500Y-17890214D01*
X10383928Y-17875929D01*
X10369643Y-17861643D01*
X10355357Y-17833072D01*
X10341071Y-17775929D01*
X10341071Y-17704500D01*
X10355357Y-17647357D01*
X10369643Y-17618786D01*
X10383928Y-17604500D01*
X10412500Y-17590214D01*
X10641071Y-17861643D02*
X10655357Y-17875929D01*
X10641071Y-17890214D01*
X10626786Y-17875929D01*
X10641071Y-17861643D01*
X10641071Y-17890214D01*
X10841071Y-17590214D02*
X10869643Y-17590214D01*
X10898214Y-17604500D01*
X10912500Y-17618786D01*
X10926786Y-17647357D01*
X10941071Y-17704500D01*
X10941071Y-17775929D01*
X10926786Y-17833072D01*
X10912500Y-17861643D01*
X10898214Y-17875929D01*
X10869643Y-17890214D01*
X10841071Y-17890214D01*
X10812500Y-17875929D01*
X10798214Y-17861643D01*
X10783928Y-17833072D01*
X10769643Y-17775929D01*
X10769643Y-17704500D01*
X10783928Y-17647357D01*
X10798214Y-17618786D01*
X10812500Y-17604500D01*
X10841071Y-17590214D01*
X11041071Y-17590214D02*
X11226786Y-17590214D01*
X11126786Y-17704500D01*
X11169643Y-17704500D01*
X11198214Y-17718786D01*
X11212500Y-17733072D01*
X11226786Y-17761643D01*
X11226786Y-17833072D01*
X11212500Y-17861643D01*
X11198214Y-17875929D01*
X11169643Y-17890214D01*
X11083928Y-17890214D01*
X11055357Y-17875929D01*
X11041071Y-17861643D01*
X11412500Y-17590214D02*
X11441071Y-17590214D01*
X11469643Y-17604500D01*
X11483928Y-17618786D01*
X11498214Y-17647357D01*
X11512500Y-17704500D01*
X11512500Y-17775929D01*
X11498214Y-17833072D01*
X11483928Y-17861643D01*
X11469643Y-17875929D01*
X11441071Y-17890214D01*
X11412500Y-17890214D01*
X11383928Y-17875929D01*
X11369643Y-17861643D01*
X11355357Y-17833072D01*
X11341071Y-17775929D01*
X11341071Y-17704500D01*
X11355357Y-17647357D01*
X11369643Y-17618786D01*
X11383928Y-17604500D01*
X11412500Y-17590214D01*
X11626786Y-17590214D02*
X11626786Y-17647357D01*
X11741071Y-17590214D02*
X11741071Y-17647357D01*
X12183928Y-18004500D02*
X12169643Y-17990214D01*
X12141071Y-17947357D01*
X12126786Y-17918786D01*
X12112500Y-17875929D01*
X12098214Y-17804500D01*
X12098214Y-17747357D01*
X12112500Y-17675929D01*
X12126786Y-17633072D01*
X12141071Y-17604500D01*
X12169643Y-17561643D01*
X12183928Y-17547357D01*
X12455357Y-17890214D02*
X12283928Y-17890214D01*
X12369643Y-17890214D02*
X12369643Y-17590214D01*
X12341071Y-17633072D01*
X12312500Y-17661643D01*
X12283928Y-17675929D01*
X12712500Y-17590214D02*
X12655357Y-17590214D01*
X12626786Y-17604500D01*
X12612500Y-17618786D01*
X12583928Y-17661643D01*
X12569643Y-17718786D01*
X12569643Y-17833072D01*
X12583928Y-17861643D01*
X12598214Y-17875929D01*
X12626786Y-17890214D01*
X12683928Y-17890214D01*
X12712500Y-17875929D01*
X12726786Y-17861643D01*
X12741071Y-17833072D01*
X12741071Y-17761643D01*
X12726786Y-17733072D01*
X12712500Y-17718786D01*
X12683928Y-17704500D01*
X12626786Y-17704500D01*
X12598214Y-17718786D01*
X12583928Y-17733072D01*
X12569643Y-17761643D01*
X13098214Y-17890214D02*
X13098214Y-17590214D01*
X13226786Y-17890214D02*
X13226786Y-17733072D01*
X13212500Y-17704500D01*
X13183928Y-17690214D01*
X13141071Y-17690214D01*
X13112500Y-17704500D01*
X13098214Y-17718786D01*
X13412500Y-17890214D02*
X13383928Y-17875929D01*
X13369643Y-17861643D01*
X13355357Y-17833072D01*
X13355357Y-17747357D01*
X13369643Y-17718786D01*
X13383928Y-17704500D01*
X13412500Y-17690214D01*
X13455357Y-17690214D01*
X13483928Y-17704500D01*
X13498214Y-17718786D01*
X13512500Y-17747357D01*
X13512500Y-17833072D01*
X13498214Y-17861643D01*
X13483928Y-17875929D01*
X13455357Y-17890214D01*
X13412500Y-17890214D01*
X13683928Y-17890214D02*
X13655357Y-17875929D01*
X13641071Y-17847357D01*
X13641071Y-17590214D01*
X13912500Y-17875929D02*
X13883928Y-17890214D01*
X13826786Y-17890214D01*
X13798214Y-17875929D01*
X13783928Y-17847357D01*
X13783928Y-17733072D01*
X13798214Y-17704500D01*
X13826786Y-17690214D01*
X13883928Y-17690214D01*
X13912500Y-17704500D01*
X13926786Y-17733072D01*
X13926786Y-17761643D01*
X13783928Y-17790214D01*
X14041071Y-17875929D02*
X14069643Y-17890214D01*
X14126786Y-17890214D01*
X14155357Y-17875929D01*
X14169643Y-17847357D01*
X14169643Y-17833072D01*
X14155357Y-17804500D01*
X14126786Y-17790214D01*
X14083928Y-17790214D01*
X14055357Y-17775929D01*
X14041071Y-17747357D01*
X14041071Y-17733072D01*
X14055357Y-17704500D01*
X14083928Y-17690214D01*
X14126786Y-17690214D01*
X14155357Y-17704500D01*
X14269643Y-18004500D02*
X14283928Y-17990214D01*
X14312500Y-17947357D01*
X14326786Y-17918786D01*
X14341071Y-17875929D01*
X14355357Y-17804500D01*
X14355357Y-17747357D01*
X14341071Y-17675929D01*
X14326786Y-17633072D01*
X14312500Y-17604500D01*
X14283928Y-17561643D01*
X14269643Y-17547357D01*
X7482856Y-18185856D02*
X7482856Y-18115144D01*
X7412144Y-18115144D01*
X7412144Y-18185856D01*
X7482856Y-18185856D01*
X7941071Y-18286214D02*
X7769643Y-18286214D01*
X7855357Y-18286214D02*
X7855357Y-17986214D01*
X7826786Y-18029072D01*
X7798214Y-18057643D01*
X7769643Y-18071929D01*
X8069643Y-18257643D02*
X8083928Y-18271929D01*
X8069643Y-18286214D01*
X8055357Y-18271929D01*
X8069643Y-18257643D01*
X8069643Y-18286214D01*
X8269643Y-17986214D02*
X8298214Y-17986214D01*
X8326786Y-18000500D01*
X8341071Y-18014786D01*
X8355357Y-18043357D01*
X8369643Y-18100500D01*
X8369643Y-18171929D01*
X8355357Y-18229072D01*
X8341071Y-18257643D01*
X8326786Y-18271929D01*
X8298214Y-18286214D01*
X8269643Y-18286214D01*
X8241071Y-18271929D01*
X8226786Y-18257643D01*
X8212500Y-18229072D01*
X8198214Y-18171929D01*
X8198214Y-18100500D01*
X8212500Y-18043357D01*
X8226786Y-18014786D01*
X8241071Y-18000500D01*
X8269643Y-17986214D01*
X8555357Y-17986214D02*
X8583928Y-17986214D01*
X8612500Y-18000500D01*
X8626786Y-18014786D01*
X8641071Y-18043357D01*
X8655357Y-18100500D01*
X8655357Y-18171929D01*
X8641071Y-18229072D01*
X8626786Y-18257643D01*
X8612500Y-18271929D01*
X8583928Y-18286214D01*
X8555357Y-18286214D01*
X8526786Y-18271929D01*
X8512500Y-18257643D01*
X8498214Y-18229072D01*
X8483928Y-18171929D01*
X8483928Y-18100500D01*
X8498214Y-18043357D01*
X8512500Y-18014786D01*
X8526786Y-18000500D01*
X8555357Y-17986214D01*
X8783928Y-18286214D02*
X8783928Y-18086214D01*
X8783928Y-18114786D02*
X8798214Y-18100500D01*
X8826786Y-18086214D01*
X8869643Y-18086214D01*
X8898214Y-18100500D01*
X8912500Y-18129072D01*
X8912500Y-18286214D01*
X8912500Y-18129072D02*
X8926786Y-18100500D01*
X8955357Y-18086214D01*
X8998214Y-18086214D01*
X9026786Y-18100500D01*
X9041071Y-18129072D01*
X9041071Y-18286214D01*
X9183928Y-18286214D02*
X9183928Y-18086214D01*
X9183928Y-18114786D02*
X9198214Y-18100500D01*
X9226786Y-18086214D01*
X9269643Y-18086214D01*
X9298214Y-18100500D01*
X9312500Y-18129072D01*
X9312500Y-18286214D01*
X9312500Y-18129072D02*
X9326786Y-18100500D01*
X9355357Y-18086214D01*
X9398214Y-18086214D01*
X9426786Y-18100500D01*
X9441071Y-18129072D01*
X9441071Y-18286214D01*
X10026786Y-17971929D02*
X9769643Y-18357643D01*
X10412500Y-17986214D02*
X10441071Y-17986214D01*
X10469643Y-18000500D01*
X10483928Y-18014786D01*
X10498214Y-18043357D01*
X10512500Y-18100500D01*
X10512500Y-18171929D01*
X10498214Y-18229072D01*
X10483928Y-18257643D01*
X10469643Y-18271929D01*
X10441071Y-18286214D01*
X10412500Y-18286214D01*
X10383928Y-18271929D01*
X10369643Y-18257643D01*
X10355357Y-18229072D01*
X10341071Y-18171929D01*
X10341071Y-18100500D01*
X10355357Y-18043357D01*
X10369643Y-18014786D01*
X10383928Y-18000500D01*
X10412500Y-17986214D01*
X10641071Y-18257643D02*
X10655357Y-18271929D01*
X10641071Y-18286214D01*
X10626786Y-18271929D01*
X10641071Y-18257643D01*
X10641071Y-18286214D01*
X10841071Y-17986214D02*
X10869643Y-17986214D01*
X10898214Y-18000500D01*
X10912500Y-18014786D01*
X10926786Y-18043357D01*
X10941071Y-18100500D01*
X10941071Y-18171929D01*
X10926786Y-18229072D01*
X10912500Y-18257643D01*
X10898214Y-18271929D01*
X10869643Y-18286214D01*
X10841071Y-18286214D01*
X10812500Y-18271929D01*
X10798214Y-18257643D01*
X10783928Y-18229072D01*
X10769643Y-18171929D01*
X10769643Y-18100500D01*
X10783928Y-18043357D01*
X10798214Y-18014786D01*
X10812500Y-18000500D01*
X10841071Y-17986214D01*
X11041071Y-17986214D02*
X11226786Y-17986214D01*
X11126786Y-18100500D01*
X11169643Y-18100500D01*
X11198214Y-18114786D01*
X11212500Y-18129072D01*
X11226786Y-18157643D01*
X11226786Y-18229072D01*
X11212500Y-18257643D01*
X11198214Y-18271929D01*
X11169643Y-18286214D01*
X11083928Y-18286214D01*
X11055357Y-18271929D01*
X11041071Y-18257643D01*
X11369643Y-18286214D02*
X11426786Y-18286214D01*
X11455357Y-18271929D01*
X11469643Y-18257643D01*
X11498214Y-18214786D01*
X11512500Y-18157643D01*
X11512500Y-18043357D01*
X11498214Y-18014786D01*
X11483928Y-18000500D01*
X11455357Y-17986214D01*
X11398214Y-17986214D01*
X11369643Y-18000500D01*
X11355357Y-18014786D01*
X11341071Y-18043357D01*
X11341071Y-18114786D01*
X11355357Y-18143357D01*
X11369643Y-18157643D01*
X11398214Y-18171929D01*
X11455357Y-18171929D01*
X11483928Y-18157643D01*
X11498214Y-18143357D01*
X11512500Y-18114786D01*
X11626786Y-17986214D02*
X11626786Y-18043357D01*
X11741071Y-17986214D02*
X11741071Y-18043357D01*
X12183928Y-18400500D02*
X12169643Y-18386214D01*
X12141071Y-18343357D01*
X12126786Y-18314786D01*
X12112500Y-18271929D01*
X12098214Y-18200500D01*
X12098214Y-18143357D01*
X12112500Y-18071929D01*
X12126786Y-18029072D01*
X12141071Y-18000500D01*
X12169643Y-17957643D01*
X12183928Y-17943357D01*
X12426786Y-18086214D02*
X12426786Y-18286214D01*
X12355357Y-17971929D02*
X12283928Y-18186214D01*
X12469643Y-18186214D01*
X12569643Y-18014786D02*
X12583928Y-18000500D01*
X12612500Y-17986214D01*
X12683928Y-17986214D01*
X12712500Y-18000500D01*
X12726786Y-18014786D01*
X12741071Y-18043357D01*
X12741071Y-18071929D01*
X12726786Y-18114786D01*
X12555357Y-18286214D01*
X12741071Y-18286214D01*
X13098214Y-18286214D02*
X13098214Y-17986214D01*
X13226786Y-18286214D02*
X13226786Y-18129072D01*
X13212500Y-18100500D01*
X13183928Y-18086214D01*
X13141071Y-18086214D01*
X13112500Y-18100500D01*
X13098214Y-18114786D01*
X13412500Y-18286214D02*
X13383928Y-18271929D01*
X13369643Y-18257643D01*
X13355357Y-18229072D01*
X13355357Y-18143357D01*
X13369643Y-18114786D01*
X13383928Y-18100500D01*
X13412500Y-18086214D01*
X13455357Y-18086214D01*
X13483928Y-18100500D01*
X13498214Y-18114786D01*
X13512500Y-18143357D01*
X13512500Y-18229072D01*
X13498214Y-18257643D01*
X13483928Y-18271929D01*
X13455357Y-18286214D01*
X13412500Y-18286214D01*
X13683928Y-18286214D02*
X13655357Y-18271929D01*
X13641071Y-18243357D01*
X13641071Y-17986214D01*
X13912500Y-18271929D02*
X13883928Y-18286214D01*
X13826786Y-18286214D01*
X13798214Y-18271929D01*
X13783928Y-18243357D01*
X13783928Y-18129072D01*
X13798214Y-18100500D01*
X13826786Y-18086214D01*
X13883928Y-18086214D01*
X13912500Y-18100500D01*
X13926786Y-18129072D01*
X13926786Y-18157643D01*
X13783928Y-18186214D01*
X14041071Y-18271929D02*
X14069643Y-18286214D01*
X14126786Y-18286214D01*
X14155357Y-18271929D01*
X14169643Y-18243357D01*
X14169643Y-18229072D01*
X14155357Y-18200500D01*
X14126786Y-18186214D01*
X14083928Y-18186214D01*
X14055357Y-18171929D01*
X14041071Y-18143357D01*
X14041071Y-18129072D01*
X14055357Y-18100500D01*
X14083928Y-18086214D01*
X14126786Y-18086214D01*
X14155357Y-18100500D01*
X14269643Y-18400500D02*
X14283928Y-18386214D01*
X14312500Y-18343357D01*
X14326786Y-18314786D01*
X14341071Y-18271929D01*
X14355357Y-18200500D01*
X14355357Y-18143357D01*
X14341071Y-18071929D01*
X14326786Y-18029072D01*
X14312500Y-18000500D01*
X14283928Y-17957643D01*
X14269643Y-17943357D01*
X7446500Y-18597500D02*
X7497500Y-18546500D01*
X7446500Y-18495500D01*
X7395500Y-18546500D01*
X7446500Y-18597500D01*
X7941071Y-18682214D02*
X7769643Y-18682214D01*
X7855357Y-18682214D02*
X7855357Y-18382214D01*
X7826786Y-18425072D01*
X7798214Y-18453643D01*
X7769643Y-18467929D01*
X8069643Y-18653643D02*
X8083928Y-18667929D01*
X8069643Y-18682214D01*
X8055357Y-18667929D01*
X8069643Y-18653643D01*
X8069643Y-18682214D01*
X8269643Y-18382214D02*
X8298214Y-18382214D01*
X8326786Y-18396500D01*
X8341071Y-18410786D01*
X8355357Y-18439357D01*
X8369643Y-18496500D01*
X8369643Y-18567929D01*
X8355357Y-18625072D01*
X8341071Y-18653643D01*
X8326786Y-18667929D01*
X8298214Y-18682214D01*
X8269643Y-18682214D01*
X8241071Y-18667929D01*
X8226786Y-18653643D01*
X8212500Y-18625072D01*
X8198214Y-18567929D01*
X8198214Y-18496500D01*
X8212500Y-18439357D01*
X8226786Y-18410786D01*
X8241071Y-18396500D01*
X8269643Y-18382214D01*
X8483928Y-18410786D02*
X8498214Y-18396500D01*
X8526786Y-18382214D01*
X8598214Y-18382214D01*
X8626786Y-18396500D01*
X8641071Y-18410786D01*
X8655357Y-18439357D01*
X8655357Y-18467929D01*
X8641071Y-18510786D01*
X8469643Y-18682214D01*
X8655357Y-18682214D01*
X8783928Y-18682214D02*
X8783928Y-18482214D01*
X8783928Y-18510786D02*
X8798214Y-18496500D01*
X8826786Y-18482214D01*
X8869643Y-18482214D01*
X8898214Y-18496500D01*
X8912500Y-18525072D01*
X8912500Y-18682214D01*
X8912500Y-18525072D02*
X8926786Y-18496500D01*
X8955357Y-18482214D01*
X8998214Y-18482214D01*
X9026786Y-18496500D01*
X9041071Y-18525072D01*
X9041071Y-18682214D01*
X9183928Y-18682214D02*
X9183928Y-18482214D01*
X9183928Y-18510786D02*
X9198214Y-18496500D01*
X9226786Y-18482214D01*
X9269643Y-18482214D01*
X9298214Y-18496500D01*
X9312500Y-18525072D01*
X9312500Y-18682214D01*
X9312500Y-18525072D02*
X9326786Y-18496500D01*
X9355357Y-18482214D01*
X9398214Y-18482214D01*
X9426786Y-18496500D01*
X9441071Y-18525072D01*
X9441071Y-18682214D01*
X10026786Y-18367929D02*
X9769643Y-18753643D01*
X10412500Y-18382214D02*
X10441071Y-18382214D01*
X10469643Y-18396500D01*
X10483928Y-18410786D01*
X10498214Y-18439357D01*
X10512500Y-18496500D01*
X10512500Y-18567929D01*
X10498214Y-18625072D01*
X10483928Y-18653643D01*
X10469643Y-18667929D01*
X10441071Y-18682214D01*
X10412500Y-18682214D01*
X10383928Y-18667929D01*
X10369643Y-18653643D01*
X10355357Y-18625072D01*
X10341071Y-18567929D01*
X10341071Y-18496500D01*
X10355357Y-18439357D01*
X10369643Y-18410786D01*
X10383928Y-18396500D01*
X10412500Y-18382214D01*
X10641071Y-18653643D02*
X10655357Y-18667929D01*
X10641071Y-18682214D01*
X10626786Y-18667929D01*
X10641071Y-18653643D01*
X10641071Y-18682214D01*
X10841071Y-18382214D02*
X10869643Y-18382214D01*
X10898214Y-18396500D01*
X10912500Y-18410786D01*
X10926786Y-18439357D01*
X10941071Y-18496500D01*
X10941071Y-18567929D01*
X10926786Y-18625072D01*
X10912500Y-18653643D01*
X10898214Y-18667929D01*
X10869643Y-18682214D01*
X10841071Y-18682214D01*
X10812500Y-18667929D01*
X10798214Y-18653643D01*
X10783928Y-18625072D01*
X10769643Y-18567929D01*
X10769643Y-18496500D01*
X10783928Y-18439357D01*
X10798214Y-18410786D01*
X10812500Y-18396500D01*
X10841071Y-18382214D01*
X11198214Y-18482214D02*
X11198214Y-18682214D01*
X11126786Y-18367929D02*
X11055357Y-18582214D01*
X11241071Y-18582214D01*
X11412500Y-18382214D02*
X11441071Y-18382214D01*
X11469643Y-18396500D01*
X11483928Y-18410786D01*
X11498214Y-18439357D01*
X11512500Y-18496500D01*
X11512500Y-18567929D01*
X11498214Y-18625072D01*
X11483928Y-18653643D01*
X11469643Y-18667929D01*
X11441071Y-18682214D01*
X11412500Y-18682214D01*
X11383928Y-18667929D01*
X11369643Y-18653643D01*
X11355357Y-18625072D01*
X11341071Y-18567929D01*
X11341071Y-18496500D01*
X11355357Y-18439357D01*
X11369643Y-18410786D01*
X11383928Y-18396500D01*
X11412500Y-18382214D01*
X11626786Y-18382214D02*
X11626786Y-18439357D01*
X11741071Y-18382214D02*
X11741071Y-18439357D01*
X12183928Y-18796500D02*
X12169643Y-18782214D01*
X12141071Y-18739357D01*
X12126786Y-18710786D01*
X12112500Y-18667929D01*
X12098214Y-18596500D01*
X12098214Y-18539357D01*
X12112500Y-18467929D01*
X12126786Y-18425072D01*
X12141071Y-18396500D01*
X12169643Y-18353643D01*
X12183928Y-18339357D01*
X12283928Y-18410786D02*
X12298214Y-18396500D01*
X12326786Y-18382214D01*
X12398214Y-18382214D01*
X12426786Y-18396500D01*
X12441071Y-18410786D01*
X12455357Y-18439357D01*
X12455357Y-18467929D01*
X12441071Y-18510786D01*
X12269643Y-18682214D01*
X12455357Y-18682214D01*
X12641071Y-18382214D02*
X12669643Y-18382214D01*
X12698214Y-18396500D01*
X12712500Y-18410786D01*
X12726786Y-18439357D01*
X12741071Y-18496500D01*
X12741071Y-18567929D01*
X12726786Y-18625072D01*
X12712500Y-18653643D01*
X12698214Y-18667929D01*
X12669643Y-18682214D01*
X12641071Y-18682214D01*
X12612500Y-18667929D01*
X12598214Y-18653643D01*
X12583928Y-18625072D01*
X12569643Y-18567929D01*
X12569643Y-18496500D01*
X12583928Y-18439357D01*
X12598214Y-18410786D01*
X12612500Y-18396500D01*
X12641071Y-18382214D01*
X13098214Y-18682214D02*
X13098214Y-18382214D01*
X13226786Y-18682214D02*
X13226786Y-18525072D01*
X13212500Y-18496500D01*
X13183928Y-18482214D01*
X13141071Y-18482214D01*
X13112500Y-18496500D01*
X13098214Y-18510786D01*
X13412500Y-18682214D02*
X13383928Y-18667929D01*
X13369643Y-18653643D01*
X13355357Y-18625072D01*
X13355357Y-18539357D01*
X13369643Y-18510786D01*
X13383928Y-18496500D01*
X13412500Y-18482214D01*
X13455357Y-18482214D01*
X13483928Y-18496500D01*
X13498214Y-18510786D01*
X13512500Y-18539357D01*
X13512500Y-18625072D01*
X13498214Y-18653643D01*
X13483928Y-18667929D01*
X13455357Y-18682214D01*
X13412500Y-18682214D01*
X13683928Y-18682214D02*
X13655357Y-18667929D01*
X13641071Y-18639357D01*
X13641071Y-18382214D01*
X13912500Y-18667929D02*
X13883928Y-18682214D01*
X13826786Y-18682214D01*
X13798214Y-18667929D01*
X13783928Y-18639357D01*
X13783928Y-18525072D01*
X13798214Y-18496500D01*
X13826786Y-18482214D01*
X13883928Y-18482214D01*
X13912500Y-18496500D01*
X13926786Y-18525072D01*
X13926786Y-18553643D01*
X13783928Y-18582214D01*
X14041071Y-18667929D02*
X14069643Y-18682214D01*
X14126786Y-18682214D01*
X14155357Y-18667929D01*
X14169643Y-18639357D01*
X14169643Y-18625072D01*
X14155357Y-18596500D01*
X14126786Y-18582214D01*
X14083928Y-18582214D01*
X14055357Y-18567929D01*
X14041071Y-18539357D01*
X14041071Y-18525072D01*
X14055357Y-18496500D01*
X14083928Y-18482214D01*
X14126786Y-18482214D01*
X14155357Y-18496500D01*
X14269643Y-18796500D02*
X14283928Y-18782214D01*
X14312500Y-18739357D01*
X14326786Y-18710786D01*
X14341071Y-18667929D01*
X14355357Y-18596500D01*
X14355357Y-18539357D01*
X14341071Y-18467929D01*
X14326786Y-18425072D01*
X14312500Y-18396500D01*
X14283928Y-18353643D01*
X14269643Y-18339357D01*
X7177500Y-18782500D02*
X7497500Y-19102500D01*
X7497500Y-18782500D02*
X7177500Y-19102500D01*
X7497500Y-18942500D02*
G75*
G03X7497500Y-18942500I-160000J0D01*
G01*
X7755357Y-18778214D02*
X7941071Y-18778214D01*
X7841071Y-18892500D01*
X7883928Y-18892500D01*
X7912500Y-18906786D01*
X7926786Y-18921072D01*
X7941071Y-18949643D01*
X7941071Y-19021072D01*
X7926786Y-19049643D01*
X7912500Y-19063929D01*
X7883928Y-19078214D01*
X7798214Y-19078214D01*
X7769643Y-19063929D01*
X7755357Y-19049643D01*
X8069643Y-19049643D02*
X8083928Y-19063929D01*
X8069643Y-19078214D01*
X8055357Y-19063929D01*
X8069643Y-19049643D01*
X8069643Y-19078214D01*
X8198214Y-18806786D02*
X8212500Y-18792500D01*
X8241071Y-18778214D01*
X8312500Y-18778214D01*
X8341071Y-18792500D01*
X8355357Y-18806786D01*
X8369643Y-18835357D01*
X8369643Y-18863929D01*
X8355357Y-18906786D01*
X8183928Y-19078214D01*
X8369643Y-19078214D01*
X8555357Y-18778214D02*
X8583928Y-18778214D01*
X8612500Y-18792500D01*
X8626786Y-18806786D01*
X8641071Y-18835357D01*
X8655357Y-18892500D01*
X8655357Y-18963929D01*
X8641071Y-19021072D01*
X8626786Y-19049643D01*
X8612500Y-19063929D01*
X8583928Y-19078214D01*
X8555357Y-19078214D01*
X8526786Y-19063929D01*
X8512500Y-19049643D01*
X8498214Y-19021072D01*
X8483928Y-18963929D01*
X8483928Y-18892500D01*
X8498214Y-18835357D01*
X8512500Y-18806786D01*
X8526786Y-18792500D01*
X8555357Y-18778214D01*
X8783928Y-19078214D02*
X8783928Y-18878214D01*
X8783928Y-18906786D02*
X8798214Y-18892500D01*
X8826786Y-18878214D01*
X8869643Y-18878214D01*
X8898214Y-18892500D01*
X8912500Y-18921072D01*
X8912500Y-19078214D01*
X8912500Y-18921072D02*
X8926786Y-18892500D01*
X8955357Y-18878214D01*
X8998214Y-18878214D01*
X9026786Y-18892500D01*
X9041071Y-18921072D01*
X9041071Y-19078214D01*
X9183928Y-19078214D02*
X9183928Y-18878214D01*
X9183928Y-18906786D02*
X9198214Y-18892500D01*
X9226786Y-18878214D01*
X9269643Y-18878214D01*
X9298214Y-18892500D01*
X9312500Y-18921072D01*
X9312500Y-19078214D01*
X9312500Y-18921072D02*
X9326786Y-18892500D01*
X9355357Y-18878214D01*
X9398214Y-18878214D01*
X9426786Y-18892500D01*
X9441071Y-18921072D01*
X9441071Y-19078214D01*
X10026786Y-18763929D02*
X9769643Y-19149643D01*
X10412500Y-18778214D02*
X10441071Y-18778214D01*
X10469643Y-18792500D01*
X10483928Y-18806786D01*
X10498214Y-18835357D01*
X10512500Y-18892500D01*
X10512500Y-18963929D01*
X10498214Y-19021072D01*
X10483928Y-19049643D01*
X10469643Y-19063929D01*
X10441071Y-19078214D01*
X10412500Y-19078214D01*
X10383928Y-19063929D01*
X10369643Y-19049643D01*
X10355357Y-19021072D01*
X10341071Y-18963929D01*
X10341071Y-18892500D01*
X10355357Y-18835357D01*
X10369643Y-18806786D01*
X10383928Y-18792500D01*
X10412500Y-18778214D01*
X10641071Y-19049643D02*
X10655357Y-19063929D01*
X10641071Y-19078214D01*
X10626786Y-19063929D01*
X10641071Y-19049643D01*
X10641071Y-19078214D01*
X10941071Y-19078214D02*
X10769643Y-19078214D01*
X10855357Y-19078214D02*
X10855357Y-18778214D01*
X10826786Y-18821072D01*
X10798214Y-18849643D01*
X10769643Y-18863929D01*
X11055357Y-18806786D02*
X11069643Y-18792500D01*
X11098214Y-18778214D01*
X11169643Y-18778214D01*
X11198214Y-18792500D01*
X11212500Y-18806786D01*
X11226786Y-18835357D01*
X11226786Y-18863929D01*
X11212500Y-18906786D01*
X11041071Y-19078214D01*
X11226786Y-19078214D01*
X11483928Y-18778214D02*
X11426786Y-18778214D01*
X11398214Y-18792500D01*
X11383928Y-18806786D01*
X11355357Y-18849643D01*
X11341071Y-18906786D01*
X11341071Y-19021072D01*
X11355357Y-19049643D01*
X11369643Y-19063929D01*
X11398214Y-19078214D01*
X11455357Y-19078214D01*
X11483928Y-19063929D01*
X11498214Y-19049643D01*
X11512500Y-19021072D01*
X11512500Y-18949643D01*
X11498214Y-18921072D01*
X11483928Y-18906786D01*
X11455357Y-18892500D01*
X11398214Y-18892500D01*
X11369643Y-18906786D01*
X11355357Y-18921072D01*
X11341071Y-18949643D01*
X11626786Y-18778214D02*
X11626786Y-18835357D01*
X11741071Y-18778214D02*
X11741071Y-18835357D01*
X12183928Y-19192500D02*
X12169643Y-19178214D01*
X12141071Y-19135357D01*
X12126786Y-19106786D01*
X12112500Y-19063929D01*
X12098214Y-18992500D01*
X12098214Y-18935357D01*
X12112500Y-18863929D01*
X12126786Y-18821072D01*
X12141071Y-18792500D01*
X12169643Y-18749643D01*
X12183928Y-18735357D01*
X12283928Y-18806786D02*
X12298214Y-18792500D01*
X12326786Y-18778214D01*
X12398214Y-18778214D01*
X12426786Y-18792500D01*
X12441071Y-18806786D01*
X12455357Y-18835357D01*
X12455357Y-18863929D01*
X12441071Y-18906786D01*
X12269643Y-19078214D01*
X12455357Y-19078214D01*
X12812500Y-19078214D02*
X12812500Y-18778214D01*
X12941071Y-19078214D02*
X12941071Y-18921072D01*
X12926786Y-18892500D01*
X12898214Y-18878214D01*
X12855357Y-18878214D01*
X12826786Y-18892500D01*
X12812500Y-18906786D01*
X13126786Y-19078214D02*
X13098214Y-19063929D01*
X13083928Y-19049643D01*
X13069643Y-19021072D01*
X13069643Y-18935357D01*
X13083928Y-18906786D01*
X13098214Y-18892500D01*
X13126786Y-18878214D01*
X13169643Y-18878214D01*
X13198214Y-18892500D01*
X13212500Y-18906786D01*
X13226786Y-18935357D01*
X13226786Y-19021072D01*
X13212500Y-19049643D01*
X13198214Y-19063929D01*
X13169643Y-19078214D01*
X13126786Y-19078214D01*
X13398214Y-19078214D02*
X13369643Y-19063929D01*
X13355357Y-19035357D01*
X13355357Y-18778214D01*
X13626786Y-19063929D02*
X13598214Y-19078214D01*
X13541071Y-19078214D01*
X13512500Y-19063929D01*
X13498214Y-19035357D01*
X13498214Y-18921072D01*
X13512500Y-18892500D01*
X13541071Y-18878214D01*
X13598214Y-18878214D01*
X13626786Y-18892500D01*
X13641071Y-18921072D01*
X13641071Y-18949643D01*
X13498214Y-18978214D01*
X13755357Y-19063929D02*
X13783928Y-19078214D01*
X13841071Y-19078214D01*
X13869643Y-19063929D01*
X13883928Y-19035357D01*
X13883928Y-19021072D01*
X13869643Y-18992500D01*
X13841071Y-18978214D01*
X13798214Y-18978214D01*
X13769643Y-18963929D01*
X13755357Y-18935357D01*
X13755357Y-18921072D01*
X13769643Y-18892500D01*
X13798214Y-18878214D01*
X13841071Y-18878214D01*
X13869643Y-18892500D01*
X13983928Y-19192500D02*
X13998214Y-19178214D01*
X14026786Y-19135357D01*
X14041071Y-19106786D01*
X14055357Y-19063929D01*
X14069643Y-18992500D01*
X14069643Y-18935357D01*
X14055357Y-18863929D01*
X14041071Y-18821072D01*
X14026786Y-18792500D01*
X13998214Y-18749643D01*
X13983928Y-18735357D01*
M02*
