M48
; DRILL file {KiCad (5.1.4)-1} date 11/30/2021 1:29:07 PM
; FORMAT={-:-/ absolute / metric / decimal}
; #@! TF.CreationDate,2021-11-30T13:29:07-05:00
; #@! TF.GenerationSoftware,Kicad,Pcbnew,(5.1.4)-1
; #@! TF.FileFunction,Plated,1,2,PTH
FMAT,2
METRIC
T1C0.300
T2C0.400
T3C0.762
T4C1.000
T5C1.020
T6C3.200
%
G90
G05
T1
X78.45Y-108.3
X78.65Y-113.3
X79.5Y-107.2
X79.5Y-109.4
X79.75Y-112.1
X79.75Y-114.45
X90.55Y-75.55
X91.7Y-74.4
X91.7Y-76.65
X96.03Y-97.13
X96.04Y-95.86
X99.598Y-116.586
X100.35Y-109.1
X101.25Y-108.1
X101.91Y-95.86
X102.235Y-109.1
X102.3Y-74.15
X102.3Y-74.85
X102.3Y-75.55
X102.3Y-76.25
X102.3Y-76.95
X102.3Y-77.65
X102.75Y-78.5
X103.45Y-78.5
X103.734Y-114.021
X103.95Y-116.5
X104.15Y-78.5
X104.85Y-78.5
X104.85Y-110.5
X104.85Y-119.05
X105.359Y-123.266
X105.55Y-78.5
X106.25Y-78.5
X108.3Y-134.1
X109.855Y-128.295
X110.261Y-130.632
X110.518Y-139.116
X111.1Y-121.92
X111.15Y-65.35
X111.859Y-122.58
X112.5Y-66.25
X113.614Y-138.278
X113.716Y-131.699
X113.95Y-133.25
X115.05Y-134.1
X116.307Y-136.624
X116.459Y-111.023
X117.9Y-73.1
X117.9Y-76.45
X118.2Y-117.2
X118.6Y-64.9
X119.55Y-76.85
X119.6Y-63.85
X120.35Y-65.25
X120.6Y-75.65
X121.45Y-64.25
X121.7Y-76.85
X122.55Y-65.25
X125.73Y-104.623
X126.55Y-141.725
X126.6Y-128.5
X129.61Y-109.703
X131.175Y-145.875
X136.677Y-141.884
X138.862Y-137.82
X139.852Y-141.884
X142.1Y-143.675
X143.18Y-141.859
X167.45Y-111.325
X167.45Y-113.725
X169.25Y-111.1
X95.332Y-77.565
X95.332Y-78.665
X95.332Y-79.965
X95.332Y-81.165
X96.532Y-77.565
X96.532Y-78.665
X96.532Y-79.965
X96.532Y-81.165
T2
X109.5Y-88.25
X112.175Y-111.525
X129.6Y-103.1
X131.85Y-104.6
T3
X79.74Y-123.17
X79.74Y-125.71
X79.74Y-128.25
X79.74Y-130.79
X79.74Y-133.33
X79.74Y-135.87
X79.74Y-138.41
X79.74Y-140.95
X82.28Y-123.17
X82.28Y-125.71
X82.28Y-128.25
X82.28Y-130.79
X82.28Y-133.33
X82.28Y-135.87
X82.28Y-138.41
X82.28Y-140.95
T4
X128.0Y-83.05
X128.0Y-85.59
X128.0Y-88.13
X128.0Y-90.67
X128.0Y-93.21
X105.85Y-149.5
X107.235Y-152.34
X108.62Y-149.5
X110.005Y-152.34
X111.39Y-149.5
X112.775Y-152.34
X114.16Y-149.5
X115.545Y-152.34
X116.93Y-149.5
X118.315Y-152.34
X119.7Y-149.5
X121.085Y-152.34
X122.47Y-149.5
X123.855Y-152.34
X125.24Y-149.5
X126.625Y-152.34
X128.01Y-149.5
X129.395Y-152.34
X130.78Y-149.5
X132.165Y-152.34
X133.55Y-149.5
X134.935Y-152.34
X136.32Y-149.5
X137.705Y-152.34
X139.09Y-149.5
X140.475Y-152.34
X141.86Y-149.5
X143.245Y-152.34
X144.63Y-149.5
X146.015Y-152.34
X147.4Y-149.5
X148.785Y-152.34
X150.17Y-149.5
X151.555Y-152.34
X152.94Y-149.5
X154.325Y-152.34
X155.71Y-149.5
T5
X165.57Y-74.0
X165.57Y-77.0
X165.57Y-80.0
X165.57Y-83.0
X165.57Y-86.0
X165.57Y-89.0
X165.57Y-92.0
X165.57Y-95.0
X165.57Y-98.0
X84.457Y-74.0
X84.457Y-77.0
X84.457Y-80.0
X84.457Y-83.0
X84.457Y-86.0
X84.457Y-89.0
X84.457Y-92.0
X84.457Y-95.0
X84.457Y-98.0
X87.7Y-150.525
X90.7Y-150.525
T6
X99.03Y-150.92
X162.53Y-150.92
T0
M30
