%FSLAX45Y45*%
G04 Gerber Fmt 4.5, Leading zero omitted, Abs format (unit mm)*
G04 Created by KiCad (PCBNEW (5.1.4)-1) date 2021-11-30 13:29:08*
%MOMM*%
%LPD*%
G04 APERTURE LIST*
%ADD10C,0.050000*%
%ADD11C,0.200000*%
%ADD12C,0.300000*%
G04 APERTURE END LIST*
D10*
X17500000Y-16000000D02*
X7500000Y-16000000D01*
X17500000Y-6000000D02*
X17500000Y-16000000D01*
X7500000Y-6000000D02*
X17500000Y-6000000D01*
X7500000Y-16000000D02*
X7500000Y-6000000D01*
D11*
X4232000Y-13068980D02*
X4492000Y-13328980D01*
X4492000Y-13068980D02*
X4232000Y-13328980D01*
X7962000Y-11858980D02*
X8222000Y-12118980D01*
X8222000Y-11858980D02*
X7962000Y-12118980D01*
X7962000Y-14278980D02*
X8222000Y-14538980D01*
X8222000Y-14278980D02*
X7962000Y-14538980D01*
X9070000Y-15484500D02*
G75*
G03X9070000Y-15484500I-150000J0D01*
G01*
X17139000Y-7615000D02*
G75*
G03X17139000Y-7615000I-150000J0D01*
G01*
X17139000Y-9585000D02*
G75*
G03X17139000Y-9585000I-150000J0D01*
G01*
X8163700Y-7615000D02*
G75*
G03X8163700Y-7615000I-150000J0D01*
G01*
X8163700Y-9585000D02*
G75*
G03X8163700Y-9585000I-150000J0D01*
G01*
X17000000Y-15340000D02*
X17000000Y-15660000D01*
X16840000Y-15500000D02*
X17160000Y-15500000D01*
X17000000Y-6340000D02*
X17000000Y-6660000D01*
X16840000Y-6500000D02*
X17160000Y-6500000D01*
X8000000Y-15340000D02*
X8000000Y-15660000D01*
X7840000Y-15500000D02*
X8160000Y-15500000D01*
X8000000Y-6340000D02*
X8000000Y-6660000D01*
X7840000Y-6500000D02*
X8160000Y-6500000D01*
D12*
X7783928Y-16468214D02*
X7783928Y-16168214D01*
X7855357Y-16168214D01*
X7898214Y-16182500D01*
X7926786Y-16211071D01*
X7941071Y-16239643D01*
X7955357Y-16296786D01*
X7955357Y-16339643D01*
X7941071Y-16396786D01*
X7926786Y-16425357D01*
X7898214Y-16453929D01*
X7855357Y-16468214D01*
X7783928Y-16468214D01*
X8083928Y-16468214D02*
X8083928Y-16268214D01*
X8083928Y-16325357D02*
X8098214Y-16296786D01*
X8112500Y-16282500D01*
X8141071Y-16268214D01*
X8169643Y-16268214D01*
X8269643Y-16468214D02*
X8269643Y-16268214D01*
X8269643Y-16168214D02*
X8255357Y-16182500D01*
X8269643Y-16196786D01*
X8283928Y-16182500D01*
X8269643Y-16168214D01*
X8269643Y-16196786D01*
X8455357Y-16468214D02*
X8426786Y-16453929D01*
X8412500Y-16425357D01*
X8412500Y-16168214D01*
X8612500Y-16468214D02*
X8583928Y-16453929D01*
X8569643Y-16425357D01*
X8569643Y-16168214D01*
X8955357Y-16468214D02*
X8955357Y-16168214D01*
X9055357Y-16382500D01*
X9155357Y-16168214D01*
X9155357Y-16468214D01*
X9426786Y-16468214D02*
X9426786Y-16311071D01*
X9412500Y-16282500D01*
X9383928Y-16268214D01*
X9326786Y-16268214D01*
X9298214Y-16282500D01*
X9426786Y-16453929D02*
X9398214Y-16468214D01*
X9326786Y-16468214D01*
X9298214Y-16453929D01*
X9283928Y-16425357D01*
X9283928Y-16396786D01*
X9298214Y-16368214D01*
X9326786Y-16353929D01*
X9398214Y-16353929D01*
X9426786Y-16339643D01*
X9569643Y-16268214D02*
X9569643Y-16568214D01*
X9569643Y-16282500D02*
X9598214Y-16268214D01*
X9655357Y-16268214D01*
X9683928Y-16282500D01*
X9698214Y-16296786D01*
X9712500Y-16325357D01*
X9712500Y-16411071D01*
X9698214Y-16439643D01*
X9683928Y-16453929D01*
X9655357Y-16468214D01*
X9598214Y-16468214D01*
X9569643Y-16453929D01*
X9841071Y-16439643D02*
X9855357Y-16453929D01*
X9841071Y-16468214D01*
X9826786Y-16453929D01*
X9841071Y-16439643D01*
X9841071Y-16468214D01*
X9841071Y-16282500D02*
X9855357Y-16296786D01*
X9841071Y-16311071D01*
X9826786Y-16296786D01*
X9841071Y-16282500D01*
X9841071Y-16311071D01*
X7237500Y-16832500D02*
X7497500Y-17092500D01*
X7497500Y-16832500D02*
X7237500Y-17092500D01*
X7769643Y-16826786D02*
X7783928Y-16812500D01*
X7812500Y-16798214D01*
X7883928Y-16798214D01*
X7912500Y-16812500D01*
X7926786Y-16826786D01*
X7941071Y-16855357D01*
X7941071Y-16883929D01*
X7926786Y-16926786D01*
X7755357Y-17098214D01*
X7941071Y-17098214D01*
X8069643Y-17069643D02*
X8083928Y-17083929D01*
X8069643Y-17098214D01*
X8055357Y-17083929D01*
X8069643Y-17069643D01*
X8069643Y-17098214D01*
X8341071Y-16798214D02*
X8283928Y-16798214D01*
X8255357Y-16812500D01*
X8241071Y-16826786D01*
X8212500Y-16869643D01*
X8198214Y-16926786D01*
X8198214Y-17041072D01*
X8212500Y-17069643D01*
X8226786Y-17083929D01*
X8255357Y-17098214D01*
X8312500Y-17098214D01*
X8341071Y-17083929D01*
X8355357Y-17069643D01*
X8369643Y-17041072D01*
X8369643Y-16969643D01*
X8355357Y-16941072D01*
X8341071Y-16926786D01*
X8312500Y-16912500D01*
X8255357Y-16912500D01*
X8226786Y-16926786D01*
X8212500Y-16941072D01*
X8198214Y-16969643D01*
X8555357Y-16798214D02*
X8583928Y-16798214D01*
X8612500Y-16812500D01*
X8626786Y-16826786D01*
X8641071Y-16855357D01*
X8655357Y-16912500D01*
X8655357Y-16983929D01*
X8641071Y-17041072D01*
X8626786Y-17069643D01*
X8612500Y-17083929D01*
X8583928Y-17098214D01*
X8555357Y-17098214D01*
X8526786Y-17083929D01*
X8512500Y-17069643D01*
X8498214Y-17041072D01*
X8483928Y-16983929D01*
X8483928Y-16912500D01*
X8498214Y-16855357D01*
X8512500Y-16826786D01*
X8526786Y-16812500D01*
X8555357Y-16798214D01*
X8783928Y-17098214D02*
X8783928Y-16898214D01*
X8783928Y-16926786D02*
X8798214Y-16912500D01*
X8826786Y-16898214D01*
X8869643Y-16898214D01*
X8898214Y-16912500D01*
X8912500Y-16941072D01*
X8912500Y-17098214D01*
X8912500Y-16941072D02*
X8926786Y-16912500D01*
X8955357Y-16898214D01*
X8998214Y-16898214D01*
X9026786Y-16912500D01*
X9041071Y-16941072D01*
X9041071Y-17098214D01*
X9183928Y-17098214D02*
X9183928Y-16898214D01*
X9183928Y-16926786D02*
X9198214Y-16912500D01*
X9226786Y-16898214D01*
X9269643Y-16898214D01*
X9298214Y-16912500D01*
X9312500Y-16941072D01*
X9312500Y-17098214D01*
X9312500Y-16941072D02*
X9326786Y-16912500D01*
X9355357Y-16898214D01*
X9398214Y-16898214D01*
X9426786Y-16912500D01*
X9441071Y-16941072D01*
X9441071Y-17098214D01*
X10026786Y-16783929D02*
X9769643Y-17169643D01*
X10412500Y-16798214D02*
X10441071Y-16798214D01*
X10469643Y-16812500D01*
X10483928Y-16826786D01*
X10498214Y-16855357D01*
X10512500Y-16912500D01*
X10512500Y-16983929D01*
X10498214Y-17041072D01*
X10483928Y-17069643D01*
X10469643Y-17083929D01*
X10441071Y-17098214D01*
X10412500Y-17098214D01*
X10383928Y-17083929D01*
X10369643Y-17069643D01*
X10355357Y-17041072D01*
X10341071Y-16983929D01*
X10341071Y-16912500D01*
X10355357Y-16855357D01*
X10369643Y-16826786D01*
X10383928Y-16812500D01*
X10412500Y-16798214D01*
X10641071Y-17069643D02*
X10655357Y-17083929D01*
X10641071Y-17098214D01*
X10626786Y-17083929D01*
X10641071Y-17069643D01*
X10641071Y-17098214D01*
X10941071Y-17098214D02*
X10769643Y-17098214D01*
X10855357Y-17098214D02*
X10855357Y-16798214D01*
X10826786Y-16841072D01*
X10798214Y-16869643D01*
X10769643Y-16883929D01*
X11126786Y-16798214D02*
X11155357Y-16798214D01*
X11183928Y-16812500D01*
X11198214Y-16826786D01*
X11212500Y-16855357D01*
X11226786Y-16912500D01*
X11226786Y-16983929D01*
X11212500Y-17041072D01*
X11198214Y-17069643D01*
X11183928Y-17083929D01*
X11155357Y-17098214D01*
X11126786Y-17098214D01*
X11098214Y-17083929D01*
X11083928Y-17069643D01*
X11069643Y-17041072D01*
X11055357Y-16983929D01*
X11055357Y-16912500D01*
X11069643Y-16855357D01*
X11083928Y-16826786D01*
X11098214Y-16812500D01*
X11126786Y-16798214D01*
X11341071Y-16826786D02*
X11355357Y-16812500D01*
X11383928Y-16798214D01*
X11455357Y-16798214D01*
X11483928Y-16812500D01*
X11498214Y-16826786D01*
X11512500Y-16855357D01*
X11512500Y-16883929D01*
X11498214Y-16926786D01*
X11326786Y-17098214D01*
X11512500Y-17098214D01*
X11626786Y-16798214D02*
X11626786Y-16855357D01*
X11741071Y-16798214D02*
X11741071Y-16855357D01*
X12183928Y-17212500D02*
X12169643Y-17198214D01*
X12141071Y-17155357D01*
X12126786Y-17126786D01*
X12112500Y-17083929D01*
X12098214Y-17012500D01*
X12098214Y-16955357D01*
X12112500Y-16883929D01*
X12126786Y-16841072D01*
X12141071Y-16812500D01*
X12169643Y-16769643D01*
X12183928Y-16755357D01*
X12269643Y-16798214D02*
X12455357Y-16798214D01*
X12355357Y-16912500D01*
X12398214Y-16912500D01*
X12426786Y-16926786D01*
X12441071Y-16941072D01*
X12455357Y-16969643D01*
X12455357Y-17041072D01*
X12441071Y-17069643D01*
X12426786Y-17083929D01*
X12398214Y-17098214D01*
X12312500Y-17098214D01*
X12283928Y-17083929D01*
X12269643Y-17069643D01*
X12812500Y-17098214D02*
X12812500Y-16798214D01*
X12941071Y-17098214D02*
X12941071Y-16941072D01*
X12926786Y-16912500D01*
X12898214Y-16898214D01*
X12855357Y-16898214D01*
X12826786Y-16912500D01*
X12812500Y-16926786D01*
X13126786Y-17098214D02*
X13098214Y-17083929D01*
X13083928Y-17069643D01*
X13069643Y-17041072D01*
X13069643Y-16955357D01*
X13083928Y-16926786D01*
X13098214Y-16912500D01*
X13126786Y-16898214D01*
X13169643Y-16898214D01*
X13198214Y-16912500D01*
X13212500Y-16926786D01*
X13226786Y-16955357D01*
X13226786Y-17041072D01*
X13212500Y-17069643D01*
X13198214Y-17083929D01*
X13169643Y-17098214D01*
X13126786Y-17098214D01*
X13398214Y-17098214D02*
X13369643Y-17083929D01*
X13355357Y-17055357D01*
X13355357Y-16798214D01*
X13626786Y-17083929D02*
X13598214Y-17098214D01*
X13541071Y-17098214D01*
X13512500Y-17083929D01*
X13498214Y-17055357D01*
X13498214Y-16941072D01*
X13512500Y-16912500D01*
X13541071Y-16898214D01*
X13598214Y-16898214D01*
X13626786Y-16912500D01*
X13641071Y-16941072D01*
X13641071Y-16969643D01*
X13498214Y-16998214D01*
X13755357Y-17083929D02*
X13783928Y-17098214D01*
X13841071Y-17098214D01*
X13869643Y-17083929D01*
X13883928Y-17055357D01*
X13883928Y-17041072D01*
X13869643Y-17012500D01*
X13841071Y-16998214D01*
X13798214Y-16998214D01*
X13769643Y-16983929D01*
X13755357Y-16955357D01*
X13755357Y-16941072D01*
X13769643Y-16912500D01*
X13798214Y-16898214D01*
X13841071Y-16898214D01*
X13869643Y-16912500D01*
X13983928Y-17212500D02*
X13998214Y-17198214D01*
X14026786Y-17155357D01*
X14041071Y-17126786D01*
X14055357Y-17083929D01*
X14069643Y-17012500D01*
X14069643Y-16955357D01*
X14055357Y-16883929D01*
X14041071Y-16841072D01*
X14026786Y-16812500D01*
X13998214Y-16769643D01*
X13983928Y-16755357D01*
X14526786Y-17212500D02*
X14512500Y-17198214D01*
X14483928Y-17155357D01*
X14469643Y-17126786D01*
X14455357Y-17083929D01*
X14441071Y-17012500D01*
X14441071Y-16955357D01*
X14455357Y-16883929D01*
X14469643Y-16841072D01*
X14483928Y-16812500D01*
X14512500Y-16769643D01*
X14526786Y-16755357D01*
X14641071Y-16898214D02*
X14641071Y-17098214D01*
X14641071Y-16926786D02*
X14655357Y-16912500D01*
X14683928Y-16898214D01*
X14726786Y-16898214D01*
X14755357Y-16912500D01*
X14769643Y-16941072D01*
X14769643Y-17098214D01*
X14955357Y-17098214D02*
X14926786Y-17083929D01*
X14912500Y-17069643D01*
X14898214Y-17041072D01*
X14898214Y-16955357D01*
X14912500Y-16926786D01*
X14926786Y-16912500D01*
X14955357Y-16898214D01*
X14998214Y-16898214D01*
X15026786Y-16912500D01*
X15041071Y-16926786D01*
X15055357Y-16955357D01*
X15055357Y-17041072D01*
X15041071Y-17069643D01*
X15026786Y-17083929D01*
X14998214Y-17098214D01*
X14955357Y-17098214D01*
X15141071Y-16898214D02*
X15255357Y-16898214D01*
X15183928Y-16798214D02*
X15183928Y-17055357D01*
X15198214Y-17083929D01*
X15226786Y-17098214D01*
X15255357Y-17098214D01*
X15583928Y-16898214D02*
X15583928Y-17198214D01*
X15583928Y-16912500D02*
X15612500Y-16898214D01*
X15669643Y-16898214D01*
X15698214Y-16912500D01*
X15712500Y-16926786D01*
X15726786Y-16955357D01*
X15726786Y-17041072D01*
X15712500Y-17069643D01*
X15698214Y-17083929D01*
X15669643Y-17098214D01*
X15612500Y-17098214D01*
X15583928Y-17083929D01*
X15898214Y-17098214D02*
X15869643Y-17083929D01*
X15855357Y-17055357D01*
X15855357Y-16798214D01*
X16141071Y-17098214D02*
X16141071Y-16941072D01*
X16126786Y-16912500D01*
X16098214Y-16898214D01*
X16041071Y-16898214D01*
X16012500Y-16912500D01*
X16141071Y-17083929D02*
X16112500Y-17098214D01*
X16041071Y-17098214D01*
X16012500Y-17083929D01*
X15998214Y-17055357D01*
X15998214Y-17026786D01*
X16012500Y-16998214D01*
X16041071Y-16983929D01*
X16112500Y-16983929D01*
X16141071Y-16969643D01*
X16241071Y-16898214D02*
X16355357Y-16898214D01*
X16283928Y-16798214D02*
X16283928Y-17055357D01*
X16298214Y-17083929D01*
X16326786Y-17098214D01*
X16355357Y-17098214D01*
X16569643Y-17083929D02*
X16541071Y-17098214D01*
X16483928Y-17098214D01*
X16455357Y-17083929D01*
X16441071Y-17055357D01*
X16441071Y-16941072D01*
X16455357Y-16912500D01*
X16483928Y-16898214D01*
X16541071Y-16898214D01*
X16569643Y-16912500D01*
X16583928Y-16941072D01*
X16583928Y-16969643D01*
X16441071Y-16998214D01*
X16841071Y-17098214D02*
X16841071Y-16798214D01*
X16841071Y-17083929D02*
X16812500Y-17098214D01*
X16755357Y-17098214D01*
X16726786Y-17083929D01*
X16712500Y-17069643D01*
X16698214Y-17041072D01*
X16698214Y-16955357D01*
X16712500Y-16926786D01*
X16726786Y-16912500D01*
X16755357Y-16898214D01*
X16812500Y-16898214D01*
X16841071Y-16912500D01*
X16955357Y-17212500D02*
X16969643Y-17198214D01*
X16998214Y-17155357D01*
X17012500Y-17126786D01*
X17026786Y-17083929D01*
X17041071Y-17012500D01*
X17041071Y-16955357D01*
X17026786Y-16883929D01*
X17012500Y-16841072D01*
X16998214Y-16812500D01*
X16969643Y-16769643D01*
X16955357Y-16755357D01*
X7497500Y-17358500D02*
G75*
G03X7497500Y-17358500I-150000J0D01*
G01*
X7755357Y-17194214D02*
X7941071Y-17194214D01*
X7841071Y-17308500D01*
X7883928Y-17308500D01*
X7912500Y-17322786D01*
X7926786Y-17337072D01*
X7941071Y-17365643D01*
X7941071Y-17437072D01*
X7926786Y-17465643D01*
X7912500Y-17479929D01*
X7883928Y-17494214D01*
X7798214Y-17494214D01*
X7769643Y-17479929D01*
X7755357Y-17465643D01*
X8069643Y-17465643D02*
X8083928Y-17479929D01*
X8069643Y-17494214D01*
X8055357Y-17479929D01*
X8069643Y-17465643D01*
X8069643Y-17494214D01*
X8269643Y-17194214D02*
X8298214Y-17194214D01*
X8326786Y-17208500D01*
X8341071Y-17222786D01*
X8355357Y-17251357D01*
X8369643Y-17308500D01*
X8369643Y-17379929D01*
X8355357Y-17437072D01*
X8341071Y-17465643D01*
X8326786Y-17479929D01*
X8298214Y-17494214D01*
X8269643Y-17494214D01*
X8241071Y-17479929D01*
X8226786Y-17465643D01*
X8212500Y-17437072D01*
X8198214Y-17379929D01*
X8198214Y-17308500D01*
X8212500Y-17251357D01*
X8226786Y-17222786D01*
X8241071Y-17208500D01*
X8269643Y-17194214D01*
X8555357Y-17194214D02*
X8583928Y-17194214D01*
X8612500Y-17208500D01*
X8626786Y-17222786D01*
X8641071Y-17251357D01*
X8655357Y-17308500D01*
X8655357Y-17379929D01*
X8641071Y-17437072D01*
X8626786Y-17465643D01*
X8612500Y-17479929D01*
X8583928Y-17494214D01*
X8555357Y-17494214D01*
X8526786Y-17479929D01*
X8512500Y-17465643D01*
X8498214Y-17437072D01*
X8483928Y-17379929D01*
X8483928Y-17308500D01*
X8498214Y-17251357D01*
X8512500Y-17222786D01*
X8526786Y-17208500D01*
X8555357Y-17194214D01*
X8783928Y-17494214D02*
X8783928Y-17294214D01*
X8783928Y-17322786D02*
X8798214Y-17308500D01*
X8826786Y-17294214D01*
X8869643Y-17294214D01*
X8898214Y-17308500D01*
X8912500Y-17337072D01*
X8912500Y-17494214D01*
X8912500Y-17337072D02*
X8926786Y-17308500D01*
X8955357Y-17294214D01*
X8998214Y-17294214D01*
X9026786Y-17308500D01*
X9041071Y-17337072D01*
X9041071Y-17494214D01*
X9183928Y-17494214D02*
X9183928Y-17294214D01*
X9183928Y-17322786D02*
X9198214Y-17308500D01*
X9226786Y-17294214D01*
X9269643Y-17294214D01*
X9298214Y-17308500D01*
X9312500Y-17337072D01*
X9312500Y-17494214D01*
X9312500Y-17337072D02*
X9326786Y-17308500D01*
X9355357Y-17294214D01*
X9398214Y-17294214D01*
X9426786Y-17308500D01*
X9441071Y-17337072D01*
X9441071Y-17494214D01*
X10026786Y-17179929D02*
X9769643Y-17565643D01*
X10412500Y-17194214D02*
X10441071Y-17194214D01*
X10469643Y-17208500D01*
X10483928Y-17222786D01*
X10498214Y-17251357D01*
X10512500Y-17308500D01*
X10512500Y-17379929D01*
X10498214Y-17437072D01*
X10483928Y-17465643D01*
X10469643Y-17479929D01*
X10441071Y-17494214D01*
X10412500Y-17494214D01*
X10383928Y-17479929D01*
X10369643Y-17465643D01*
X10355357Y-17437072D01*
X10341071Y-17379929D01*
X10341071Y-17308500D01*
X10355357Y-17251357D01*
X10369643Y-17222786D01*
X10383928Y-17208500D01*
X10412500Y-17194214D01*
X10641071Y-17465643D02*
X10655357Y-17479929D01*
X10641071Y-17494214D01*
X10626786Y-17479929D01*
X10641071Y-17465643D01*
X10641071Y-17494214D01*
X10941071Y-17494214D02*
X10769643Y-17494214D01*
X10855357Y-17494214D02*
X10855357Y-17194214D01*
X10826786Y-17237072D01*
X10798214Y-17265643D01*
X10769643Y-17279929D01*
X11226786Y-17494214D02*
X11055357Y-17494214D01*
X11141071Y-17494214D02*
X11141071Y-17194214D01*
X11112500Y-17237072D01*
X11083928Y-17265643D01*
X11055357Y-17279929D01*
X11398214Y-17322786D02*
X11369643Y-17308500D01*
X11355357Y-17294214D01*
X11341071Y-17265643D01*
X11341071Y-17251357D01*
X11355357Y-17222786D01*
X11369643Y-17208500D01*
X11398214Y-17194214D01*
X11455357Y-17194214D01*
X11483928Y-17208500D01*
X11498214Y-17222786D01*
X11512500Y-17251357D01*
X11512500Y-17265643D01*
X11498214Y-17294214D01*
X11483928Y-17308500D01*
X11455357Y-17322786D01*
X11398214Y-17322786D01*
X11369643Y-17337072D01*
X11355357Y-17351357D01*
X11341071Y-17379929D01*
X11341071Y-17437072D01*
X11355357Y-17465643D01*
X11369643Y-17479929D01*
X11398214Y-17494214D01*
X11455357Y-17494214D01*
X11483928Y-17479929D01*
X11498214Y-17465643D01*
X11512500Y-17437072D01*
X11512500Y-17379929D01*
X11498214Y-17351357D01*
X11483928Y-17337072D01*
X11455357Y-17322786D01*
X11626786Y-17194214D02*
X11626786Y-17251357D01*
X11741071Y-17194214D02*
X11741071Y-17251357D01*
X12183928Y-17608500D02*
X12169643Y-17594214D01*
X12141071Y-17551357D01*
X12126786Y-17522786D01*
X12112500Y-17479929D01*
X12098214Y-17408500D01*
X12098214Y-17351357D01*
X12112500Y-17279929D01*
X12126786Y-17237072D01*
X12141071Y-17208500D01*
X12169643Y-17165643D01*
X12183928Y-17151357D01*
X12441071Y-17194214D02*
X12298214Y-17194214D01*
X12283928Y-17337072D01*
X12298214Y-17322786D01*
X12326786Y-17308500D01*
X12398214Y-17308500D01*
X12426786Y-17322786D01*
X12441071Y-17337072D01*
X12455357Y-17365643D01*
X12455357Y-17437072D01*
X12441071Y-17465643D01*
X12426786Y-17479929D01*
X12398214Y-17494214D01*
X12326786Y-17494214D01*
X12298214Y-17479929D01*
X12283928Y-17465643D01*
X12812500Y-17494214D02*
X12812500Y-17194214D01*
X12941071Y-17494214D02*
X12941071Y-17337072D01*
X12926786Y-17308500D01*
X12898214Y-17294214D01*
X12855357Y-17294214D01*
X12826786Y-17308500D01*
X12812500Y-17322786D01*
X13126786Y-17494214D02*
X13098214Y-17479929D01*
X13083928Y-17465643D01*
X13069643Y-17437072D01*
X13069643Y-17351357D01*
X13083928Y-17322786D01*
X13098214Y-17308500D01*
X13126786Y-17294214D01*
X13169643Y-17294214D01*
X13198214Y-17308500D01*
X13212500Y-17322786D01*
X13226786Y-17351357D01*
X13226786Y-17437072D01*
X13212500Y-17465643D01*
X13198214Y-17479929D01*
X13169643Y-17494214D01*
X13126786Y-17494214D01*
X13398214Y-17494214D02*
X13369643Y-17479929D01*
X13355357Y-17451357D01*
X13355357Y-17194214D01*
X13626786Y-17479929D02*
X13598214Y-17494214D01*
X13541071Y-17494214D01*
X13512500Y-17479929D01*
X13498214Y-17451357D01*
X13498214Y-17337072D01*
X13512500Y-17308500D01*
X13541071Y-17294214D01*
X13598214Y-17294214D01*
X13626786Y-17308500D01*
X13641071Y-17337072D01*
X13641071Y-17365643D01*
X13498214Y-17394214D01*
X13755357Y-17479929D02*
X13783928Y-17494214D01*
X13841071Y-17494214D01*
X13869643Y-17479929D01*
X13883928Y-17451357D01*
X13883928Y-17437072D01*
X13869643Y-17408500D01*
X13841071Y-17394214D01*
X13798214Y-17394214D01*
X13769643Y-17379929D01*
X13755357Y-17351357D01*
X13755357Y-17337072D01*
X13769643Y-17308500D01*
X13798214Y-17294214D01*
X13841071Y-17294214D01*
X13869643Y-17308500D01*
X13983928Y-17608500D02*
X13998214Y-17594214D01*
X14026786Y-17551357D01*
X14041071Y-17522786D01*
X14055357Y-17479929D01*
X14069643Y-17408500D01*
X14069643Y-17351357D01*
X14055357Y-17279929D01*
X14041071Y-17237072D01*
X14026786Y-17208500D01*
X13998214Y-17165643D01*
X13983928Y-17151357D01*
X14526786Y-17608500D02*
X14512500Y-17594214D01*
X14483928Y-17551357D01*
X14469643Y-17522786D01*
X14455357Y-17479929D01*
X14441071Y-17408500D01*
X14441071Y-17351357D01*
X14455357Y-17279929D01*
X14469643Y-17237072D01*
X14483928Y-17208500D01*
X14512500Y-17165643D01*
X14526786Y-17151357D01*
X14641071Y-17294214D02*
X14641071Y-17494214D01*
X14641071Y-17322786D02*
X14655357Y-17308500D01*
X14683928Y-17294214D01*
X14726786Y-17294214D01*
X14755357Y-17308500D01*
X14769643Y-17337072D01*
X14769643Y-17494214D01*
X14955357Y-17494214D02*
X14926786Y-17479929D01*
X14912500Y-17465643D01*
X14898214Y-17437072D01*
X14898214Y-17351357D01*
X14912500Y-17322786D01*
X14926786Y-17308500D01*
X14955357Y-17294214D01*
X14998214Y-17294214D01*
X15026786Y-17308500D01*
X15041071Y-17322786D01*
X15055357Y-17351357D01*
X15055357Y-17437072D01*
X15041071Y-17465643D01*
X15026786Y-17479929D01*
X14998214Y-17494214D01*
X14955357Y-17494214D01*
X15141071Y-17294214D02*
X15255357Y-17294214D01*
X15183928Y-17194214D02*
X15183928Y-17451357D01*
X15198214Y-17479929D01*
X15226786Y-17494214D01*
X15255357Y-17494214D01*
X15583928Y-17294214D02*
X15583928Y-17594214D01*
X15583928Y-17308500D02*
X15612500Y-17294214D01*
X15669643Y-17294214D01*
X15698214Y-17308500D01*
X15712500Y-17322786D01*
X15726786Y-17351357D01*
X15726786Y-17437072D01*
X15712500Y-17465643D01*
X15698214Y-17479929D01*
X15669643Y-17494214D01*
X15612500Y-17494214D01*
X15583928Y-17479929D01*
X15898214Y-17494214D02*
X15869643Y-17479929D01*
X15855357Y-17451357D01*
X15855357Y-17194214D01*
X16141071Y-17494214D02*
X16141071Y-17337072D01*
X16126786Y-17308500D01*
X16098214Y-17294214D01*
X16041071Y-17294214D01*
X16012500Y-17308500D01*
X16141071Y-17479929D02*
X16112500Y-17494214D01*
X16041071Y-17494214D01*
X16012500Y-17479929D01*
X15998214Y-17451357D01*
X15998214Y-17422786D01*
X16012500Y-17394214D01*
X16041071Y-17379929D01*
X16112500Y-17379929D01*
X16141071Y-17365643D01*
X16241071Y-17294214D02*
X16355357Y-17294214D01*
X16283928Y-17194214D02*
X16283928Y-17451357D01*
X16298214Y-17479929D01*
X16326786Y-17494214D01*
X16355357Y-17494214D01*
X16569643Y-17479929D02*
X16541071Y-17494214D01*
X16483928Y-17494214D01*
X16455357Y-17479929D01*
X16441071Y-17451357D01*
X16441071Y-17337072D01*
X16455357Y-17308500D01*
X16483928Y-17294214D01*
X16541071Y-17294214D01*
X16569643Y-17308500D01*
X16583928Y-17337072D01*
X16583928Y-17365643D01*
X16441071Y-17394214D01*
X16841071Y-17494214D02*
X16841071Y-17194214D01*
X16841071Y-17479929D02*
X16812500Y-17494214D01*
X16755357Y-17494214D01*
X16726786Y-17479929D01*
X16712500Y-17465643D01*
X16698214Y-17437072D01*
X16698214Y-17351357D01*
X16712500Y-17322786D01*
X16726786Y-17308500D01*
X16755357Y-17294214D01*
X16812500Y-17294214D01*
X16841071Y-17308500D01*
X16955357Y-17608500D02*
X16969643Y-17594214D01*
X16998214Y-17551357D01*
X17012500Y-17522786D01*
X17026786Y-17479929D01*
X17041071Y-17408500D01*
X17041071Y-17351357D01*
X17026786Y-17279929D01*
X17012500Y-17237072D01*
X16998214Y-17208500D01*
X16969643Y-17165643D01*
X16955357Y-17151357D01*
X7337500Y-17628500D02*
X7337500Y-17948500D01*
X7177500Y-17788500D02*
X7497500Y-17788500D01*
X7755357Y-17624214D02*
X7941071Y-17624214D01*
X7841071Y-17738500D01*
X7883928Y-17738500D01*
X7912500Y-17752786D01*
X7926786Y-17767072D01*
X7941071Y-17795643D01*
X7941071Y-17867072D01*
X7926786Y-17895643D01*
X7912500Y-17909929D01*
X7883928Y-17924214D01*
X7798214Y-17924214D01*
X7769643Y-17909929D01*
X7755357Y-17895643D01*
X8069643Y-17895643D02*
X8083928Y-17909929D01*
X8069643Y-17924214D01*
X8055357Y-17909929D01*
X8069643Y-17895643D01*
X8069643Y-17924214D01*
X8198214Y-17652786D02*
X8212500Y-17638500D01*
X8241071Y-17624214D01*
X8312500Y-17624214D01*
X8341071Y-17638500D01*
X8355357Y-17652786D01*
X8369643Y-17681357D01*
X8369643Y-17709929D01*
X8355357Y-17752786D01*
X8183928Y-17924214D01*
X8369643Y-17924214D01*
X8555357Y-17624214D02*
X8583928Y-17624214D01*
X8612500Y-17638500D01*
X8626786Y-17652786D01*
X8641071Y-17681357D01*
X8655357Y-17738500D01*
X8655357Y-17809929D01*
X8641071Y-17867072D01*
X8626786Y-17895643D01*
X8612500Y-17909929D01*
X8583928Y-17924214D01*
X8555357Y-17924214D01*
X8526786Y-17909929D01*
X8512500Y-17895643D01*
X8498214Y-17867072D01*
X8483928Y-17809929D01*
X8483928Y-17738500D01*
X8498214Y-17681357D01*
X8512500Y-17652786D01*
X8526786Y-17638500D01*
X8555357Y-17624214D01*
X8783928Y-17924214D02*
X8783928Y-17724214D01*
X8783928Y-17752786D02*
X8798214Y-17738500D01*
X8826786Y-17724214D01*
X8869643Y-17724214D01*
X8898214Y-17738500D01*
X8912500Y-17767072D01*
X8912500Y-17924214D01*
X8912500Y-17767072D02*
X8926786Y-17738500D01*
X8955357Y-17724214D01*
X8998214Y-17724214D01*
X9026786Y-17738500D01*
X9041071Y-17767072D01*
X9041071Y-17924214D01*
X9183928Y-17924214D02*
X9183928Y-17724214D01*
X9183928Y-17752786D02*
X9198214Y-17738500D01*
X9226786Y-17724214D01*
X9269643Y-17724214D01*
X9298214Y-17738500D01*
X9312500Y-17767072D01*
X9312500Y-17924214D01*
X9312500Y-17767072D02*
X9326786Y-17738500D01*
X9355357Y-17724214D01*
X9398214Y-17724214D01*
X9426786Y-17738500D01*
X9441071Y-17767072D01*
X9441071Y-17924214D01*
X10026786Y-17609929D02*
X9769643Y-17995643D01*
X10412500Y-17624214D02*
X10441071Y-17624214D01*
X10469643Y-17638500D01*
X10483928Y-17652786D01*
X10498214Y-17681357D01*
X10512500Y-17738500D01*
X10512500Y-17809929D01*
X10498214Y-17867072D01*
X10483928Y-17895643D01*
X10469643Y-17909929D01*
X10441071Y-17924214D01*
X10412500Y-17924214D01*
X10383928Y-17909929D01*
X10369643Y-17895643D01*
X10355357Y-17867072D01*
X10341071Y-17809929D01*
X10341071Y-17738500D01*
X10355357Y-17681357D01*
X10369643Y-17652786D01*
X10383928Y-17638500D01*
X10412500Y-17624214D01*
X10641071Y-17895643D02*
X10655357Y-17909929D01*
X10641071Y-17924214D01*
X10626786Y-17909929D01*
X10641071Y-17895643D01*
X10641071Y-17924214D01*
X10941071Y-17924214D02*
X10769643Y-17924214D01*
X10855357Y-17924214D02*
X10855357Y-17624214D01*
X10826786Y-17667072D01*
X10798214Y-17695643D01*
X10769643Y-17709929D01*
X11055357Y-17652786D02*
X11069643Y-17638500D01*
X11098214Y-17624214D01*
X11169643Y-17624214D01*
X11198214Y-17638500D01*
X11212500Y-17652786D01*
X11226786Y-17681357D01*
X11226786Y-17709929D01*
X11212500Y-17752786D01*
X11041071Y-17924214D01*
X11226786Y-17924214D01*
X11483928Y-17624214D02*
X11426786Y-17624214D01*
X11398214Y-17638500D01*
X11383928Y-17652786D01*
X11355357Y-17695643D01*
X11341071Y-17752786D01*
X11341071Y-17867072D01*
X11355357Y-17895643D01*
X11369643Y-17909929D01*
X11398214Y-17924214D01*
X11455357Y-17924214D01*
X11483928Y-17909929D01*
X11498214Y-17895643D01*
X11512500Y-17867072D01*
X11512500Y-17795643D01*
X11498214Y-17767072D01*
X11483928Y-17752786D01*
X11455357Y-17738500D01*
X11398214Y-17738500D01*
X11369643Y-17752786D01*
X11355357Y-17767072D01*
X11341071Y-17795643D01*
X11626786Y-17624214D02*
X11626786Y-17681357D01*
X11741071Y-17624214D02*
X11741071Y-17681357D01*
X12183928Y-18038500D02*
X12169643Y-18024214D01*
X12141071Y-17981357D01*
X12126786Y-17952786D01*
X12112500Y-17909929D01*
X12098214Y-17838500D01*
X12098214Y-17781357D01*
X12112500Y-17709929D01*
X12126786Y-17667072D01*
X12141071Y-17638500D01*
X12169643Y-17595643D01*
X12183928Y-17581357D01*
X12426786Y-17724214D02*
X12426786Y-17924214D01*
X12355357Y-17609929D02*
X12283928Y-17824214D01*
X12469643Y-17824214D01*
X12812500Y-17924214D02*
X12812500Y-17624214D01*
X12941071Y-17924214D02*
X12941071Y-17767072D01*
X12926786Y-17738500D01*
X12898214Y-17724214D01*
X12855357Y-17724214D01*
X12826786Y-17738500D01*
X12812500Y-17752786D01*
X13126786Y-17924214D02*
X13098214Y-17909929D01*
X13083928Y-17895643D01*
X13069643Y-17867072D01*
X13069643Y-17781357D01*
X13083928Y-17752786D01*
X13098214Y-17738500D01*
X13126786Y-17724214D01*
X13169643Y-17724214D01*
X13198214Y-17738500D01*
X13212500Y-17752786D01*
X13226786Y-17781357D01*
X13226786Y-17867072D01*
X13212500Y-17895643D01*
X13198214Y-17909929D01*
X13169643Y-17924214D01*
X13126786Y-17924214D01*
X13398214Y-17924214D02*
X13369643Y-17909929D01*
X13355357Y-17881357D01*
X13355357Y-17624214D01*
X13626786Y-17909929D02*
X13598214Y-17924214D01*
X13541071Y-17924214D01*
X13512500Y-17909929D01*
X13498214Y-17881357D01*
X13498214Y-17767072D01*
X13512500Y-17738500D01*
X13541071Y-17724214D01*
X13598214Y-17724214D01*
X13626786Y-17738500D01*
X13641071Y-17767072D01*
X13641071Y-17795643D01*
X13498214Y-17824214D01*
X13755357Y-17909929D02*
X13783928Y-17924214D01*
X13841071Y-17924214D01*
X13869643Y-17909929D01*
X13883928Y-17881357D01*
X13883928Y-17867072D01*
X13869643Y-17838500D01*
X13841071Y-17824214D01*
X13798214Y-17824214D01*
X13769643Y-17809929D01*
X13755357Y-17781357D01*
X13755357Y-17767072D01*
X13769643Y-17738500D01*
X13798214Y-17724214D01*
X13841071Y-17724214D01*
X13869643Y-17738500D01*
X13983928Y-18038500D02*
X13998214Y-18024214D01*
X14026786Y-17981357D01*
X14041071Y-17952786D01*
X14055357Y-17909929D01*
X14069643Y-17838500D01*
X14069643Y-17781357D01*
X14055357Y-17709929D01*
X14041071Y-17667072D01*
X14026786Y-17638500D01*
X13998214Y-17595643D01*
X13983928Y-17581357D01*
X14526786Y-18038500D02*
X14512500Y-18024214D01*
X14483928Y-17981357D01*
X14469643Y-17952786D01*
X14455357Y-17909929D01*
X14441071Y-17838500D01*
X14441071Y-17781357D01*
X14455357Y-17709929D01*
X14469643Y-17667072D01*
X14483928Y-17638500D01*
X14512500Y-17595643D01*
X14526786Y-17581357D01*
X14641071Y-17724214D02*
X14641071Y-17924214D01*
X14641071Y-17752786D02*
X14655357Y-17738500D01*
X14683928Y-17724214D01*
X14726786Y-17724214D01*
X14755357Y-17738500D01*
X14769643Y-17767072D01*
X14769643Y-17924214D01*
X14955357Y-17924214D02*
X14926786Y-17909929D01*
X14912500Y-17895643D01*
X14898214Y-17867072D01*
X14898214Y-17781357D01*
X14912500Y-17752786D01*
X14926786Y-17738500D01*
X14955357Y-17724214D01*
X14998214Y-17724214D01*
X15026786Y-17738500D01*
X15041071Y-17752786D01*
X15055357Y-17781357D01*
X15055357Y-17867072D01*
X15041071Y-17895643D01*
X15026786Y-17909929D01*
X14998214Y-17924214D01*
X14955357Y-17924214D01*
X15141071Y-17724214D02*
X15255357Y-17724214D01*
X15183928Y-17624214D02*
X15183928Y-17881357D01*
X15198214Y-17909929D01*
X15226786Y-17924214D01*
X15255357Y-17924214D01*
X15583928Y-17724214D02*
X15583928Y-18024214D01*
X15583928Y-17738500D02*
X15612500Y-17724214D01*
X15669643Y-17724214D01*
X15698214Y-17738500D01*
X15712500Y-17752786D01*
X15726786Y-17781357D01*
X15726786Y-17867072D01*
X15712500Y-17895643D01*
X15698214Y-17909929D01*
X15669643Y-17924214D01*
X15612500Y-17924214D01*
X15583928Y-17909929D01*
X15898214Y-17924214D02*
X15869643Y-17909929D01*
X15855357Y-17881357D01*
X15855357Y-17624214D01*
X16141071Y-17924214D02*
X16141071Y-17767072D01*
X16126786Y-17738500D01*
X16098214Y-17724214D01*
X16041071Y-17724214D01*
X16012500Y-17738500D01*
X16141071Y-17909929D02*
X16112500Y-17924214D01*
X16041071Y-17924214D01*
X16012500Y-17909929D01*
X15998214Y-17881357D01*
X15998214Y-17852786D01*
X16012500Y-17824214D01*
X16041071Y-17809929D01*
X16112500Y-17809929D01*
X16141071Y-17795643D01*
X16241071Y-17724214D02*
X16355357Y-17724214D01*
X16283928Y-17624214D02*
X16283928Y-17881357D01*
X16298214Y-17909929D01*
X16326786Y-17924214D01*
X16355357Y-17924214D01*
X16569643Y-17909929D02*
X16541071Y-17924214D01*
X16483928Y-17924214D01*
X16455357Y-17909929D01*
X16441071Y-17881357D01*
X16441071Y-17767072D01*
X16455357Y-17738500D01*
X16483928Y-17724214D01*
X16541071Y-17724214D01*
X16569643Y-17738500D01*
X16583928Y-17767072D01*
X16583928Y-17795643D01*
X16441071Y-17824214D01*
X16841071Y-17924214D02*
X16841071Y-17624214D01*
X16841071Y-17909929D02*
X16812500Y-17924214D01*
X16755357Y-17924214D01*
X16726786Y-17909929D01*
X16712500Y-17895643D01*
X16698214Y-17867072D01*
X16698214Y-17781357D01*
X16712500Y-17752786D01*
X16726786Y-17738500D01*
X16755357Y-17724214D01*
X16812500Y-17724214D01*
X16841071Y-17738500D01*
X16955357Y-18038500D02*
X16969643Y-18024214D01*
X16998214Y-17981357D01*
X17012500Y-17952786D01*
X17026786Y-17909929D01*
X17041071Y-17838500D01*
X17041071Y-17781357D01*
X17026786Y-17709929D01*
X17012500Y-17667072D01*
X16998214Y-17638500D01*
X16969643Y-17595643D01*
X16955357Y-17581357D01*
M02*
